<svg xmlns="http://www.w3.org/2000/svg" viewBox="0 0 13.24 24.49"><defs><style>.cls-1{fill:#fff;}</style></defs><title>facebook</title><g id="Layer_2" data-name="Layer 2"><g id="Contenido"><path class="cls-1" d="M12.74,0H9.57C6,0,3.69,2.37,3.69,6V8.81H.5a.5.5,0,0,0-.5.5v4a.5.5,0,0,0,.5.5H3.69V24a.5.5,0,0,0,.5.5H8.36a.5.5,0,0,0,.5-.5V13.83h3.73a.5.5,0,0,0,.5-.5v-4A.52.52,0,0,0,13,9a.54.54,0,0,0-.36-.14H8.86V6.45c0-1.13.27-1.71,1.74-1.71h2.14a.5.5,0,0,0,.5-.5V.5A.49.49,0,0,0,12.74,0Z"/></g></g></svg>