<?xml version="1.0" encoding="utf-8"?>
<!-- Generator: Adobe Illustrator 24.1.0, SVG Export Plug-In . SVG Version: 6.00 Build 0)  -->
<svg version="1.1" id="Layer_1" xmlns="http://www.w3.org/2000/svg" xmlns:xlink="http://www.w3.org/1999/xlink" x="0px" y="0px"
	 viewBox="0 0 134 107" style="enable-background:new 0 0 134 107;" xml:space="preserve">
<style type="text/css">
	.st0{fill:#7D7D7D;}
	.st1{fill:#A01A16;}
</style>
<g>
	<g>
		<path class="st0" d="M15.98,19.66c-0.84-0.96-1.27-2.13-1.27-3.49s0.42-2.53,1.27-3.51c0.86-0.96,1.88-1.44,3.08-1.44
			c0.91,0,1.7,0.28,2.4,0.83c0.69,0.54,1.11,1.23,1.25,2.06h-0.62c-0.11-0.66-0.46-1.2-1.04-1.63c-0.57-0.43-1.23-0.65-1.99-0.65
			c-1.03,0-1.91,0.42-2.63,1.27c-0.73,0.86-1.1,1.88-1.1,3.08c0,1.2,0.37,2.22,1.1,3.08c0.72,0.85,1.6,1.27,2.63,1.27
			c0.88,0,1.62-0.34,2.24-1.03c0.62-0.68,0.93-1.5,0.93-2.47v-0.24h-3.17v-0.6h3.65v4.7h-0.48v-1.94C22,19.58,21.59,20.11,21,20.5
			c-0.58,0.4-1.23,0.6-1.95,0.6C17.86,21.1,16.83,20.62,15.98,19.66z"/>
		<path class="st0" d="M24.42,20.86V14.1h0.62v1.52c0.17-0.49,0.43-0.88,0.77-1.19c0.35-0.3,0.72-0.44,1.11-0.44h0.36v0.73
			c-0.03,0-0.07-0.01-0.11-0.03c-0.03-0.02-0.05-0.03-0.06-0.03c-0.48,0-0.92,0.21-1.31,0.63c-0.39,0.42-0.64,0.96-0.76,1.6v3.97
			H24.42z"/>
		<path class="st0" d="M29.05,20.42c-0.44-0.41-0.66-0.91-0.66-1.49V14.1H29v4.82c0,0.43,0.16,0.81,0.48,1.13
			c0.32,0.31,0.71,0.46,1.16,0.46c0.54,0,1.01-0.21,1.44-0.63c0.42-0.42,0.69-0.96,0.8-1.6V14.1h0.62v6.76h-0.62v-1.19
			c-0.19,0.41-0.48,0.75-0.9,1c-0.4,0.24-0.85,0.37-1.34,0.37C30.02,21.04,29.49,20.83,29.05,20.42z"/>
		<path class="st0" d="M35.42,23.4v-9.3h0.62v1.4c0.17-0.49,0.47-0.88,0.88-1.19c0.41-0.3,0.87-0.44,1.36-0.44
			c0.89,0,1.59,0.33,2.12,0.98c0.54,0.67,0.8,1.54,0.8,2.63c0,1.06-0.26,1.9-0.77,2.54c-0.51,0.63-1.18,0.95-2.04,0.95
			c-0.51,0-0.97-0.14-1.39-0.43c-0.42-0.27-0.74-0.65-0.96-1.13v3.98H35.42z M39.96,19.67c0.41-0.57,0.62-1.32,0.62-2.25
			c0-0.93-0.21-1.67-0.62-2.22c-0.4-0.56-0.94-0.84-1.62-0.84c-0.64,0-1.18,0.3-1.62,0.9c-0.45,0.59-0.68,1.31-0.68,2.16
			c0,0.86,0.23,1.59,0.68,2.19c0.44,0.6,0.98,0.9,1.62,0.9C39.02,20.51,39.56,20.23,39.96,19.67z"/>
		<path class="st0" d="M43.27,20.02c-0.57-0.63-0.85-1.48-0.85-2.54c0-1.09,0.28-1.97,0.85-2.63c0.56-0.66,1.3-0.98,2.24-0.98
			c0.93,0,1.67,0.33,2.24,0.98c0.56,0.67,0.83,1.54,0.83,2.63c0,1.06-0.28,1.9-0.83,2.54c-0.57,0.63-1.31,0.95-2.24,0.95
			C44.57,20.97,43.83,20.66,43.27,20.02z M47.3,19.64c0.44-0.54,0.66-1.26,0.66-2.16c0-0.93-0.22-1.67-0.66-2.22
			c-0.45-0.56-1.05-0.84-1.79-0.84c-0.75,0-1.35,0.28-1.79,0.84c-0.45,0.55-0.68,1.29-0.68,2.22c0,0.9,0.23,1.62,0.68,2.16
			c0.44,0.54,1.04,0.81,1.79,0.81C46.25,20.45,46.85,20.18,47.3,19.64z"/>
		<path class="st0" d="M53.62,20.86v-9.41h0.62v9.41H53.62z"/>
		<path class="st0" d="M56.15,20.86V14.1h0.62v1.14c0.19-0.4,0.47-0.72,0.85-0.95c0.38-0.24,0.8-0.36,1.27-0.36
			c0.65,0,1.2,0.22,1.65,0.65c0.46,0.44,0.7,0.97,0.7,1.59v4.7h-0.62v-4.7c0-0.47-0.17-0.86-0.51-1.19
			c-0.34-0.33-0.75-0.49-1.22-0.49c-0.52,0-0.97,0.18-1.38,0.54c-0.4,0.37-0.65,0.83-0.74,1.38v4.46H56.15z"/>
		<path class="st0" d="M63.1,20.86V14.1h0.62v1.14c0.19-0.4,0.45-0.72,0.79-0.95c0.34-0.24,0.71-0.36,1.1-0.36
			c0.46,0,0.87,0.13,1.22,0.38c0.36,0.26,0.59,0.6,0.7,1c0.2-0.42,0.49-0.76,0.88-1c0.4-0.25,0.84-0.38,1.31-0.38
			c0.59,0,1.09,0.21,1.51,0.62c0.41,0.41,0.62,0.91,0.62,1.49v4.82h-0.62v-4.82c0-0.44-0.15-0.83-0.45-1.14
			c-0.29-0.32-0.64-0.48-1.07-0.48c-0.48,0-0.92,0.17-1.3,0.52c-0.38,0.35-0.62,0.79-0.71,1.33v4.59h-0.62v-4.82
			c0-0.44-0.14-0.83-0.42-1.14c-0.28-0.32-0.61-0.48-1-0.48c-0.46,0-0.88,0.19-1.25,0.56c-0.36,0.38-0.59,0.86-0.7,1.43v4.46H63.1z"
			/>
		<path class="st0" d="M74.19,20.02c-0.57-0.63-0.85-1.48-0.85-2.54c0-1.09,0.28-1.97,0.85-2.63c0.56-0.66,1.3-0.98,2.24-0.98
			c0.93,0,1.67,0.33,2.24,0.98c0.56,0.67,0.83,1.54,0.83,2.63c0,1.06-0.28,1.9-0.83,2.54c-0.57,0.63-1.31,0.95-2.24,0.95
			C75.49,20.97,74.74,20.66,74.19,20.02z M78.22,19.64c0.44-0.54,0.66-1.26,0.66-2.16c0-0.93-0.22-1.67-0.66-2.22
			c-0.45-0.56-1.05-0.84-1.79-0.84c-0.75,0-1.35,0.28-1.79,0.84c-0.45,0.55-0.68,1.29-0.68,2.22c0,0.9,0.23,1.62,0.68,2.16
			c0.44,0.54,1.04,0.81,1.79,0.81C77.17,20.45,77.77,20.18,78.22,19.64z"/>
		<path class="st0" d="M82.64,20.67c-0.41-0.27-0.73-0.65-0.94-1.13v1.32h-0.62v-9.41h0.62v4.17c0.17-0.49,0.47-0.88,0.9-1.19
			c0.42-0.3,0.89-0.44,1.41-0.44c0.87,0,1.56,0.32,2.07,0.97c0.53,0.65,0.79,1.51,0.79,2.59c0,1.08-0.26,1.94-0.79,2.59
			c-0.52,0.65-1.21,0.97-2.07,0.97C83.51,21.1,83.06,20.96,82.64,20.67z M85.66,19.74c0.41-0.55,0.62-1.28,0.62-2.19
			c0-0.91-0.21-1.64-0.62-2.19c-0.42-0.55-0.98-0.82-1.67-0.82c-0.64,0-1.18,0.3-1.62,0.89c-0.45,0.58-0.68,1.29-0.68,2.13
			c0,0.84,0.23,1.54,0.68,2.13c0.44,0.59,0.98,0.89,1.62,0.89C84.69,20.56,85.24,20.29,85.66,19.74z"/>
		<path class="st0" d="M88.43,11.45h0.62v0.97h-0.62V11.45z M88.43,20.86V14.1h0.62v6.76H88.43z"/>
		<path class="st0" d="M90.97,20.86v-9.41h0.62v9.41H90.97z"/>
		<path class="st0" d="M93.51,11.45h0.62v0.97h-0.62V11.45z M93.51,20.86V14.1h0.62v6.76H93.51z"/>
		<path class="st0" d="M96.31,20.54c-0.46-0.38-0.7-0.84-0.7-1.36c0-0.51,0.23-0.95,0.68-1.33c0.44-0.38,1-0.6,1.67-0.67
			c0.65-0.06,1.18-0.17,1.59-0.32c0.42-0.15,0.63-0.32,0.63-0.52v-0.6c0-0.35-0.19-0.65-0.56-0.89c-0.36-0.24-0.8-0.36-1.33-0.36
			c-0.49,0-0.92,0.12-1.28,0.35c-0.35,0.24-0.53,0.53-0.53,0.86v0.35H95.9v-0.41c0-0.45,0.23-0.84,0.7-1.16
			c0.47-0.32,1.04-0.48,1.7-0.48c0.68,0,1.26,0.15,1.75,0.46c0.48,0.31,0.73,0.68,0.73,1.11v4.09c0,0.26,0.06,0.49,0.17,0.68
			c0.11,0.19,0.25,0.29,0.42,0.29c0.05,0,0.1-0.01,0.14-0.02c0.04-0.01,0.07-0.03,0.09-0.05v0.3c-0.15,0.07-0.35,0.11-0.59,0.11
			c-0.24,0-0.44-0.11-0.62-0.32c-0.16-0.21-0.25-0.47-0.25-0.76c-0.12,0.36-0.39,0.65-0.79,0.87c-0.4,0.22-0.87,0.33-1.39,0.33
			C97.31,21.1,96.76,20.92,96.31,20.54z M99.41,20.07c0.42-0.36,0.68-0.82,0.77-1.38v-1.55c-0.14,0.13-0.41,0.23-0.79,0.32
			c-0.36,0.08-0.84,0.15-1.44,0.21c-0.48,0.04-0.89,0.21-1.22,0.51c-0.33,0.29-0.49,0.62-0.49,1.02c0,0.4,0.17,0.74,0.51,1.02
			c0.33,0.29,0.73,0.43,1.21,0.43C98.51,20.62,98.99,20.44,99.41,20.07z"/>
		<path class="st0" d="M102.79,20.86V14.1h0.62v1.52c0.17-0.49,0.43-0.88,0.77-1.19c0.35-0.3,0.72-0.44,1.11-0.44h0.36v0.73
			c-0.03,0-0.07-0.01-0.11-0.03c-0.03-0.02-0.05-0.03-0.06-0.03c-0.48,0-0.92,0.21-1.31,0.63c-0.39,0.42-0.64,0.96-0.76,1.6v3.97
			H102.79z"/>
		<path class="st0" d="M106.8,11.45h0.62v0.97h-0.62V11.45z M106.8,20.86V14.1h0.62v6.76H106.8z"/>
		<path class="st0" d="M109.84,20.02c-0.57-0.63-0.85-1.48-0.85-2.54c0-1.09,0.28-1.97,0.85-2.63c0.56-0.66,1.3-0.98,2.24-0.98
			c0.93,0,1.67,0.33,2.24,0.98c0.56,0.67,0.83,1.54,0.83,2.63c0,1.06-0.28,1.9-0.83,2.54c-0.57,0.63-1.31,0.95-2.24,0.95
			C111.14,20.97,110.39,20.66,109.84,20.02z M113.87,19.64c0.44-0.54,0.66-1.26,0.66-2.16c0-0.93-0.22-1.67-0.66-2.22
			c-0.45-0.56-1.05-0.84-1.79-0.84c-0.75,0-1.35,0.28-1.79,0.84c-0.45,0.55-0.68,1.29-0.68,2.22c0,0.9,0.23,1.62,0.68,2.16
			c0.44,0.54,1.04,0.81,1.79,0.81C112.82,20.45,113.42,20.18,113.87,19.64z"/>
		<path class="st0" d="M16.97,36.57h0.48c0.24,0,0.49-0.2,0.77-0.59c0.28-0.39,0.53-0.9,0.76-1.54l-2.52-6.7h0.57l2.24,5.92
			l2.23-5.92h0.6l-2.83,7.49c-0.2,0.54-0.45,0.98-0.76,1.32c-0.32,0.33-0.64,0.49-0.96,0.49h-0.59V36.57z"/>
		<path class="st0" d="M27.21,33.3c-0.82-0.96-1.24-2.13-1.24-3.49s0.41-2.53,1.24-3.51c0.81-0.96,1.8-1.44,2.97-1.44
			c0.96,0,1.77,0.26,2.43,0.79c0.66,0.52,1.07,1.22,1.22,2.09h-0.62c-0.11-0.66-0.46-1.2-1.04-1.63c-0.57-0.43-1.23-0.65-1.99-0.65
			c-0.99,0-1.83,0.42-2.53,1.27c-0.7,0.86-1.05,1.88-1.05,3.08c0,1.2,0.35,2.22,1.05,3.08c0.7,0.85,1.55,1.27,2.53,1.27
			c0.84,0,1.54-0.25,2.09-0.76c0.56-0.51,0.87-1.18,0.94-2.03h0.62c-0.08,1.03-0.46,1.85-1.13,2.46c-0.66,0.61-1.5,0.92-2.52,0.92
			C29.01,34.74,28.02,34.26,27.21,33.3z"/>
		<path class="st0" d="M35.68,33.66c-0.57-0.63-0.85-1.48-0.85-2.54c0-1.09,0.28-1.97,0.85-2.63c0.56-0.66,1.3-0.98,2.24-0.98
			c0.93,0,1.67,0.33,2.24,0.98c0.56,0.67,0.83,1.54,0.83,2.63c0,1.06-0.28,1.9-0.83,2.54c-0.57,0.63-1.31,0.95-2.24,0.95
			C36.98,34.61,36.24,34.3,35.68,33.66z M39.71,33.28c0.44-0.54,0.66-1.26,0.66-2.16c0-0.93-0.22-1.67-0.66-2.22
			c-0.45-0.56-1.05-0.84-1.79-0.84c-0.75,0-1.35,0.28-1.79,0.84c-0.45,0.55-0.68,1.29-0.68,2.22c0,0.9,0.23,1.62,0.68,2.16
			c0.44,0.54,1.04,0.81,1.79,0.81C38.66,34.09,39.26,33.82,39.71,33.28z"/>
		<path class="st0" d="M42.79,34.04c-0.49-0.42-0.74-0.94-0.74-1.54h0.57c0,0.45,0.19,0.85,0.57,1.17c0.38,0.32,0.84,0.48,1.38,0.48
			c0.62,0,1.12-0.14,1.5-0.43c0.37-0.3,0.56-0.68,0.56-1.16c0-0.36-0.2-0.67-0.59-0.92c-0.39-0.24-0.92-0.4-1.58-0.46
			c-0.7-0.06-1.26-0.26-1.67-0.6c-0.42-0.34-0.63-0.76-0.63-1.25c0-0.56,0.21-0.99,0.63-1.3c0.42-0.31,1.01-0.46,1.78-0.46
			c0.73,0,1.31,0.16,1.75,0.49c0.44,0.33,0.66,0.77,0.66,1.32h-0.59c-0.07-0.41-0.27-0.74-0.59-0.97c-0.32-0.23-0.73-0.35-1.24-0.35
			c-0.56,0-1,0.12-1.33,0.35c-0.33,0.23-0.49,0.54-0.49,0.92c0,0.36,0.2,0.67,0.6,0.92c0.39,0.24,0.92,0.4,1.58,0.46
			c0.69,0.06,1.25,0.28,1.67,0.63c0.41,0.36,0.62,0.81,0.62,1.35c0,0.6-0.24,1.08-0.73,1.44c-0.47,0.36-1.11,0.54-1.92,0.54
			C43.87,34.68,43.27,34.47,42.79,34.04z"/>
		<path class="st0" d="M49.11,34.31c-0.24-0.27-0.36-0.61-0.36-1.02v-5.06h-0.94v-0.49h0.94v-1.92h0.62v1.92h0.9v0.49h-0.9v5.06
			c0,0.26,0.07,0.49,0.2,0.68c0.12,0.19,0.28,0.29,0.46,0.29c0.2,0,0.36-0.04,0.48-0.11v0.46c-0.23,0.08-0.4,0.13-0.53,0.13
			C49.65,34.74,49.36,34.6,49.11,34.31z"/>
		<path class="st0" d="M51.67,34.5v-6.76h0.62v1.52c0.17-0.49,0.43-0.88,0.77-1.19c0.35-0.3,0.72-0.44,1.11-0.44h0.36v0.73
			c-0.03,0-0.07-0.01-0.11-0.03c-0.03-0.02-0.05-0.03-0.06-0.03c-0.48,0-0.92,0.21-1.31,0.63c-0.39,0.42-0.64,0.96-0.76,1.6v3.97
			H51.67z"/>
		<path class="st0" d="M56.3,34.06c-0.44-0.41-0.66-0.91-0.66-1.49v-4.82h0.62v4.82c0,0.43,0.16,0.81,0.48,1.13
			c0.32,0.31,0.71,0.46,1.16,0.46c0.54,0,1.01-0.21,1.44-0.63c0.42-0.42,0.69-0.96,0.8-1.6v-4.17h0.62v6.76h-0.62v-1.19
			c-0.19,0.41-0.48,0.75-0.9,1c-0.4,0.24-0.85,0.37-1.34,0.37C57.27,34.68,56.74,34.47,56.3,34.06z"/>
		<path class="st0" d="M63.2,33.73c-0.61-0.72-0.91-1.59-0.91-2.6c0-0.99,0.3-1.85,0.91-2.55c0.61-0.71,1.34-1.06,2.21-1.06
			c0.71,0,1.32,0.22,1.82,0.65c0.5,0.44,0.76,0.97,0.76,1.59h-0.62c0-0.44-0.19-0.83-0.57-1.14c-0.38-0.32-0.84-0.48-1.39-0.48
			c-0.69,0-1.28,0.29-1.78,0.87c-0.48,0.59-0.73,1.3-0.73,2.13c0,0.85,0.24,1.57,0.73,2.17c0.49,0.6,1.09,0.9,1.78,0.9
			c0.54,0,0.99-0.16,1.36-0.49c0.38-0.33,0.57-0.72,0.57-1.17h0.65c0,0.62-0.25,1.16-0.76,1.6c-0.5,0.44-1.11,0.67-1.82,0.67
			C64.54,34.81,63.81,34.45,63.2,33.73z"/>
		<path class="st0" d="M69.86,34.31c-0.24-0.27-0.36-0.61-0.36-1.02v-5.06h-0.94v-0.49h0.94v-1.92h0.62v1.92h0.9v0.49h-0.9v5.06
			c0,0.26,0.07,0.49,0.2,0.68c0.12,0.19,0.28,0.29,0.46,0.29c0.2,0,0.36-0.04,0.48-0.11v0.46c-0.23,0.08-0.4,0.13-0.53,0.13
			C70.4,34.74,70.11,34.6,69.86,34.31z"/>
		<path class="st0" d="M72.71,33.66c-0.57-0.63-0.85-1.48-0.85-2.54c0-1.09,0.28-1.97,0.85-2.63c0.56-0.66,1.3-0.98,2.24-0.98
			c0.93,0,1.67,0.33,2.24,0.98c0.56,0.67,0.83,1.54,0.83,2.63c0,1.06-0.28,1.9-0.83,2.54c-0.57,0.63-1.31,0.95-2.24,0.95
			C74.02,34.61,73.27,34.3,72.71,33.66z M76.75,33.28c0.44-0.54,0.66-1.26,0.66-2.16c0-0.93-0.22-1.67-0.66-2.22
			c-0.45-0.56-1.05-0.84-1.79-0.84c-0.75,0-1.35,0.28-1.79,0.84c-0.45,0.55-0.68,1.29-0.68,2.22c0,0.9,0.23,1.62,0.68,2.16
			c0.44,0.54,1.04,0.81,1.79,0.81C75.7,34.09,76.29,33.82,76.75,33.28z"/>
		<path class="st0" d="M79.6,34.5v-6.76h0.62v1.52c0.17-0.49,0.43-0.88,0.77-1.19c0.35-0.3,0.72-0.44,1.11-0.44h0.36v0.73
			c-0.03,0-0.07-0.01-0.11-0.03c-0.03-0.02-0.05-0.03-0.06-0.03c-0.48,0-0.92,0.21-1.31,0.63c-0.39,0.42-0.64,0.96-0.76,1.6v3.97
			H79.6z"/>
	</g>
	<g>
		<path class="st1" d="M31.02,46.88v0.86h-5.67v27.67c0,1.93,0.09,3.81,0.28,5.64c0.19,1.83,0.62,3.46,1.29,4.9
			c0.68,1.44,1.68,2.6,3.02,3.48c1.33,0.88,3.13,1.32,5.39,1.32c2.22,0,4.08-0.26,5.58-0.77c1.5-0.51,2.74-1.19,3.73-2.03
			c0.99-0.84,1.75-1.79,2.28-2.83c0.53-1.05,0.92-2.09,1.17-3.14c0.25-1.05,0.39-2.03,0.43-2.96c0.04-0.92,0.06-1.69,0.06-2.31
			V47.74h-5.61v-0.86H55.3v0.86h-5.73v28.9c0,0.66-0.02,1.49-0.06,2.5c-0.04,1.01-0.21,2.06-0.49,3.17
			c-0.29,1.11-0.72,2.22-1.29,3.33c-0.58,1.11-1.42,2.11-2.53,2.99c-1.11,0.88-2.51,1.6-4.19,2.16c-1.68,0.55-3.76,0.83-6.22,0.83
			c-3.99,0-7.19-0.44-9.61-1.32c-2.42-0.88-4.28-2.03-5.58-3.45c-1.29-1.42-2.15-3.03-2.56-4.84c-0.41-1.81-0.62-3.64-0.62-5.48
			V47.74h-5.73v-0.86H31.02z"/>
		<path class="st1" d="M58.44,89.89V65.18h-4.07v-0.86h11.46v6.16h0.12c0.16-0.37,0.45-0.93,0.86-1.69
			c0.41-0.76,1.01-1.51,1.79-2.25c0.78-0.74,1.79-1.39,3.02-1.94c1.23-0.55,2.77-0.83,4.62-0.83c2.71,0,4.82,0.78,6.32,2.34
			c1.5,1.56,2.25,3.7,2.25,6.41v17.38h4.13v0.86H73.48v-0.86h3.82V70.42c0-1.73-0.35-2.99-1.05-3.79c-0.7-0.8-1.64-1.2-2.83-1.2
			c-0.99,0-1.93,0.24-2.83,0.71c-0.9,0.47-1.69,1.18-2.37,2.13c-0.68,0.95-1.22,2.12-1.63,3.51c-0.41,1.4-0.62,3.04-0.62,4.93v13.19
			h3.88v0.86H54.37v-0.86H58.44z"/>
		<path class="st1" d="M111.22,64.6c1.83,0.76,3.42,1.78,4.78,3.05c1.36,1.27,2.41,2.76,3.17,4.47c0.76,1.71,1.14,3.5,1.14,5.39
			c0,1.93-0.38,3.75-1.14,5.45c-0.76,1.71-1.82,3.19-3.17,4.47c-1.36,1.27-2.95,2.28-4.78,3.02c-1.83,0.74-3.81,1.11-5.95,1.11
			c-2.14,0-4.12-0.37-5.95-1.11c-1.83-0.74-3.42-1.75-4.78-3.02c-1.36-1.27-2.41-2.76-3.17-4.47c-0.76-1.7-1.14-3.52-1.14-5.45
			c0-1.89,0.38-3.69,1.14-5.39c0.76-1.7,1.82-3.19,3.17-4.47c1.36-1.27,2.95-2.29,4.78-3.05c1.83-0.76,3.81-1.14,5.95-1.14
			C107.41,63.46,109.4,63.84,111.22,64.6z M109.04,89.61c0.9-0.76,1.57-1.76,2-2.99c0.43-1.23,0.7-2.65,0.8-4.25
			c0.1-1.6,0.15-3.22,0.15-4.87c0-1.64-0.05-3.26-0.15-4.84c-0.1-1.58-0.37-2.99-0.8-4.22c-0.43-1.23-1.1-2.23-2-2.99
			c-0.9-0.76-2.16-1.14-3.76-1.14s-2.86,0.38-3.76,1.14c-0.9,0.76-1.57,1.76-2,2.99c-0.43,1.23-0.7,2.64-0.8,4.22
			c-0.1,1.58-0.15,3.19-0.15,4.84c0,1.64,0.05,3.27,0.15,4.87c0.1,1.6,0.37,3.02,0.8,4.25c0.43,1.23,1.1,2.23,2,2.99
			c0.9,0.76,2.16,1.14,3.76,1.14S108.13,90.38,109.04,89.61z"/>
	</g>
</g>
</svg>
