<svg xmlns="http://www.w3.org/2000/svg" viewBox="0 0 78.34 56.33"><defs><style>.cls-1{fill:#b3b3b3;}</style></defs><title>iso_white</title><g id="Layer_2" data-name="Layer 2"><g id="Layer_1-2" data-name="Layer 1"><path class="cls-1" d="M28.81,2.81A30,30,0,0,0,15.39,0,30.8,30.8,0,0,0,4.75,1.76,21.86,21.86,0,0,0,0,4.3a50.82,50.82,0,0,1,2.71,5.88A19.91,19.91,0,0,1,15.61,5.8a20.14,20.14,0,0,1,10,2.43,19.69,19.69,0,0,1,7.23,7.32l5.35-4.29A23.81,23.81,0,0,0,28.81,2.81Z"/><path class="cls-1" d="M19.68,27.18V32.9H35a18.35,18.35,0,0,1-5.95,12.74,19.17,19.17,0,0,1-13.44,4.9,24.14,24.14,0,0,1-3.12-.27,36.9,36.9,0,0,1,1.95,6c.2,0,.38,0,.58,0q12.43,0,19.62-7.34t7.19-20v-1.8Z"/><polygon class="cls-1" points="74.99 9.42 62.9 41.07 47.13 0 40.19 0 62.9 55.78 78.34 17.65 74.99 9.42"/></g></g></svg>