<svg xmlns="http://www.w3.org/2000/svg" viewBox="0 0 47.56 54.34"><defs><style>.cls-1{fill:#fff;}</style></defs><title>isotipo_valor_white</title><g id="Layer_2" data-name="Layer 2"><g id="CONTENIDO"><path class="cls-1" d="M35.26,35.49V35c2.46.14,3.38-.59,2.38-2.38l1,2.38v.52Z"/><polygon class="cls-1" points="44.41 34.97 32.88 8.41 32.85 8.41 30.19 15.26 32.86 21.48 34.24 24.66 34.23 24.66 38.66 34.97 35.26 34.97 35.26 35.49 47.55 35.49 47.55 34.97 44.41 34.97"/><polygon class="cls-1" points="30.7 8.21 19.57 36.02 11.33 19.14 15.9 19.14 15.9 18.47 0 18.47 0 19.14 4 19.14 15.95 46.32 16.62 44.63 31.13 8.21 30.7 8.21"/><path class="cls-1" d="M15.92,18.47l0,.67S11,18.72,12.7,22l-1.52-2.83v-.65Z"/><rect class="cls-1" x="-5.42" y="26.56" width="58" height="1.22" transform="translate(-10.39 39.02) rotate(-68.28)"/></g></g></svg>