<svg xmlns="http://www.w3.org/2000/svg" viewBox="0 0 24.49 19.9"><defs><style>.cls-1{fill:#fff;}</style></defs><title>twitter</title><g id="Layer_2" data-name="Layer 2"><g id="Contenido"><path class="cls-1" d="M24.49,2.36a10.49,10.49,0,0,1-2.89.79A5,5,0,0,0,23.81.37a10.1,10.1,0,0,1-3.19,1.22A5,5,0,0,0,11.94,5a5.41,5.41,0,0,0,.11,1.15A14.25,14.25,0,0,1,1.71.92,5,5,0,0,0,1,3.45,5,5,0,0,0,3.25,7.63,5,5,0,0,1,1,7v0A5.05,5.05,0,0,0,5,12a5.06,5.06,0,0,1-1.31.16,4.87,4.87,0,0,1-.95-.08,5.06,5.06,0,0,0,4.69,3.49A10.08,10.08,0,0,1,1.2,17.71,9.46,9.46,0,0,1,0,17.65,14.16,14.16,0,0,0,7.7,19.9,14.19,14.19,0,0,0,22,5.61c0-.22,0-.43,0-.65A9.89,9.89,0,0,0,24.49,2.36Z"/></g></g></svg>