<svg xmlns="http://www.w3.org/2000/svg" viewBox="0 0 526.22 175.84"><defs><style>.cls-1{font-size:74.39px;font-family:Didot-Bold, Didot;font-weight:700;letter-spacing:-0.17em;}.cls-1,.cls-5{fill:#a00d0d;}.cls-2{letter-spacing:-0.01em;}.cls-3{font-size:24px;fill:#7d7d7d;font-family:ShreeDev0714, "Shree Devanagari 714";letter-spacing:-0.01em;}.cls-4{fill:#a3a3a3;}</style></defs><title>v_grupo_inmobiliario</title><g id="Layer_2" data-name="Layer 2"><g id="guias"><text class="cls-1" transform="translate(181.65 112.92)">V<tspan class="cls-2" x="41.44" y="0">alor</tspan></text><text class="cls-3" transform="translate(179.33 49.96)">Grupo Inmobiliario y Constructor</text><path class="cls-4" d="M114.11,114.84v-1.66c8,.43,10.93-1.92,7.71-7.71l3.3,7.71v1.66Z"/><polygon class="cls-4" points="143.71 113.18 106.41 27.21 106.32 27.21 97.7 49.38 106.35 69.51 110.79 79.79 110.77 79.79 125.12 113.18 114.11 113.18 114.11 114.84 153.9 114.84 153.9 113.18 143.71 113.18"/><polygon class="cls-5" points="99.35 26.58 63.32 116.57 36.68 61.93 51.47 61.93 51.47 59.78 0 59.78 0 61.93 12.95 61.93 51.63 149.91 53.8 144.45 100.73 26.58 99.35 26.58"/><path class="cls-5" d="M51.54,59.78l-.07,2.15S35.66,60.57,41.11,71l-4.94-9.16V59.78Z"/><rect class="cls-5" x="-17.55" y="85.96" width="187.69" height="3.93" transform="translate(-33.62 126.26) rotate(-68.28)"/></g></g></svg>