<svg xmlns="http://www.w3.org/2000/svg" viewBox="0 0 1099.89 282.79"><defs><style>.cls-1{fill:#a00d0d;}.cls-2{fill:#7d7d7d;}</style></defs><title>v_grupo_inmobiliario</title><g id="Layer_2" data-name="Layer 2"><g id="Capa_1" data-name="Capa 1"><path class="cls-1" d="M86,92.61v3.6H61.25L114.52,235.7l54.3-139.49H145.66v-3.6h49.16v3.6H172.68L100.11,282.79H92.65l-71-186.58H0v-3.6Z"/><path class="cls-1" d="M267.77,278.16a85.06,85.06,0,0,1-12.74,1q-13.12,0-19.43-4.63a19.88,19.88,0,0,1-7.85-12.87h-.51q-4.12,10.31-11.32,13.9t-20.85,3.6a64,64,0,0,1-12.61-1.29,44,44,0,0,1-11.84-4.11,23.47,23.47,0,0,1-8.75-7.85,21.56,21.56,0,0,1-3.34-12.23,24.17,24.17,0,0,1,3-12.48,27.93,27.93,0,0,1,7.72-8.49A42.78,42.78,0,0,1,180,227.08c4-1.46,8.19-2.87,12.48-4.25q10.55-3.09,17.11-5.28a42.09,42.09,0,0,0,10.17-4.63,13.84,13.84,0,0,0,5-5.53,19.34,19.34,0,0,0,1.41-8v-15.7a24.35,24.35,0,0,0-3.35-12.61q-3.35-5.65-12.61-5.66a19.21,19.21,0,0,0-10.29,2.7q-4.38,2.7-4.37,9.91a23.6,23.6,0,0,0,.25,2.7c.17,1.29.35,2.71.52,4.25s.34,3,.51,4.37a28.28,28.28,0,0,1,.26,2.84,9.22,9.22,0,0,1-1.8,6,10.91,10.91,0,0,1-4.25,3.22,15,15,0,0,1-5.15,1.16c-1.8.09-3.3.13-4.5.13a36.78,36.78,0,0,1-5.27-.39,11.14,11.14,0,0,1-4.77-1.8,11.28,11.28,0,0,1-3.47-4,14.37,14.37,0,0,1-1.42-7,20.23,20.23,0,0,1,3.74-12,29.87,29.87,0,0,1,9.9-8.75,52.46,52.46,0,0,1,14-5.27,72.87,72.87,0,0,1,16.34-1.8,104.32,104.32,0,0,1,18.4,1.54A40,40,0,0,1,243.84,169a29.61,29.61,0,0,1,10,11.2q3.72,7.08,3.73,17.88V262a24.31,24.31,0,0,0,1.41,8.62q1.41,3.74,7.08,3.73a10.75,10.75,0,0,0,5.53-1.29,17.71,17.71,0,0,0,4.25-3.6l2.31,2.32A14.53,14.53,0,0,1,267.77,278.16ZM225.7,212a7.66,7.66,0,0,1-1.94,3,19.93,19.93,0,0,1-5,3.22c-3.27,1.54-6.53,3.05-9.78,4.5a35.51,35.51,0,0,0-8.75,5.53,26.37,26.37,0,0,0-6.31,8.24q-2.44,4.89-2.44,12.61,0,3.09.38,7.21a26.26,26.26,0,0,0,2.06,8,17.14,17.14,0,0,0,5,6.57q3.34,2.7,9.26,2.7a15.19,15.19,0,0,0,6.57-1.54,16.77,16.77,0,0,0,5.79-4.77,24.54,24.54,0,0,0,4.12-8.49A45.73,45.73,0,0,0,226.21,246V212Z"/><path class="cls-1" d="M336.61,90.29v182h17.25v3.61H288v-3.61h17.25V93.9H288V90.29Z"/><path class="cls-1" d="M453.58,166.6a65.69,65.69,0,0,1,19.94,12.74A57.43,57.43,0,0,1,486.78,198a54.76,54.76,0,0,1,4.76,22.51,55.36,55.36,0,0,1-4.76,22.78A57.43,57.43,0,0,1,473.52,262a63.69,63.69,0,0,1-19.94,12.61,68.92,68.92,0,0,1-49.67,0A63.74,63.74,0,0,1,384,262a57.4,57.4,0,0,1-13.25-18.66A55.2,55.2,0,0,1,366,220.51,54.6,54.6,0,0,1,370.71,198,57.4,57.4,0,0,1,384,179.34a65.74,65.74,0,0,1,20-12.74,67.17,67.17,0,0,1,49.67,0Zm-9.14,104.48a28.06,28.06,0,0,0,8.37-12.48,66.71,66.71,0,0,0,3.34-17.75q.64-10,.64-20.34t-.64-20.2a66.56,66.56,0,0,0-3.34-17.63,28.17,28.17,0,0,0-8.37-12.48q-5.65-4.75-15.7-4.76t-15.69,4.76a28,28,0,0,0-8.37,12.48,66.55,66.55,0,0,0-3.35,17.63q-.63,9.91-.64,20.2t.64,20.34a66.7,66.7,0,0,0,3.35,17.75,27.89,27.89,0,0,0,8.37,12.48q5.65,4.77,15.69,4.77T444.44,271.08Z"/><path class="cls-1" d="M555.88,165.44v21.62h.51a53.07,53.07,0,0,1,12.48-16.86q7.86-7.06,20.72-7.08,10.8,0,17.5,5.79T613.78,185q0,7.73-3.73,12.1t-12,4.37A23.69,23.69,0,0,1,587.27,199q-4.89-2.43-4.89-9.13a24.31,24.31,0,0,1,.26-2.7c.17-1.29.39-2.66.65-4.12s.47-2.79.64-4,.26-1.89.26-2.06a11.91,11.91,0,0,0-.78-3.22,5.36,5.36,0,0,0-1.67-2.05,5.6,5.6,0,0,0-3.47-.9c-1.72,0-3.86.81-6.44,2.44a26.58,26.58,0,0,0-7.2,7.08,46.92,46.92,0,0,0-5.79,11.19,42,42,0,0,0-2.45,14.8v65.88h20.33v3.61H508.27v-3.61H525V169H508.27v-3.6Z"/><path class="cls-2" d="M10.49,50.29A30,30,0,0,1,2.74,29.5,30.38,30.38,0,0,1,10.49,8.6Q18.35,0,29.31,0A23.21,23.21,0,0,1,44,4.92a19.2,19.2,0,0,1,7.66,12.29H47.84A15.11,15.11,0,0,0,41.5,7.47,19.79,19.79,0,0,0,29.31,3.59a20.57,20.57,0,0,0-16.07,7.57A26.85,26.85,0,0,0,6.53,29.5a26.87,26.87,0,0,0,6.71,18.34A20.6,20.6,0,0,0,29.31,55.4,18,18,0,0,0,43,49.26a20.79,20.79,0,0,0,5.67-14.75V33.09H29.31V29.5H51.62v28H48.69V46a18.18,18.18,0,0,1-7.47,9.36A20.76,20.76,0,0,1,29.31,58.9Q18.35,58.9,10.49,50.29Z"/><path class="cls-2" d="M61,57.48V17.21h3.78v9.07a17.12,17.12,0,0,1,4.72-7.09,10.59,10.59,0,0,1,6.81-2.65h2.17v4.35a1.6,1.6,0,0,1-.66-.18.89.89,0,0,0-.38-.19,10.86,10.86,0,0,0-8,3.78,18.1,18.1,0,0,0-4.63,9.54V57.48Z"/><path class="cls-2" d="M88.14,54.83A11.56,11.56,0,0,1,84.08,46V17.21h3.78V46a9,9,0,0,0,2.93,6.71,10,10,0,0,0,7.09,2.74,12.25,12.25,0,0,0,8.79-3.78,17.16,17.16,0,0,0,4.92-9.55V17.21h3.78V57.48h-3.78V50.39a13.5,13.5,0,0,1-5.49,6,15.93,15.93,0,0,1-8.22,2.17A14,14,0,0,1,88.14,54.83Z"/><path class="cls-2" d="M127,72.61V17.21h3.79v8.32a15,15,0,0,1,5.38-7.1,14.24,14.24,0,0,1,8.33-2.64,15.91,15.91,0,0,1,13,5.86q4.9,6,4.91,15.69,0,9.46-4.72,15.13a16.14,16.14,0,0,1-21,3.12,15.54,15.54,0,0,1-5.86-6.71V72.61Zm27.8-22.22q3.78-5.1,3.78-13.43t-3.78-13.23a11.71,11.71,0,0,0-9.93-5q-5.87,0-9.93,5.39A20.17,20.17,0,0,0,130.8,37,20.72,20.72,0,0,0,135,50q4.06,5.39,9.93,5.39A11.71,11.71,0,0,0,154.81,50.39Z"/><path class="cls-2" d="M174.21,52.47Q169,46.8,169,37.34q0-9.74,5.2-15.69t13.7-5.86a17.43,17.43,0,0,1,13.71,5.86q5.12,6,5.11,15.69,0,9.46-5.11,15.13t-13.71,5.67Q179.32,58.14,174.21,52.47Zm24.67-2.27q4.06-4.81,4.06-12.86,0-8.31-4.06-13.23a13.55,13.55,0,0,0-11-5,13.37,13.37,0,0,0-11,5q-4.17,4.92-4.16,13.23,0,8,4.16,12.86a13.6,13.6,0,0,0,11,4.82A13.79,13.79,0,0,0,198.88,50.2Z"/><path class="cls-2" d="M245.61,57.48V1.42h3.79V57.48Z"/><path class="cls-2" d="M261,57.48V17.21h3.78V24a13,13,0,0,1,5.2-5.67A15.06,15.06,0,0,1,287.89,20a12.53,12.53,0,0,1,4.25,9.46v28h-3.78v-28a9.36,9.36,0,0,0-3.12-7.09,10.5,10.5,0,0,0-7.47-2.93,12.45,12.45,0,0,0-8.41,3.21,14,14,0,0,0-4.54,8.22V57.48Z"/><path class="cls-2" d="M303.13,57.48V17.21h3.78V24a13.71,13.71,0,0,1,4.82-5.67,11.51,11.51,0,0,1,6.71-2.17,12.62,12.62,0,0,1,7.47,2.26,10.6,10.6,0,0,1,4.26,6,13.72,13.72,0,0,1,5.38-6,15.08,15.08,0,0,1,8-2.26,13,13,0,0,1,9.26,3.68,12,12,0,0,1,3.79,8.89V57.48h-3.79V28.74a9.44,9.44,0,0,0-2.74-6.81,8.56,8.56,0,0,0-6.52-2.83,11.6,11.6,0,0,0-7.94,3.12,13.45,13.45,0,0,0-4.35,7.94V57.48h-3.78V28.74A9.79,9.79,0,0,0,325,21.93a8,8,0,0,0-6.14-2.83,10.71,10.71,0,0,0-7.66,3.31,16.08,16.08,0,0,0-4.25,8.5V57.48Z"/><path class="cls-2" d="M370.36,52.47q-5.21-5.67-5.2-15.13,0-9.74,5.2-15.69t13.71-5.86a17.44,17.44,0,0,1,13.71,5.86q5.1,6,5.1,15.69,0,9.46-5.1,15.13t-13.71,5.67Q375.46,58.14,370.36,52.47ZM395,50.2q4.07-4.81,4.07-12.86,0-8.31-4.07-13.23a13.53,13.53,0,0,0-11-5,13.39,13.39,0,0,0-11,5q-4.16,4.92-4.16,13.23,0,8,4.16,12.86a13.62,13.62,0,0,0,11,4.82A13.77,13.77,0,0,0,395,50.2Z"/><path class="cls-2" d="M421.52,56.35a15.84,15.84,0,0,1-5.77-6.72v7.85H412V1.42h3.78V26.28a14.78,14.78,0,0,1,5.49-7.09,14.94,14.94,0,0,1,8.6-2.65,15.56,15.56,0,0,1,12.67,5.77q4.82,5.78,4.82,15.41t-4.82,15.41a15.53,15.53,0,0,1-12.67,5.77A14.86,14.86,0,0,1,421.52,56.35Zm18.53-5.58q3.78-4.92,3.78-13.05t-3.78-13a12.4,12.4,0,0,0-10.21-4.91q-5.86,0-9.93,5.29a19.67,19.67,0,0,0-4.16,12.67,19.65,19.65,0,0,0,4.16,12.67q4.06,5.3,9.93,5.29A12.37,12.37,0,0,0,440.05,50.77Z"/><path class="cls-2" d="M456.51,1.42h3.79V7.19h-3.79Zm0,56.06V17.21h3.79V57.48Z"/><path class="cls-2" d="M471.94,57.48V1.42h3.78V57.48Z"/><path class="cls-2" d="M487.37,1.42h3.78V7.19h-3.78Zm0,56.06V17.21h3.78V57.48Z"/><path class="cls-2" d="M503.74,55.59a10.12,10.12,0,0,1-4.25-8.13q0-4.55,4.15-7.94a18.08,18.08,0,0,1,10.21-4,42.38,42.38,0,0,0,9.74-1.89c2.59-.89,3.88-1.92,3.88-3.12v-3.6c0-2.08-1.14-3.84-3.4-5.29a16.12,16.12,0,0,0-16-.1q-3.22,2.19-3.22,5.11v2.08h-3.59V26.28q0-4.07,4.26-6.9a18.58,18.58,0,0,1,10.39-2.84,20,20,0,0,1,10.69,2.75q4.44,2.75,4.44,6.61V50.29a7.67,7.67,0,0,0,1,4.07,3,3,0,0,0,2.55,1.7,3.63,3.63,0,0,0,.85-.09,1.14,1.14,0,0,0,.57-.29v1.8a8.5,8.5,0,0,1-3.59.66,4.83,4.83,0,0,1-3.78-1.89,7,7,0,0,1-1.51-4.54,9.58,9.58,0,0,1-4.83,5.2,17.59,17.59,0,0,1-8.51,2A15.76,15.76,0,0,1,503.74,55.59Zm19-2.84a13.2,13.2,0,0,0,4.73-8.22V35.26a11.35,11.35,0,0,1-4.82,1.89,65.14,65.14,0,0,1-8.8,1.23,12.69,12.69,0,0,0-7.46,3,7.69,7.69,0,0,0-3,6.05,7.44,7.44,0,0,0,3.12,6,11.05,11.05,0,0,0,7.37,2.55A13.28,13.28,0,0,0,522.74,52.75Z"/><path class="cls-2" d="M542.89,57.48V17.21h3.79v9.07a17.12,17.12,0,0,1,4.72-7.09,10.57,10.57,0,0,1,6.81-2.65h2.17v4.35a1.6,1.6,0,0,1-.66-.18,1,1,0,0,0-.38-.19,10.86,10.86,0,0,0-8,3.78,18.1,18.1,0,0,0-4.63,9.54V57.48Z"/><path class="cls-2" d="M566.54,1.42h3.79V7.19h-3.79Zm0,56.06V17.21h3.79V57.48Z"/><path class="cls-2" d="M584.62,52.47q-5.21-5.67-5.2-15.13,0-9.74,5.2-15.69t13.71-5.86A17.41,17.41,0,0,1,612,21.65q5.12,6,5.11,15.69,0,9.46-5.11,15.13t-13.7,5.67Q589.72,58.14,584.62,52.47Zm24.67-2.27q4.07-4.81,4.07-12.86,0-8.31-4.07-13.23a13.55,13.55,0,0,0-11-5,13.38,13.38,0,0,0-11,5Q583.19,29,583.2,37.34q0,8,4.16,12.86a13.61,13.61,0,0,0,11,4.82A13.78,13.78,0,0,0,609.29,50.2Z"/><path class="cls-2" d="M654.32,69.77h2.94c1.44,0,3-1.17,4.72-3.5a37.37,37.37,0,0,0,4.63-9.17L651.2,17.21h3.5l13.71,35.26L682,17.21h3.69l-17.3,44.62a23.25,23.25,0,0,1-4.63,7.85q-2.94,2.92-5.86,2.93h-3.6Z"/><path class="cls-2" d="M726.58,50.29A30.39,30.39,0,0,1,719,29.5a30.79,30.79,0,0,1,7.56-20.9Q734.05,0,744.73,0a23.4,23.4,0,0,1,14.85,4.73,19.54,19.54,0,0,1,7.47,12.48h-3.79a15.05,15.05,0,0,0-6.33-9.74,19.81,19.81,0,0,0-12.2-3.88q-9.08,0-15.5,7.57A27.57,27.57,0,0,0,722.8,29.5a27.59,27.59,0,0,0,6.43,18.34q6.42,7.56,15.5,7.56a18.28,18.28,0,0,0,12.77-4.54,17.54,17.54,0,0,0,5.76-12.1h3.79q-.76,9.18-6.9,14.65T744.73,58.9Q734.05,58.9,726.58,50.29Z"/><path class="cls-2" d="M777.08,52.47q-5.19-5.67-5.2-15.13,0-9.74,5.2-15.69t13.71-5.86a17.44,17.44,0,0,1,13.71,5.86q5.1,6,5.11,15.69,0,9.46-5.11,15.13t-13.71,5.67Q782.2,58.14,777.08,52.47Zm24.68-2.27q4.07-4.81,4.06-12.86,0-8.31-4.06-13.23a13.57,13.57,0,0,0-11-5,13.36,13.36,0,0,0-11,5q-4.17,4.92-4.16,13.23,0,8,4.16,12.86a13.59,13.59,0,0,0,11,4.82A13.8,13.8,0,0,0,801.76,50.2Z"/><path class="cls-2" d="M818.7,57.48V17.21h3.78V24a12.94,12.94,0,0,1,5.2-5.67A15.06,15.06,0,0,1,845.55,20a12.53,12.53,0,0,1,4.25,9.46v28H846v-28a9.36,9.36,0,0,0-3.12-7.09,10.5,10.5,0,0,0-7.47-2.93A12.43,12.43,0,0,0,827,22.69a13.92,13.92,0,0,0-4.54,8.22V57.48Z"/><path class="cls-2" d="M862,54.74a11.56,11.56,0,0,1-4.54-9.17H861a8.88,8.88,0,0,0,3.5,7,12.94,12.94,0,0,0,8.41,2.83,15.24,15.24,0,0,0,9.18-2.55,8.37,8.37,0,0,0,3.4-6.9q0-3.21-3.59-5.49a22.82,22.82,0,0,0-9.65-2.74q-6.44-.57-10.21-3.59a9.17,9.17,0,0,1-3.87-7.47A8.94,8.94,0,0,1,862,18.91q3.88-2.75,10.87-2.74,6.72,0,10.69,2.93a9.19,9.19,0,0,1,4.06,7.84H884a8.66,8.66,0,0,0-3.59-5.76,12.78,12.78,0,0,0-7.57-2.08,14.11,14.11,0,0,0-8.13,2.08,6.37,6.37,0,0,0-3,5.48q0,3.21,3.68,5.48a22.77,22.77,0,0,0,9.65,2.75,18.1,18.1,0,0,1,10.21,3.78,10.5,10.5,0,0,1-.66,16.64q-4.35,3.21-11.73,3.21A16.21,16.21,0,0,1,862,54.74Z"/><path class="cls-2" d="M899.94,56.35a8.82,8.82,0,0,1-2.18-6.06V20.14H892V17.21h5.76V5.77h3.79V17.21H907v2.93h-5.48V50.29a6.74,6.74,0,0,0,1.22,4.07,3.34,3.34,0,0,0,2.84,1.7,5.75,5.75,0,0,0,2.93-.66v2.74a10.11,10.11,0,0,1-3.21.76A7,7,0,0,1,899.94,56.35Z"/><path class="cls-2" d="M914.8,57.48V17.21h3.78v9.07a17.14,17.14,0,0,1,4.73-7.09,10.57,10.57,0,0,1,6.8-2.65h2.18v4.35a1.64,1.64,0,0,1-.67-.18.94.94,0,0,0-.37-.19,10.86,10.86,0,0,0-8,3.78,18.1,18.1,0,0,0-4.63,9.54V57.48Z"/><path class="cls-2" d="M941.94,54.83A11.56,11.56,0,0,1,937.88,46V17.21h3.78V46a9,9,0,0,0,2.93,6.71,10,10,0,0,0,7.09,2.74,12.25,12.25,0,0,0,8.79-3.78,17.16,17.16,0,0,0,4.92-9.55V17.21h3.78V57.48h-3.78V50.39a13.47,13.47,0,0,1-5.48,6,16,16,0,0,1-8.23,2.17A14,14,0,0,1,941.94,54.83Z"/><path class="cls-2" d="M983.65,52.85a22.87,22.87,0,0,1-5.58-15.51,22.26,22.26,0,0,1,5.58-15.22,17.39,17.39,0,0,1,13.52-6.33,16.84,16.84,0,0,1,11.16,3.87,12.11,12.11,0,0,1,4.63,9.46h-3.78a8.52,8.52,0,0,0-3.5-6.81,13.08,13.08,0,0,0-8.51-2.83,14,14,0,0,0-10.87,5.19,19.09,19.09,0,0,0-4.44,12.67,19.69,19.69,0,0,0,4.44,12.95,13.75,13.75,0,0,0,10.87,5.39,12.28,12.28,0,0,0,8.32-2.93,8.85,8.85,0,0,0,3.5-7h4a12.19,12.19,0,0,1-4.63,9.55,16.61,16.61,0,0,1-11.16,4A17.3,17.3,0,0,1,983.65,52.85Z"/><path class="cls-2" d="M1023.28,56.35a8.82,8.82,0,0,1-2.17-6.06V20.14h-5.77V17.21h5.77V5.77h3.78V17.21h5.48v2.93h-5.48V50.29a6.75,6.75,0,0,0,1.23,4.07,3.31,3.31,0,0,0,2.83,1.7,5.75,5.75,0,0,0,2.93-.66v2.74a10.06,10.06,0,0,1-3.21.76A7,7,0,0,1,1023.28,56.35Z"/><path class="cls-2" d="M1040.78,52.47q-5.19-5.67-5.19-15.13,0-9.74,5.19-15.69t13.71-5.86a17.43,17.43,0,0,1,13.71,5.86q5.1,6,5.11,15.69,0,9.46-5.11,15.13t-13.71,5.67Q1045.9,58.14,1040.78,52.47Zm24.68-2.27q4.07-4.81,4.06-12.86,0-8.31-4.06-13.23a13.55,13.55,0,0,0-11-5,13.37,13.37,0,0,0-11,5q-4.17,4.92-4.16,13.23,0,8,4.16,12.86a13.6,13.6,0,0,0,11,4.82A13.79,13.79,0,0,0,1065.46,50.2Z"/><path class="cls-2" d="M1082.4,57.48V17.21h3.78v9.07a17.14,17.14,0,0,1,4.73-7.09,10.57,10.57,0,0,1,6.8-2.65h2.18v4.35a1.56,1.56,0,0,1-.66-.18,1,1,0,0,0-.38-.19,10.88,10.88,0,0,0-8,3.78,18.18,18.18,0,0,0-4.63,9.54V57.48Z"/></g></g></svg>