<svg xmlns="http://www.w3.org/2000/svg" viewBox="0 0 428.38 175.84"><defs><style>.cls-1{font-size:74.39px;font-family:Didot-HTF-B06-Bold, Didot;font-weight:700;}.cls-1,.cls-11{fill:#a00d0d;}.cls-2{letter-spacing:-0.01em;}.cls-3{letter-spacing:-0.01em;}.cls-4{letter-spacing:-0.01em;}.cls-5{font-size:24px;fill:#7d7d7d;font-family:ShreeDev0714, Shree Devanagari 714;letter-spacing:-0.01em;}.cls-6{letter-spacing:-0.01em;}.cls-7{letter-spacing:-0.01em;}.cls-8{letter-spacing:-0.01em;}.cls-9{letter-spacing:0em;}.cls-10{fill:#a3a3a3;}</style></defs><title>v_promotora_palval0</title><g id="Capa_2" data-name="Capa 2"><g id="Capa_1-2" data-name="Capa 1"><text class="cls-1" transform="translate(171.65 114.92)"><tspan class="cls-2">P</tspan><tspan class="cls-3" x="44.93" y="0">a</tspan><tspan class="cls-2" x="79.97" y="0">l</tspan><tspan class="cls-4" x="101.25" y="0">v</tspan><tspan class="cls-2" x="136.44" y="0">al </tspan><tspan x="204.51" y="0">V</tspan></text><text class="cls-5" transform="translate(179.33 49.96)">P<tspan class="cls-6" x="14.52" y="0">romot</tspan><tspan class="cls-7" x="75.88" y="0">o</tspan><tspan class="cls-6" x="89.83" y="0">r</tspan><tspan class="cls-8" x="97.32" y="0">e</tspan><tspan class="cls-9" x="110.53" y="0">s</tspan></text><path class="cls-10" d="M114.11,114.84v-1.66c8,.43,10.93-1.92,7.71-7.71l3.3,7.71v1.66Z"/><polygon class="cls-10" points="143.71 113.18 106.41 27.21 106.32 27.21 97.7 49.38 106.35 69.51 110.79 79.79 110.77 79.79 125.12 113.18 114.11 113.18 114.11 114.84 153.9 114.84 153.9 113.18 143.71 113.18"/><polygon class="cls-11" points="99.35 26.58 63.32 116.57 36.68 61.93 51.47 61.93 51.47 59.78 0 59.78 0 61.93 12.95 61.93 51.63 149.91 53.8 144.45 100.73 26.58 99.35 26.58"/><path class="cls-11" d="M51.54,59.78l-.07,2.16S35.66,60.57,41.11,71l-4.94-9.16V59.78Z"/><rect class="cls-11" x="-17.55" y="85.96" width="187.69" height="3.93" transform="translate(-33.62 126.27) rotate(-68.29)"/></g></g></svg>