<svg xmlns="http://www.w3.org/2000/svg" viewBox="0 0 1109.45 341.05"><defs><style>.cls-1{fill:#a00d0d;}.cls-2{fill:#7d7d7d;}</style></defs><title>v_promotora_palval</title><g id="Layer_2" data-name="Layer 2"><g id="Capa_1" data-name="Capa 1"><path class="cls-1" d="M101.12,328.76V333H2.5v-4.19H30.08v-205H2.5v-4.2H30.08q15.29,0,30.57-.45t30.58-.45a204.19,204.19,0,0,1,29.07,2.25,102.37,102.37,0,0,1,28.78,8.4,61,61,0,0,1,22,17.08q8.83,10.95,8.84,28.33a45.07,45.07,0,0,1-5.69,22q-5.7,10.34-17.39,18T127.5,226.84q-17.7,4.5-41.67,4.5H73.54v97.42ZM82.84,227.14q25.47,0,36.86-11.54t11.39-39.11q0-26.09-9.89-39.87t-36-13.79q-3.3,0-6.29.3t-5.4.6V227.14Z"/><path class="cls-1" d="M323.38,335.65a99.71,99.71,0,0,1-14.84,1.2q-15.29,0-22.63-5.4a23.09,23.09,0,0,1-9.14-15h-.6q-4.8,12-13.19,16.18t-24.28,4.2a74.75,74.75,0,0,1-14.69-1.5,51.26,51.26,0,0,1-13.79-4.8A27.19,27.19,0,0,1,200,321.41a25.07,25.07,0,0,1-3.89-14.24q0-8.69,3.44-14.53a32.57,32.57,0,0,1,9-9.89,50,50,0,0,1,12.59-6.6q7-2.55,14.53-4.95,12.28-3.58,19.94-6.14a49,49,0,0,0,11.84-5.4,16,16,0,0,0,5.84-6.44,22.4,22.4,0,0,0,1.65-9.29V225.64a28.28,28.28,0,0,0-3.9-14.68q-3.9-6.6-14.68-6.6a22.31,22.31,0,0,0-12,3.15q-5.1,3.15-5.1,11.54a28,28,0,0,0,.3,3.15c.2,1.5.4,3.14.6,4.94s.4,3.5.6,5.1a31.94,31.94,0,0,1,.3,3.3,10.77,10.77,0,0,1-2.1,7,12.8,12.8,0,0,1-4.95,3.75,17.19,17.19,0,0,1-6,1.34c-2.1.11-3.85.16-5.25.16a43.37,43.37,0,0,1-6.14-.46,12.72,12.72,0,0,1-5.55-2.09,13.13,13.13,0,0,1-4-4.65,16.79,16.79,0,0,1-1.65-8.09,23.54,23.54,0,0,1,4.35-13.94,34.56,34.56,0,0,1,11.54-10.19,60.73,60.73,0,0,1,16.33-6.15,85.34,85.34,0,0,1,19-2.1,121.51,121.51,0,0,1,21.43,1.8,46.39,46.39,0,0,1,17.38,6.6,34.36,34.36,0,0,1,11.69,13q4.35,8.25,4.35,20.83v74.34a28.22,28.22,0,0,0,1.65,10q1.63,4.35,8.24,4.34a12.45,12.45,0,0,0,6.44-1.5,20.6,20.6,0,0,0,4.95-4.19l2.7,2.7A17,17,0,0,1,323.38,335.65Zm-49-77a8.89,8.89,0,0,1-2.25,3.44,23.72,23.72,0,0,1-5.84,3.75q-5.7,2.7-11.39,5.25a40.8,40.8,0,0,0-10.19,6.44,30.76,30.76,0,0,0-7.35,9.59q-2.85,5.7-2.85,14.69,0,3.6.45,8.39a30.26,30.26,0,0,0,2.4,9.29,19.87,19.87,0,0,0,5.85,7.65q3.88,3.13,10.79,3.14a17.62,17.62,0,0,0,7.64-1.79,19.48,19.48,0,0,0,6.75-5.55,28.69,28.69,0,0,0,4.79-9.89,53.3,53.3,0,0,0,1.8-14.84V258.62Z"/><path class="cls-1" d="M403.56,116.84V328.76h20.08V333H346.91v-4.19H367V121H346.91v-4.19Z"/><path class="cls-1" d="M501.87,204.36v4.2H480.29l36.87,83,32.67-83H526.75v-4.2h42v4.2H554.93L501.87,341.05h-2.4L439.82,208.56H423.64v-4.2Z"/><path class="cls-1" d="M703.15,335.65a99.71,99.71,0,0,1-14.84,1.2q-15.28,0-22.63-5.4a23.09,23.09,0,0,1-9.14-15h-.6q-4.8,12-13.19,16.18t-24.28,4.2a74.75,74.75,0,0,1-14.69-1.5,51.07,51.07,0,0,1-13.78-4.8,27.15,27.15,0,0,1-10.2-9.14,25.07,25.07,0,0,1-3.89-14.24q0-8.69,3.44-14.53a32.57,32.57,0,0,1,9-9.89,50,50,0,0,1,12.59-6.6q7-2.55,14.53-4.95,12.3-3.58,19.94-6.14a49,49,0,0,0,11.84-5.4,16,16,0,0,0,5.84-6.44,22.4,22.4,0,0,0,1.65-9.29V225.64a28.28,28.28,0,0,0-3.9-14.68q-3.9-6.6-14.68-6.6a22.31,22.31,0,0,0-12,3.15q-5.1,3.15-5.1,11.54a28,28,0,0,0,.3,3.15c.2,1.5.4,3.14.6,4.94s.4,3.5.6,5.1a31.94,31.94,0,0,1,.3,3.3,10.77,10.77,0,0,1-2.1,7,12.8,12.8,0,0,1-4.95,3.75,17.19,17.19,0,0,1-6,1.34c-2.1.11-3.85.16-5.25.16a43.37,43.37,0,0,1-6.14-.46,12.72,12.72,0,0,1-5.55-2.09,13.13,13.13,0,0,1-4-4.65,16.79,16.79,0,0,1-1.65-8.09,23.54,23.54,0,0,1,4.35-13.94,34.56,34.56,0,0,1,11.54-10.19,60.73,60.73,0,0,1,16.33-6.15,85.4,85.4,0,0,1,19-2.1,121.51,121.51,0,0,1,21.43,1.8,46.39,46.39,0,0,1,17.38,6.6,34.36,34.36,0,0,1,11.69,13q4.35,8.25,4.35,20.83v74.34a28.22,28.22,0,0,0,1.65,10q1.63,4.35,8.24,4.34a12.43,12.43,0,0,0,6.44-1.5,20.6,20.6,0,0,0,5-4.19l2.7,2.7A17,17,0,0,1,703.15,335.65Zm-49-77a8.89,8.89,0,0,1-2.25,3.44,23.72,23.72,0,0,1-5.84,3.75q-5.7,2.7-11.39,5.25a40.8,40.8,0,0,0-10.19,6.44,30.76,30.76,0,0,0-7.35,9.59q-2.85,5.7-2.85,14.69,0,3.6.45,8.39a30.26,30.26,0,0,0,2.4,9.29,19.87,19.87,0,0,0,5.85,7.65q3.88,3.13,10.79,3.14a17.62,17.62,0,0,0,7.64-1.79,19.48,19.48,0,0,0,6.75-5.55,28.69,28.69,0,0,0,4.79-9.89,53.3,53.3,0,0,0,1.8-14.84V258.62Z"/><path class="cls-1" d="M783.33,116.84V328.76h20.08V333H726.68v-4.19h20.08V121H726.68v-4.19Z"/><path class="cls-1" d="M982.66,119.53v4.2H953.88l62,162.46,63.24-162.46h-27v-4.2h57.25v4.2h-25.78L999.14,341.05h-8.69L907.72,123.73H882.54v-4.2Z"/><path class="cls-2" d="M0,71.23V0H32.19A14.86,14.86,0,0,1,44,5.65a19.9,19.9,0,0,1,4.93,13.57A21.35,21.35,0,0,1,44,33.4a14.66,14.66,0,0,1-11.77,5.88H4.8v32ZM31.35,34.72a11.47,11.47,0,0,0,9-4.33,15,15,0,0,0,3.73-10.33A16.76,16.76,0,0,0,40.36,9.13a11.37,11.37,0,0,0-9-4.44H4.8v30Z"/><path class="cls-2" d="M58.52,71.23V20.06h4.8V31.59a21.88,21.88,0,0,1,6-9A13.4,13.4,0,0,1,78,19.22h2.76v5.53a1.93,1.93,0,0,1-.84-.24,1.24,1.24,0,0,0-.48-.24q-5.64,0-10.21,4.8A23.12,23.12,0,0,0,63.32,41.2v30Z"/><path class="cls-2" d="M91.93,64.87q-6.6-7.22-6.6-19.22,0-12.37,6.6-19.94t17.42-7.45q10.82,0,17.42,7.45t6.48,19.94q0,12-6.48,19.22t-17.42,7.2Q98.42,72.07,91.93,64.87ZM123.28,62q5.18-6.12,5.17-16.33,0-10.57-5.17-16.82a17.22,17.22,0,0,0-13.93-6.37,17,17,0,0,0-13.93,6.37q-5.3,6.24-5.29,16.82,0,10.22,5.29,16.33t13.93,6.13A17.47,17.47,0,0,0,123.28,62Z"/><path class="cls-2" d="M144.81,71.23V20.06h4.8v8.65a17.44,17.44,0,0,1,6.13-7.21,14.62,14.62,0,0,1,8.53-2.76,16.07,16.07,0,0,1,9.49,2.88,13.35,13.35,0,0,1,5.4,7.57A17.41,17.41,0,0,1,186,21.62a19.11,19.11,0,0,1,10.21-2.88A16.46,16.46,0,0,1,208,23.43a15.2,15.2,0,0,1,4.81,11.29V71.23H208V34.72a12,12,0,0,0-3.48-8.65,10.92,10.92,0,0,0-8.29-3.61,14.75,14.75,0,0,0-10.09,4,17,17,0,0,0-5.53,10.09V71.23h-4.8V34.72a12.44,12.44,0,0,0-3.25-8.65,10.14,10.14,0,0,0-7.8-3.61A13.63,13.63,0,0,0,155,26.67a20.36,20.36,0,0,0-5.41,10.81V71.23Z"/><path class="cls-2" d="M230.23,64.87q-6.6-7.22-6.6-19.22,0-12.37,6.6-19.94t17.42-7.45q10.82,0,17.42,7.45t6.48,19.94q0,12-6.48,19.22t-17.42,7.2Q236.72,72.07,230.23,64.87ZM261.58,62q5.18-6.12,5.17-16.33,0-10.57-5.17-16.82a17.22,17.22,0,0,0-13.93-6.37,17,17,0,0,0-13.93,6.37q-5.29,6.24-5.29,16.82,0,10.22,5.29,16.33t13.93,6.13A17.47,17.47,0,0,0,261.58,62Z"/><path class="cls-2" d="M286.35,69.79a11.18,11.18,0,0,1-2.76-7.69V23.79h-7.33V20.06h7.33V5.53h4.8V20.06h7v3.73h-7V62.1A8.59,8.59,0,0,0,290,67.27a4.23,4.23,0,0,0,3.61,2.16,7.32,7.32,0,0,0,3.72-.84v3.48a13.12,13.12,0,0,1-4.08,1A8.88,8.88,0,0,1,286.35,69.79Z"/><path class="cls-2" d="M308.59,64.87Q302,57.66,302,45.65q0-12.37,6.61-19.94T326,18.26q10.82,0,17.42,7.45t6.48,19.94q0,12-6.48,19.22T326,72.07Q315.08,72.07,308.59,64.87ZM339.94,62q5.16-6.12,5.17-16.33,0-10.57-5.17-16.82A17.23,17.23,0,0,0,326,22.46a17,17,0,0,0-13.94,6.37q-5.28,6.24-5.28,16.82,0,10.22,5.28,16.33T326,68.11A17.48,17.48,0,0,0,339.94,62Z"/><path class="cls-2" d="M361.46,71.23V20.06h4.81V31.59a21.78,21.78,0,0,1,6-9,13.39,13.39,0,0,1,8.64-3.36h2.77v5.53a1.9,1.9,0,0,1-.84-.24,1.31,1.31,0,0,0-.48-.24q-5.65,0-10.21,4.8a23,23,0,0,0-5.89,12.13v30Z"/><path class="cls-2" d="M394.64,65.59q-6.25-7.58-6.25-19.94t6.25-19.94q6.24-7.46,16.57-7.45t16.58,6.85Q434,32,434,43.36v2.29H393.2q0,10.44,4.92,16.69a15.82,15.82,0,0,0,13.09,6.25,19.7,19.7,0,0,0,11.06-3.24,17.35,17.35,0,0,0,7-8.77H434a17.94,17.94,0,0,1-7.69,11.77A25.19,25.19,0,0,1,411.21,73Q400.89,73,394.64,65.59Zm34.59-24.51v-1.8a18.21,18.21,0,0,0-5.76-12,17.7,17.7,0,0,0-12.26-4.81,17,17,0,0,0-12.13,4.93,18.67,18.67,0,0,0-5.88,12.37v1.32Z"/><path class="cls-2" d="M446.31,67.75a14.68,14.68,0,0,1-5.77-11.65H445A11.26,11.26,0,0,0,449.43,65a16.45,16.45,0,0,0,10.69,3.6q7.22,0,11.66-3.24a10.6,10.6,0,0,0,4.32-8.77c0-2.72-1.52-5-4.56-7s-7.13-3-12.26-3.48q-8.16-.72-13-4.57a11.63,11.63,0,0,1-4.93-9.49,11.38,11.38,0,0,1,4.93-9.85q4.92-3.48,13.81-3.48,8.53,0,13.58,3.72a11.71,11.71,0,0,1,5.16,10H474.3a11,11,0,0,0-4.57-7.32,16.23,16.23,0,0,0-9.61-2.65q-6.48,0-10.33,2.65a8.09,8.09,0,0,0-3.84,7q0,4.09,4.68,7t12.26,3.48q8,.72,13,4.81A13.34,13.34,0,0,1,475,68.47q-5.53,4.08-14.9,4.09A20.6,20.6,0,0,1,446.31,67.75Z"/></g></g></svg>