<svg xmlns="http://www.w3.org/2000/svg" viewBox="0 0 680 263.75"><defs><style>.cls-1{fill:#a00d0d;}.cls-2{fill:#a3a3a3;}.cls-3{fill:#7d7d7d;}</style></defs><title>valor_logo</title><g id="Layer_2" data-name="Layer 2"><g id="CONTENIDO"><path class="cls-1" d="M319.25,42.41v2.47H302.36l36.41,95.33,37.12-95.33H360.06V42.41h33.59v2.47H378.52L328.92,172.4h-5.1L275.27,44.88H260.5V42.41Z"/><path class="cls-1" d="M443.51,169.23a58.47,58.47,0,0,1-8.7.71q-9,0-13.28-3.17a13.57,13.57,0,0,1-5.37-8.79h-.35q-2.82,7-7.74,9.49t-14.25,2.47a44.4,44.4,0,0,1-8.62-.88,29.92,29.92,0,0,1-8.09-2.82,16,16,0,0,1-6-5.36,14.76,14.76,0,0,1-2.28-8.36,16.57,16.57,0,0,1,2-8.53,19.1,19.1,0,0,1,5.28-5.8,29.52,29.52,0,0,1,7.38-3.87c2.76-1,5.6-2,8.53-2.9q7.21-2.11,11.7-3.61a28.42,28.42,0,0,0,6.95-3.17,9.43,9.43,0,0,0,3.43-3.78,13.2,13.2,0,0,0,1-5.45V104.68a16.66,16.66,0,0,0-2.29-8.62q-2.29-3.87-8.62-3.87a13.09,13.09,0,0,0-7,1.85c-2,1.23-3,3.49-3,6.77a15.45,15.45,0,0,0,.17,1.85c.12.88.23,1.84.35,2.9s.24,2,.35,3a18.33,18.33,0,0,1,.18,1.93,6.35,6.35,0,0,1-1.23,4.14,7.5,7.5,0,0,1-2.9,2.2,10.31,10.31,0,0,1-3.52.79c-1.23.06-2.26.09-3.08.09a24.85,24.85,0,0,1-3.6-.27,7.39,7.39,0,0,1-3.26-1.23,7.6,7.6,0,0,1-2.37-2.73,9.76,9.76,0,0,1-1-4.74,13.81,13.81,0,0,1,2.55-8.18,20.4,20.4,0,0,1,6.77-6A35.43,35.43,0,0,1,393.21,91a49.79,49.79,0,0,1,11.17-1.23A70.7,70.7,0,0,1,417,90.79a27.17,27.17,0,0,1,10.21,3.87,20.19,20.19,0,0,1,6.86,7.65,26.17,26.17,0,0,1,2.55,12.22v43.62a16.7,16.7,0,0,0,1,5.9q1,2.55,4.84,2.55a7.34,7.34,0,0,0,3.78-.88,12.24,12.24,0,0,0,2.9-2.47l1.59,1.59A10,10,0,0,1,443.51,169.23ZM414.75,124a5.19,5.19,0,0,1-1.31,2,13.81,13.81,0,0,1-3.43,2.2c-2.23,1.06-4.46,2.08-6.69,3.08a24.28,24.28,0,0,0-6,3.78,18,18,0,0,0-4.31,5.63,19.35,19.35,0,0,0-1.67,8.62c0,1.41.09,3,.26,4.92a18,18,0,0,0,1.41,5.46,11.71,11.71,0,0,0,3.43,4.48,9.82,9.82,0,0,0,6.33,1.85,10.2,10.2,0,0,0,4.49-1.06,11.45,11.45,0,0,0,4-3.25,16.66,16.66,0,0,0,2.81-5.81,31.35,31.35,0,0,0,1.06-8.7V124Z"/><path class="cls-1" d="M490.56,40.83V165.19h11.79v2.46h-45v-2.46H469.1V43.3H457.32V40.83Z"/><path class="cls-1" d="M570.51,93a45.23,45.23,0,0,1,13.63,8.71,39.37,39.37,0,0,1,9.06,12.75,38.49,38.49,0,0,1,0,31,39.15,39.15,0,0,1-9.06,12.75,43.51,43.51,0,0,1-13.63,8.62,47,47,0,0,1-34,0,43.4,43.4,0,0,1-13.63-8.62,39.15,39.15,0,0,1-9.06-12.75,38.38,38.38,0,0,1,0-31,39.37,39.37,0,0,1,9.06-12.75A45.11,45.11,0,0,1,536.56,93a46,46,0,0,1,34,0Zm-6.25,71.42a19.16,19.16,0,0,0,5.72-8.53,46,46,0,0,0,2.29-12.14q.43-6.85.44-13.9t-.44-13.8A45.59,45.59,0,0,0,570,104a19.11,19.11,0,0,0-5.72-8.53q-3.87-3.26-10.73-3.26T542.8,95.45a19.09,19.09,0,0,0-5.71,8.53,45.19,45.19,0,0,0-2.29,12q-.43,6.77-.44,13.8t.44,13.9a45.58,45.58,0,0,0,2.29,12.14,19.15,19.15,0,0,0,5.71,8.53q3.87,3.25,10.73,3.25T564.26,164.4Z"/><path class="cls-1" d="M640.42,92.19V107h.35a36.07,36.07,0,0,1,8.54-11.52q5.36-4.85,14.15-4.84,7.39,0,12,4t4.57,11q0,5.28-2.55,8.27t-8.18,3a16.34,16.34,0,0,1-7.39-1.67q-3.35-1.68-3.34-6.25a15.81,15.81,0,0,1,.18-1.84c.11-.88.26-1.82.44-2.82s.32-1.9.43-2.73.18-1.28.18-1.4a8,8,0,0,0-.53-2.2,3.6,3.6,0,0,0-1.14-1.41,3.83,3.83,0,0,0-2.37-.61,8.74,8.74,0,0,0-4.4,1.67,18.24,18.24,0,0,0-4.93,4.83,32.31,32.31,0,0,0-3.95,7.66,28.66,28.66,0,0,0-1.68,10.11v45h13.9v2.46H607.88v-2.46h11.44V94.66H607.88V92.19Z"/><path class="cls-2" d="M230.83,169.76H215.55l-56-128.95h-.13L146.53,74.06l13,30.2,6.66,15.41h0l18.15,42.22c1.36,4.94-1.64,7.45-8.4,7.87h-4.74v2.48h59.68Z"/><path class="cls-1" d="M163.73,0,94.52,173.92,61.66,106.53C56,95.69,65.59,93.32,72.05,92.89H77.2l.1-3.23H0v3.23H19.42L75.77,221.05,59.65,261.56l5.48,2.19L169.21,2.18Z"/><path class="cls-3" d="M261.66,226.8V208.25h1.25V226.8Z"/><path class="cls-3" d="M266.29,226.8V213.47h1.25v2.26a4.22,4.22,0,0,1,1.72-1.88,5,5,0,0,1,5.91.56,4.14,4.14,0,0,1,1.41,3.13v9.26h-1.25v-9.26a3.11,3.11,0,0,0-1-2.35,3.49,3.49,0,0,0-2.47-1,4.11,4.11,0,0,0-2.78,1.07,4.57,4.57,0,0,0-1.5,2.72v8.79Z"/><path class="cls-3" d="M279.73,226.8V213.47H281v2.26a4.28,4.28,0,0,1,1.72-1.88,5,5,0,0,1,5.92.56,4.13,4.13,0,0,1,1.4,3.13v9.26h-1.25v-9.26a3.1,3.1,0,0,0-1-2.35,3.51,3.51,0,0,0-2.47-1,4.11,4.11,0,0,0-2.78,1.07A4.58,4.58,0,0,0,281,218v8.79Z"/><path class="cls-3" d="M294.06,225.14a7.1,7.1,0,0,1-1.72-5,7.62,7.62,0,0,1,1.72-5.2,5.7,5.7,0,0,1,4.53-1.94,5.79,5.79,0,0,1,4.54,1.94,7.76,7.76,0,0,1,1.69,5.2,7.22,7.22,0,0,1-1.69,5,5.88,5.88,0,0,1-4.54,1.88A5.78,5.78,0,0,1,294.06,225.14Zm8.16-.75a6.35,6.35,0,0,0,1.35-4.25,6.63,6.63,0,0,0-1.35-4.38,4.48,4.48,0,0,0-3.63-1.66,4.43,4.43,0,0,0-3.63,1.66,6.58,6.58,0,0,0-1.37,4.38,6.31,6.31,0,0,0,1.37,4.25,4.53,4.53,0,0,0,3.63,1.6A4.58,4.58,0,0,0,302.22,224.39Z"/><path class="cls-3" d="M310.73,226.8l-5-13.33h1.16l4.53,11.89,4.29-11.89h1.19L312,226.8Z"/><path class="cls-3" d="M319,226.17a3.22,3.22,0,0,1,0-5.31,6,6,0,0,1,3.38-1.32,13.82,13.82,0,0,0,3.22-.62c.85-.3,1.28-.64,1.28-1V216.7a2.07,2.07,0,0,0-1.12-1.76,5.31,5.31,0,0,0-5.29,0,2,2,0,0,0-1.06,1.69v.69H318.2v-.81a2.72,2.72,0,0,1,1.41-2.29,6.17,6.17,0,0,1,3.44-.94,6.64,6.64,0,0,1,3.53.91,2.6,2.6,0,0,1,1.47,2.19v8.07a2.65,2.65,0,0,0,.34,1.35,1,1,0,0,0,.85.56,1.2,1.2,0,0,0,.28,0,.35.35,0,0,0,.19-.1v.6a2.91,2.91,0,0,1-1.19.22,1.59,1.59,0,0,1-1.25-.63,2.34,2.34,0,0,1-.5-1.5,3.16,3.16,0,0,1-1.6,1.72,5.8,5.8,0,0,1-2.81.66A5.21,5.21,0,0,1,319,226.17Zm6.29-.93a4.42,4.42,0,0,0,1.56-2.73v-3.06a3.69,3.69,0,0,1-1.59.62,20.85,20.85,0,0,1-2.91.41,4.16,4.16,0,0,0-2.47,1,2.53,2.53,0,0,0-1,2,2.44,2.44,0,0,0,1,2,3.61,3.61,0,0,0,2.44.85A4.46,4.46,0,0,0,325.3,225.24Z"/><path class="cls-3" d="M332.43,225.27a7.57,7.57,0,0,1-1.85-5.13,7.38,7.38,0,0,1,1.85-5,5.74,5.74,0,0,1,4.47-2.1,5.53,5.53,0,0,1,3.69,1.29,4,4,0,0,1,1.53,3.12h-1.25a2.81,2.81,0,0,0-1.16-2.25,4.35,4.35,0,0,0-2.81-.94,4.64,4.64,0,0,0-3.6,1.72,6.33,6.33,0,0,0-1.47,4.2,6.5,6.5,0,0,0,1.47,4.28,4.55,4.55,0,0,0,3.6,1.78,4.1,4.1,0,0,0,2.75-1,3,3,0,0,0,1.16-2.32h1.31a4,4,0,0,1-1.53,3.16,5.45,5.45,0,0,1-3.69,1.31A5.73,5.73,0,0,1,332.43,225.27Z"/><path class="cls-3" d="M344.22,208.25h1.25v1.91h-1.25Zm0,18.55V213.47h1.25V226.8Z"/><path class="cls-3" d="M349.72,225.14a7.1,7.1,0,0,1-1.72-5,7.62,7.62,0,0,1,1.72-5.2,5.7,5.7,0,0,1,4.53-1.94,5.79,5.79,0,0,1,4.54,1.94,7.76,7.76,0,0,1,1.69,5.2,7.22,7.22,0,0,1-1.69,5,5.88,5.88,0,0,1-4.54,1.88A5.78,5.78,0,0,1,349.72,225.14Zm8.16-.75a6.35,6.35,0,0,0,1.35-4.25,6.63,6.63,0,0,0-1.35-4.38,4.48,4.48,0,0,0-3.63-1.66,4.43,4.43,0,0,0-3.63,1.66,6.58,6.58,0,0,0-1.37,4.38,6.31,6.31,0,0,0,1.37,4.25,4.53,4.53,0,0,0,3.63,1.6A4.58,4.58,0,0,0,357.88,224.39Zm-3-17.3h1.88l-2.1,4.76h-.88Z"/><path class="cls-3" d="M363,226.8V213.47h1.25v2.26a4.22,4.22,0,0,1,1.72-1.88,5,5,0,0,1,5.91.56,4.14,4.14,0,0,1,1.41,3.13v9.26h-1.25v-9.26a3.14,3.14,0,0,0-1-2.35,3.53,3.53,0,0,0-2.48-1,4.11,4.11,0,0,0-2.78,1.07,4.62,4.62,0,0,0-1.5,2.72v8.79Z"/><path class="cls-1" d="M386.21,219a2.7,2.7,0,1,1-.81,1.93A2.61,2.61,0,0,1,386.21,219Z"/><path class="cls-3" d="M403.33,208.25h7.35a6.26,6.26,0,0,1,5,2.66,10,10,0,0,1,2.06,6.38,10.91,10.91,0,0,1-2.06,6.72,6.17,6.17,0,0,1-5,2.79h-7.35Zm7.35,17.36a5,5,0,0,0,4.13-2.44,9.93,9.93,0,0,0,1.72-5.88,8.92,8.92,0,0,0-1.72-5.54,5,5,0,0,0-4.13-2.28h-6.1v16.14Z"/><path class="cls-3" d="M420.91,225.33a9.09,9.09,0,0,1,0-10.39,5.35,5.35,0,0,1,4.32-1.94,5.55,5.55,0,0,1,4.31,1.79,6.75,6.75,0,0,1,1.63,4.75v.6H420.53a6.78,6.78,0,0,0,1.29,4.34,4.1,4.1,0,0,0,3.41,1.63,5.11,5.11,0,0,0,2.87-.84,4.57,4.57,0,0,0,1.82-2.29h1.25a4.69,4.69,0,0,1-2,3.07,6.58,6.58,0,0,1-3.94,1.22A5.35,5.35,0,0,1,420.91,225.33Zm9-6.38v-.47a4.79,4.79,0,0,0-1.5-3.13,4.64,4.64,0,0,0-3.19-1.25,4.44,4.44,0,0,0-3.16,1.28,4.89,4.89,0,0,0-1.54,3.22V219Z"/><path class="cls-3" d="M433.89,225.89a3.81,3.81,0,0,1-1.51-3h1.16a2.93,2.93,0,0,0,1.16,2.31,4.25,4.25,0,0,0,2.78.94,5.07,5.07,0,0,0,3-.84,2.77,2.77,0,0,0,1.12-2.29,2.14,2.14,0,0,0-1.18-1.81,7.64,7.64,0,0,0-3.2-.91,6.08,6.08,0,0,1-3.37-1.19,3,3,0,0,1-1.29-2.47,2.94,2.94,0,0,1,1.29-2.56,6.09,6.09,0,0,1,3.59-.91,5.83,5.83,0,0,1,3.54,1,3,3,0,0,1,1.34,2.6h-1.19a2.85,2.85,0,0,0-1.18-1.91,4.23,4.23,0,0,0-2.51-.69,4.68,4.68,0,0,0-2.69.69,2.12,2.12,0,0,0-1,1.81,2.17,2.17,0,0,0,1.22,1.82,7.6,7.6,0,0,0,3.19.9,6,6,0,0,1,3.38,1.25,3.48,3.48,0,0,1-.22,5.51,6.38,6.38,0,0,1-3.88,1.06A5.33,5.33,0,0,1,433.89,225.89Z"/><path class="cls-3" d="M445.43,226.17a3.23,3.23,0,0,1,0-5.31,6,6,0,0,1,3.38-1.32,13.71,13.71,0,0,0,3.22-.62c.86-.3,1.29-.64,1.29-1V216.7a2.09,2.09,0,0,0-1.13-1.76,5.31,5.31,0,0,0-5.29,0,2.07,2.07,0,0,0-1.06,1.69v.69h-1.19v-.81a2.72,2.72,0,0,1,1.41-2.29,6.21,6.21,0,0,1,3.44-.94,6.68,6.68,0,0,1,3.54.91,2.6,2.6,0,0,1,1.47,2.19v8.07a2.56,2.56,0,0,0,.34,1.35,1,1,0,0,0,.84.56,1.29,1.29,0,0,0,.29,0,.32.32,0,0,0,.18-.1v.6a2.91,2.91,0,0,1-1.19.22,1.6,1.6,0,0,1-1.25-.63,2.34,2.34,0,0,1-.5-1.5,3.18,3.18,0,0,1-1.59,1.72,5.84,5.84,0,0,1-2.82.66A5.18,5.18,0,0,1,445.43,226.17Zm6.28-.93a4.38,4.38,0,0,0,1.57-2.73v-3.06a3.8,3.8,0,0,1-1.6.62,20.85,20.85,0,0,1-2.91.41,4.19,4.19,0,0,0-2.47,1,2.53,2.53,0,0,0-1,2,2.44,2.44,0,0,0,1,2,3.63,3.63,0,0,0,2.44.85A4.42,4.42,0,0,0,451.71,225.24Z"/><path class="cls-3" d="M457.9,226.8V213.47h1.25v3a5.7,5.7,0,0,1,1.57-2.35,3.52,3.52,0,0,1,2.25-.88h.72v1.44a.52.52,0,0,1-.22-.06l-.12-.06a3.59,3.59,0,0,0-2.66,1.25,6,6,0,0,0-1.54,3.16v7.82Z"/><path class="cls-3" d="M465.25,226.8V213.47h1.25v3a5.68,5.68,0,0,1,1.56-2.35,3.52,3.52,0,0,1,2.26-.88H471v1.44a.49.49,0,0,1-.22-.06l-.13-.06a3.63,3.63,0,0,0-2.66,1.25A6,6,0,0,0,466.5,219v7.82Z"/><path class="cls-3" d="M473.47,225.14a7.1,7.1,0,0,1-1.72-5,7.62,7.62,0,0,1,1.72-5.2,6.27,6.27,0,0,1,9.07,0,7.71,7.71,0,0,1,1.69,5.2,7.18,7.18,0,0,1-1.69,5,6.41,6.41,0,0,1-9.07,0Zm8.17-.75a6.4,6.4,0,0,0,1.34-4.25,6.68,6.68,0,0,0-1.34-4.38A4.48,4.48,0,0,0,478,214.1a4.41,4.41,0,0,0-3.63,1.66,6.53,6.53,0,0,0-1.38,4.38,6.26,6.26,0,0,0,1.38,4.25A4.51,4.51,0,0,0,478,226,4.58,4.58,0,0,0,481.64,224.39Z"/><path class="cls-3" d="M486.76,226.8V208.25H488V226.8Z"/><path class="cls-3" d="M491.39,226.8V208.25h1.25V226.8Z"/><path class="cls-3" d="M496.89,225.14a7.1,7.1,0,0,1-1.72-5,7.62,7.62,0,0,1,1.72-5.2,6.27,6.27,0,0,1,9.07,0,7.71,7.71,0,0,1,1.69,5.2,7.18,7.18,0,0,1-1.69,5,6.41,6.41,0,0,1-9.07,0Zm8.16-.75a6.35,6.35,0,0,0,1.35-4.25,6.63,6.63,0,0,0-1.35-4.38,4.45,4.45,0,0,0-3.62-1.66,4.4,4.4,0,0,0-3.63,1.66,6.53,6.53,0,0,0-1.38,4.38,6.26,6.26,0,0,0,1.38,4.25,4.5,4.5,0,0,0,3.63,1.6A4.55,4.55,0,0,0,505.05,224.39Z"/><path class="cls-1" d="M519.93,219a2.74,2.74,0,0,1,4.67,1.93,2.75,2.75,0,0,1-2.74,2.74,2.73,2.73,0,0,1-1.93-4.67Z"/><path class="cls-3" d="M537.75,225.45a5.67,5.67,0,0,1-1.91-4.34h1.25a4.73,4.73,0,0,0,1.53,3.53,5.13,5.13,0,0,0,3.69,1.47,6.63,6.63,0,0,0,4-1.25,3.72,3.72,0,0,0,1.66-3,3.05,3.05,0,0,0-1.47-2.57,7.71,7.71,0,0,0-3.88-1.25,8.58,8.58,0,0,1-4.76-1.69,4.38,4.38,0,0,1,0-7.07,6.74,6.74,0,0,1,4.38-1.47,7.49,7.49,0,0,1,4.73,1.53A4.58,4.58,0,0,1,549,213h-1.26a3.47,3.47,0,0,0-1.59-2.84,6.09,6.09,0,0,0-3.82-1.19,5.59,5.59,0,0,0-3.5,1.12,3.28,3.28,0,0,0-1.44,2.69,3.13,3.13,0,0,0,1.5,2.63,8.29,8.29,0,0,0,4,1.29,8.31,8.31,0,0,1,4.63,1.65,4.35,4.35,0,0,1,1.72,3.48,4.73,4.73,0,0,1-2,3.84,7.66,7.66,0,0,1-4.91,1.6A6.32,6.32,0,0,1,537.75,225.45Z"/><path class="cls-3" d="M552.29,225.14a7.1,7.1,0,0,1-1.72-5,7.62,7.62,0,0,1,1.72-5.2,5.71,5.71,0,0,1,4.53-1.94,5.79,5.79,0,0,1,4.54,1.94,7.71,7.71,0,0,1,1.69,5.2,7.18,7.18,0,0,1-1.69,5,5.88,5.88,0,0,1-4.54,1.88A5.8,5.8,0,0,1,552.29,225.14Zm8.16-.75a6.35,6.35,0,0,0,1.35-4.25,6.63,6.63,0,0,0-1.35-4.38,4.8,4.8,0,0,0-7.26,0,6.58,6.58,0,0,0-1.37,4.38,6.31,6.31,0,0,0,1.37,4.25,4.92,4.92,0,0,0,7.26,0Z"/><path class="cls-3" d="M566,225.89a3.79,3.79,0,0,1-1.51-3h1.16a2.93,2.93,0,0,0,1.16,2.31,4.25,4.25,0,0,0,2.78.94,5.09,5.09,0,0,0,3-.84,2.77,2.77,0,0,0,1.12-2.29,2.13,2.13,0,0,0-1.19-1.81,7.55,7.55,0,0,0-3.19-.91,6.08,6.08,0,0,1-3.37-1.19,3,3,0,0,1-1.29-2.47A2.94,2.94,0,0,1,566,214a6.09,6.09,0,0,1,3.59-.91,5.83,5.83,0,0,1,3.54,1,3,3,0,0,1,1.34,2.6h-1.19a2.85,2.85,0,0,0-1.18-1.91,4.25,4.25,0,0,0-2.51-.69,4.68,4.68,0,0,0-2.69.69,2.1,2.1,0,0,0-1,1.81,2.17,2.17,0,0,0,1.22,1.82,7.6,7.6,0,0,0,3.19.9,6,6,0,0,1,3.38,1.25,3.48,3.48,0,0,1-.22,5.51,6.38,6.38,0,0,1-3.88,1.06A5.31,5.31,0,0,1,566,225.89Z"/><path class="cls-3" d="M578.06,226.42a2.91,2.91,0,0,1-.72-2v-10h-1.91v-1h1.91v-3.78h1.25v3.78h1.81v1h-1.81v10a2.27,2.27,0,0,0,.4,1.35,1.12,1.12,0,0,0,.94.56,1.86,1.86,0,0,0,1-.22V227a3.3,3.3,0,0,1-1.06.25A2.29,2.29,0,0,1,578.06,226.42Z"/><path class="cls-3" d="M583.31,225.33a9.09,9.09,0,0,1,0-10.39,5.35,5.35,0,0,1,4.31-1.94,5.55,5.55,0,0,1,4.32,1.79,6.8,6.8,0,0,1,1.63,4.75v.6H582.93a6.83,6.83,0,0,0,1.28,4.34,4.13,4.13,0,0,0,3.41,1.63,5.12,5.12,0,0,0,2.88-.84,4.57,4.57,0,0,0,1.82-2.29h1.25a4.69,4.69,0,0,1-2,3.07,6.59,6.59,0,0,1-4,1.22A5.35,5.35,0,0,1,583.31,225.33Zm9-6.38v-.47a4.76,4.76,0,0,0-1.51-3.13,4.6,4.6,0,0,0-3.19-1.25,4.45,4.45,0,0,0-3.16,1.28,4.93,4.93,0,0,0-1.53,3.22V219Z"/><path class="cls-3" d="M595.88,226.8V213.47h1.25v2.26a4.22,4.22,0,0,1,1.72-1.88,5,5,0,0,1,5.91.56,4.14,4.14,0,0,1,1.41,3.13v9.26h-1.25v-9.26a3.14,3.14,0,0,0-1-2.35,3.53,3.53,0,0,0-2.48-1,4.11,4.11,0,0,0-2.78,1.07,4.62,4.62,0,0,0-1.5,2.72v8.79Z"/><path class="cls-3" d="M609.32,208.25h1.26v1.91h-1.26Zm0,18.55V213.47h1.26V226.8Z"/><path class="cls-3" d="M617.11,226.42a5.24,5.24,0,0,1-1.91-2.22v2.6H614V208.25h1.25v8.23a4.94,4.94,0,0,1,4.66-3.23,5.14,5.14,0,0,1,4.19,1.91,8.93,8.93,0,0,1,0,10.2,5.14,5.14,0,0,1-4.19,1.91A4.85,4.85,0,0,1,617.11,226.42Zm6.13-1.84a8.09,8.09,0,0,0,0-8.64,4.09,4.09,0,0,0-3.38-1.62,4,4,0,0,0-3.28,1.75,7.05,7.05,0,0,0,0,8.38,4,4,0,0,0,3.28,1.75A4.09,4.09,0,0,0,623.24,224.58Z"/><path class="cls-3" d="M628.21,208.25h1.25v1.91h-1.25Zm0,18.55V213.47h1.25V226.8Z"/><path class="cls-3" d="M632.84,226.8V208.25h1.25V226.8Z"/><path class="cls-3" d="M637.46,208.25h1.25v1.91h-1.25Zm0,18.55V213.47h1.25V226.8Z"/><path class="cls-3" d="M642.9,225.08a7.4,7.4,0,0,1-1.72-4.94,7.68,7.68,0,0,1,1.72-5A5.18,5.18,0,0,1,647,213a4.84,4.84,0,0,1,2.82.91,5.33,5.33,0,0,1,1.81,2.44v-8.1h1.25V226.8h-1.25v-2.72a4.48,4.48,0,0,1-1.78,2.22,5,5,0,0,1-2.85.84A5.22,5.22,0,0,1,642.9,225.08Zm7.42-.66a6.93,6.93,0,0,0,1.34-4.28,6.83,6.83,0,0,0-1.34-4.26A4.06,4.06,0,0,0,647,214.1a4,4,0,0,0-3.25,1.78,6.78,6.78,0,0,0-1.35,4.26,6.88,6.88,0,0,0,1.35,4.28A4,4,0,0,0,647,226.2,4.06,4.06,0,0,0,650.32,224.42Z"/><path class="cls-3" d="M656.6,226.17a3.22,3.22,0,0,1,0-5.31,5.92,5.92,0,0,1,3.38-1.32,13.93,13.93,0,0,0,3.22-.62c.85-.3,1.28-.64,1.28-1V216.7a2.09,2.09,0,0,0-1.13-1.76,5.3,5.3,0,0,0-5.28,0A2.06,2.06,0,0,0,657,216.6v.69h-1.18v-.81a2.71,2.71,0,0,1,1.4-2.29,6.21,6.21,0,0,1,3.44-.94,6.65,6.65,0,0,1,3.54.91,2.6,2.6,0,0,1,1.47,2.19v8.07a2.56,2.56,0,0,0,.34,1.35,1,1,0,0,0,.85.56,1.2,1.2,0,0,0,.28,0,.39.39,0,0,0,.19-.1v.6a2.94,2.94,0,0,1-1.19.22,1.59,1.59,0,0,1-1.25-.63,2.28,2.28,0,0,1-.5-1.5,3.2,3.2,0,0,1-1.6,1.72,5.8,5.8,0,0,1-2.81.66A5.21,5.21,0,0,1,656.6,226.17Zm6.29-.93a4.42,4.42,0,0,0,1.56-2.73v-3.06a3.68,3.68,0,0,1-1.6.62,20.9,20.9,0,0,1-2.9.41,4.22,4.22,0,0,0-2.48,1,2.56,2.56,0,0,0-1,2,2.45,2.45,0,0,0,1,2,3.61,3.61,0,0,0,2.44.85A4.46,4.46,0,0,0,662.89,225.24Z"/><path class="cls-3" d="M669.89,225.08a7.4,7.4,0,0,1-1.72-4.94,7.68,7.68,0,0,1,1.72-5A5.18,5.18,0,0,1,674,213a4.78,4.78,0,0,1,2.81.91,5.35,5.35,0,0,1,1.82,2.44v-8.1h1.25V226.8h-1.25v-2.72a4.5,4.5,0,0,1-1.79,2.22,5,5,0,0,1-2.84.84A5.22,5.22,0,0,1,669.89,225.08Zm7.41-.66a6.88,6.88,0,0,0,1.35-4.28,6.78,6.78,0,0,0-1.35-4.26A4,4,0,0,0,674,214.1a4,4,0,0,0-3.25,1.78,6.78,6.78,0,0,0-1.35,4.26,6.88,6.88,0,0,0,1.35,4.28A4,4,0,0,0,674,226.2,4,4,0,0,0,677.3,224.42Z"/></g></g></svg>