<svg xmlns="http://www.w3.org/2000/svg" viewBox="0 0 183.91 54.34"><defs><style>.cls-1{font-size:28.19px;font-family:Didot-Bold, Didot;font-weight:700;letter-spacing:-0.17em;}.cls-1,.cls-5,.cls-7,.cls-9{fill:#a00d0d;}.cls-2{letter-spacing:-0.01em;}.cls-3{font-size:24.26px;letter-spacing:-0.02em;}.cls-3,.cls-8{fill:#a4a4a4;}.cls-3,.cls-4{font-family:ShreeDev0714, "Shree Devanagari 714";}.cls-4{font-size:7.17px;fill:#7d7d7d;letter-spacing:-0.03em;}.cls-5,.cls-7{font-size:5.6px;}.cls-5{letter-spacing:-0.03em;}.cls-6{letter-spacing:-0.02em;}.cls-7{letter-spacing:-0.03em;}</style></defs><title>valor_logo</title><g id="Layer_2" data-name="Layer 2"><g id="CONTENIDO"><text class="cls-1" transform="translate(117.15 35.63)">V<tspan class="cls-2" x="15.7" y="0">alor</tspan></text><text class="cls-3" transform="translate(54.61 35.49)">Grupo </text><text class="cls-4" transform="translate(58.62 47.9)">Desarrollo <tspan class="cls-5" x="33.08" y="0">•</tspan><tspan class="cls-6" x="35.39" y="0" xml:space="preserve"> Innovación </tspan><tspan class="cls-7" x="73.4" y="0">•</tspan><tspan class="cls-6" x="75.71" y="0" xml:space="preserve"> Sostenibilidad</tspan></text><path class="cls-8" d="M35.26,35.49V35c2.46.14,3.38-.59,2.38-2.38l1,2.38v.52Z"/><polygon class="cls-8" points="44.41 34.97 32.88 8.41 32.85 8.41 30.19 15.26 32.86 21.48 34.24 24.66 34.23 24.66 38.66 34.97 35.26 34.97 35.26 35.49 47.55 35.49 47.55 34.97 44.41 34.97"/><polygon class="cls-9" points="30.7 8.21 19.57 36.02 11.33 19.14 15.9 19.14 15.9 18.47 0 18.47 0 19.14 4 19.14 15.95 46.32 16.62 44.63 31.13 8.21 30.7 8.21"/><path class="cls-9" d="M15.92,18.47l0,.67S11,18.72,12.7,22l-1.52-2.83v-.65Z"/><rect class="cls-9" x="-5.42" y="26.56" width="58" height="1.22" transform="translate(-10.39 39.02) rotate(-68.28)"/></g></g></svg>