<svg xmlns="http://www.w3.org/2000/svg" viewBox="0 0 346.54 60.17"><defs><style>.cls-1{fill:#4d4d4d;}.cls-2{fill:#762124;}</style></defs><title>valor_logo</title><g id="Layer_2" data-name="Layer 2"><g id="Contenido"><path class="cls-1" d="M108.14,16.62H120.2A24.67,24.67,0,0,1,120,20.2a12,12,0,0,1-.9,3.13,10.2,10.2,0,0,1-1.86,2.8,14,14,0,0,1-4.91,3.41,15,15,0,0,1-5.94,1.22,13.91,13.91,0,0,1-5.58-1.15,14.88,14.88,0,0,1-4.72-3.18,15,15,0,0,1-3.21-4.68,13.62,13.62,0,0,1-1.17-5.55,14.32,14.32,0,0,1,2-7.41,14.92,14.92,0,0,1,12.9-7.37,14.33,14.33,0,0,1,9,3.1A18.76,18.76,0,0,1,119,8.09l-1.48,1.18a13.79,13.79,0,0,0-2.14-2.56,13.34,13.34,0,0,0-2.6-2,12.42,12.42,0,0,0-3-1.21,13,13,0,0,0-3.32-.42,12.28,12.28,0,0,0-6.4,1.8,13.76,13.76,0,0,0-4.79,4.8,12.33,12.33,0,0,0-1.77,6.37,12.52,12.52,0,0,0,1.75,6.44A13.06,13.06,0,0,0,100,27.3a12.56,12.56,0,0,0,6.47,1.76,13.19,13.19,0,0,0,8.42-3.15,9.87,9.87,0,0,0,2-2.18A8.58,8.58,0,0,0,118,21.24a12.53,12.53,0,0,0,.42-2.92H108.14Z"/><path class="cls-1" d="M129.07,16.85l9.37,13.53h-2.09L127,16.85h-.92V30.38H124.3V1.8h3.56a23,23,0,0,1,3.75.25,6.6,6.6,0,0,1,2.77,1.18,7,7,0,0,1,2.89,6.15,7.68,7.68,0,0,1-1,4.1,6.5,6.5,0,0,1-2.9,2.53A10.25,10.25,0,0,1,129.07,16.85Zm-3-1.71h2.32a14.55,14.55,0,0,0,2.86-.24,4.75,4.75,0,0,0,2.14-1.09,5.47,5.47,0,0,0,2-4.5,6.78,6.78,0,0,0-.33-2.1,5.52,5.52,0,0,0-1-1.82,4.72,4.72,0,0,0-1.68-1.24,14.37,14.37,0,0,0-5.12-.65h-1.18Z"/><path class="cls-1" d="M159.79,19.08V1.8h1.81V19.62a25.64,25.64,0,0,1-.31,4.5,7.41,7.41,0,0,1-1.62,3.31,9.4,9.4,0,0,1-3.48,2.47,11.11,11.11,0,0,1-8.57,0,9.52,9.52,0,0,1-3.49-2.47,7.56,7.56,0,0,1-1.62-3.31,25.57,25.57,0,0,1-.32-4.5V1.8H144V19.08a31,31,0,0,0,.24,4.28,6.24,6.24,0,0,0,1.23,2.93,6.64,6.64,0,0,0,2.84,2,9,9,0,0,0,7.15,0,6.67,6.67,0,0,0,2.83-2,6.25,6.25,0,0,0,1.23-2.93A29.28,29.28,0,0,0,159.79,19.08Z"/><path class="cls-1" d="M169,16.81V30.38h-1.82V1.8h5.05a16.25,16.25,0,0,1,3.5.32,6,6,0,0,1,2.67,1.34,7.32,7.32,0,0,1,2.58,5.88,8.37,8.37,0,0,1-.61,3.15,6.25,6.25,0,0,1-1.77,2.5q-2.12,1.81-6.37,1.82Zm0-1.71h3.3a11.54,11.54,0,0,0,2.79-.31,5.29,5.29,0,0,0,2.21-1.25,5.5,5.5,0,0,0,1.86-4.27,6.3,6.3,0,0,0-.56-2.63,4.85,4.85,0,0,0-1.6-2,4.77,4.77,0,0,0-2.13-.94A17.85,17.85,0,0,0,172,3.5h-3Z"/><path class="cls-1" d="M197.81,1.42a14.44,14.44,0,0,1,7.36,2,14.93,14.93,0,0,1,5.45,5.37,14.27,14.27,0,0,1,0,14.64,15.08,15.08,0,0,1-5.45,5.37,14.67,14.67,0,0,1-14.72,0A15.16,15.16,0,0,1,185,23.41a14.26,14.26,0,0,1-.86-12.95,15.06,15.06,0,0,1,8-7.9A14.43,14.43,0,0,1,197.81,1.42Zm0,1.7a12.57,12.57,0,0,0-6.48,1.76,13.09,13.09,0,0,0-4.76,4.76,12.64,12.64,0,0,0,0,12.9,13.09,13.09,0,0,0,4.76,4.76,12.78,12.78,0,0,0,13,0,13.24,13.24,0,0,0,4.76-4.76,12.56,12.56,0,0,0,.74-11.41A13,13,0,0,0,207,7a13.16,13.16,0,0,0-4.17-2.81A12.51,12.51,0,0,0,197.81,3.12Z"/><path class="cls-2" d="M230,1.8l7.9,19.81,8-19.81h4.72L237.76,32.53,225.22,1.8Z"/><path class="cls-2" d="M268.21,23.44H256l-3.19,6.94h-4.64L262.28,0l13.65,30.38h-4.72Zm-1.76-4.05-4.24-9.72-4.44,9.72Z"/><path class="cls-2" d="M283.47,1.8V26.33h8.41v4.05H279.16V1.8Z"/><path class="cls-2" d="M293,16a14,14,0,0,1,4.42-10.37,14.56,14.56,0,0,1,10.59-4.33,14.29,14.29,0,0,1,10.48,4.37,14.26,14.26,0,0,1,4.39,10.5,14,14,0,0,1-4.41,10.46,15.11,15.11,0,0,1-20.62.48A14,14,0,0,1,293,16Zm4.35.06a10.33,10.33,0,0,0,3.18,7.79,10.21,10.21,0,0,0,7.31,3.06,10.34,10.34,0,0,0,7.6-3.11,10.55,10.55,0,0,0,3.09-7.67,10.49,10.49,0,0,0-3.06-7.67A10.09,10.09,0,0,0,308,5.31a10.2,10.2,0,0,0-7.54,3.11A10.31,10.31,0,0,0,297.39,16Z"/><path class="cls-2" d="M337.69,18.2l8.85,12.18h-5.28l-8.17-11.7h-.77v11.7H328V1.8h5.06q5.65,0,8.18,2.12A7.85,7.85,0,0,1,344,10.18a8.14,8.14,0,0,1-1.74,5.23A7.79,7.79,0,0,1,337.69,18.2Zm-5.37-3.28h1.37q6.12,0,6.12-4.68c0-2.93-2-4.39-6-4.39h-1.53Z"/><path class="cls-2" d="M103.6,37.4H96.34v6.37h7.08v1.06H96.34v8h7.26v1H95.23V36.36h8.37Z"/><path class="cls-2" d="M109.6,48.22l-4-5.07h1.26l3.42,4.35,3.44-4.35H115l-4,5.07,4.38,5.67h-1.23L110.28,49l-3.82,4.93h-1.23Z"/><path class="cls-2" d="M125.47,44.24v1.4a5,5,0,0,0-3.79-1.75,4.22,4.22,0,0,0-2.26.64,4.51,4.51,0,0,0-1.6,1.7,4.6,4.6,0,0,0-.59,2.27,4.83,4.83,0,0,0,.58,2.28,4.56,4.56,0,0,0,1.6,1.72,4.13,4.13,0,0,0,2.25.65,4.78,4.78,0,0,0,2.17-.52,5.4,5.4,0,0,0,1.78-1.41v1.42a5.79,5.79,0,0,1-3.91,1.49,5.41,5.41,0,0,1-2.82-.75,5.32,5.32,0,0,1-2-2,5.81,5.81,0,0,1-.71-2.84,5.64,5.64,0,0,1,.72-2.82,5.46,5.46,0,0,1,4.81-2.76A5.61,5.61,0,0,1,125.47,44.24Z"/><path class="cls-2" d="M137.66,48.61h-9.33a5,5,0,0,0,.56,2.4,4,4,0,0,0,1.55,1.59,4.45,4.45,0,0,0,2.19.55,3.85,3.85,0,0,0,2.22-.67,4.75,4.75,0,0,0,1.58-1.77l.88.51a5.26,5.26,0,0,1-4.81,2.91,4.95,4.95,0,0,1-4.57-2.82,6.15,6.15,0,0,1-.65-2.81,6,6,0,0,1,.66-2.79,5.08,5.08,0,0,1,1.84-2,5.28,5.28,0,0,1,5.46,0,5,5,0,0,1,1.8,2.07A6.65,6.65,0,0,1,137.66,48.61Zm-9.33-1h8.28a4.42,4.42,0,0,0-.68-1.86,4.32,4.32,0,0,0-1.45-1.37,3.81,3.81,0,0,0-2-.52,4.1,4.1,0,0,0-2,.51A4.41,4.41,0,0,0,129,45.77,3.83,3.83,0,0,0,128.33,47.64Z"/><path class="cls-2" d="M141.24,34.71V53.89h-1.05V34.71Z"/><path class="cls-2" d="M154.15,48.61h-9.33a5,5,0,0,0,.56,2.4,4,4,0,0,0,1.55,1.59,4.45,4.45,0,0,0,2.19.55,3.85,3.85,0,0,0,2.22-.67,4.75,4.75,0,0,0,1.58-1.77l.88.51A5.26,5.26,0,0,1,149,54.13a4.95,4.95,0,0,1-4.57-2.82,6.15,6.15,0,0,1-.65-2.81,6,6,0,0,1,.66-2.79,5.08,5.08,0,0,1,1.84-2,5.3,5.3,0,0,1,5.47,0,5.06,5.06,0,0,1,1.79,2.07A6.65,6.65,0,0,1,154.15,48.61Zm-9.33-1h8.28a4.42,4.42,0,0,0-.68-1.86A4.32,4.32,0,0,0,151,44.41a3.81,3.81,0,0,0-2-.52,4.1,4.1,0,0,0-2,.51,4.41,4.41,0,0,0-1.51,1.37A3.94,3.94,0,0,0,144.82,47.64Z"/><path class="cls-2" d="M157.73,43.15v1.68h.05a3.5,3.5,0,0,1,1.31-1.41,3.58,3.58,0,0,1,1.87-.5,3.64,3.64,0,0,1,2.12.53,2.77,2.77,0,0,1,1.1,1.51,8.11,8.11,0,0,1,.32,2.44v6.49h-1.05V47.4a8.73,8.73,0,0,0-.17-1.86,2.09,2.09,0,0,0-.74-1.2,3.22,3.22,0,0,0-3.62.23,3.44,3.44,0,0,0-.95,1.71,10.37,10.37,0,0,0-.24,2.31v5.3h-1V43.15Z"/><path class="cls-2" d="M176.31,44.24v1.4a5,5,0,0,0-3.79-1.75,4.21,4.21,0,0,0-2.25.64,4.53,4.53,0,0,0-1.61,1.7,4.59,4.59,0,0,0-.58,2.27,4.71,4.71,0,0,0,.58,2.28,4.46,4.46,0,0,0,1.59,1.72,4.13,4.13,0,0,0,2.25.65,4.75,4.75,0,0,0,2.17-.52,5.3,5.3,0,0,0,1.78-1.41v1.42a5.79,5.79,0,0,1-3.9,1.49,5.4,5.4,0,0,1-4.81-2.79A5.81,5.81,0,0,1,167,48.5a5.54,5.54,0,0,1,.73-2.82,5.29,5.29,0,0,1,2-2,5.45,5.45,0,0,1,2.82-.74A5.61,5.61,0,0,1,176.31,44.24Z"/><path class="cls-2" d="M180.1,38.61a.94.94,0,0,1,.68.28.91.91,0,0,1,.28.68.94.94,0,0,1-1,1,1,1,0,0,1-.95-1,.94.94,0,0,1,.27-.67A.92.92,0,0,1,180.1,38.61Zm.51,4.54V53.89h-1V43.15Z"/><path class="cls-2" d="M194.06,43.15V53.89H193V52h0a4.07,4.07,0,0,1-1.72,1.58,5.2,5.2,0,0,1-2.38.59,5.12,5.12,0,0,1-2.79-.76,5.05,5.05,0,0,1-1.86-2,6.69,6.69,0,0,1-.28-5.07A5,5,0,0,1,185,44.49a4.65,4.65,0,0,1,1.66-1.16,5.4,5.4,0,0,1,2.16-.41,5.27,5.27,0,0,1,2.36.54A4.63,4.63,0,0,1,193,45h0V43.15Zm-5.28.74a3.73,3.73,0,0,0-1.67.38,4.09,4.09,0,0,0-1.33,1,4.87,4.87,0,0,0-.86,1.48,4.72,4.72,0,0,0-.31,1.69,5.3,5.3,0,0,0,.53,2.33,4.27,4.27,0,0,0,1.48,1.72,4,4,0,0,0,2.23.65,4,4,0,0,0,2.28-.65,4.13,4.13,0,0,0,1.46-1.76,5.93,5.93,0,0,0,.49-2.41,5,5,0,0,0-.3-1.73,4.3,4.3,0,0,0-.88-1.42,4,4,0,0,0-1.36-1A4.53,4.53,0,0,0,188.78,43.89Z"/><path class="cls-2" d="M214.18,48.61h-9.33a5,5,0,0,0,.56,2.4A4,4,0,0,0,207,52.6a4.48,4.48,0,0,0,2.19.55,3.85,3.85,0,0,0,2.22-.67A4.75,4.75,0,0,0,213,50.71l.88.51A5.26,5.26,0,0,1,209,54.13a4.95,4.95,0,0,1-4.57-2.82,6.15,6.15,0,0,1-.65-2.81,6,6,0,0,1,.66-2.79,5.08,5.08,0,0,1,1.84-2,5.3,5.3,0,0,1,5.47,0,5.06,5.06,0,0,1,1.79,2.07A6.65,6.65,0,0,1,214.18,48.61Zm-9.33-1h8.29a4.57,4.57,0,0,0-.69-1.86A4.32,4.32,0,0,0,211,44.41a3.81,3.81,0,0,0-2-.52,4.1,4.1,0,0,0-2,.51,4.41,4.41,0,0,0-1.51,1.37A3.94,3.94,0,0,0,204.85,47.64Z"/><path class="cls-2" d="M217.76,43.15v1.68h.05a3.5,3.5,0,0,1,1.31-1.41,3.61,3.61,0,0,1,1.87-.5,3.69,3.69,0,0,1,2.13.53A2.75,2.75,0,0,1,224.21,45a7.8,7.8,0,0,1,.32,2.44v6.49h-1.05V47.4a8.13,8.13,0,0,0-.17-1.86,2,2,0,0,0-.74-1.2,2.64,2.64,0,0,0-1.67-.45,2.69,2.69,0,0,0-2,.68,3.35,3.35,0,0,0-.94,1.71,9.8,9.8,0,0,0-.25,2.31v5.3h-1V43.15Z"/><path class="cls-2" d="M244.84,48.12h-7.7l-2.35,5.77h-1.15L241,35.77l7.32,18.12h-1.14Zm-.42-1L241,38.61l-3.44,8.47Z"/><path class="cls-2" d="M251.28,43.15v1.39h.05a2.39,2.39,0,0,1,2.33-1.62,2.75,2.75,0,0,1,1.13.25l-.55.93a1.58,1.58,0,0,0-.75-.21,1.73,1.73,0,0,0-1.45.61,2.85,2.85,0,0,0-.62,1.44,12.2,12.2,0,0,0-.14,1.93v6h-1.05V43.15Z"/><path class="cls-2" d="M266.15,43.15v17h-1V52h0a4.26,4.26,0,0,1-1.76,1.55,5.41,5.41,0,0,1-2.39.55,5.27,5.27,0,0,1-2.77-.72,4.76,4.76,0,0,1-1.84-2,6.07,6.07,0,0,1-.64-2.82,6.67,6.67,0,0,1,.36-2.22,5.51,5.51,0,0,1,1.06-1.82,4.64,4.64,0,0,1,1.69-1.23,5.4,5.4,0,0,1,4.57.14,4.07,4.07,0,0,1,1.72,1.58h0V43.15Zm-5.21.74a3.92,3.92,0,0,0-2.28.66,4.13,4.13,0,0,0-1.46,1.78,5.92,5.92,0,0,0-.5,2.42,4.68,4.68,0,0,0,.54,2.25,3.83,3.83,0,0,0,1.51,1.58,4.33,4.33,0,0,0,2.23.57,4,4,0,0,0,2.18-.62,4.24,4.24,0,0,0,1.48-1.66,4.93,4.93,0,0,0,.53-2.24,5.26,5.26,0,0,0-.52-2.33,4.28,4.28,0,0,0-1.48-1.75A3.85,3.85,0,0,0,260.94,43.89Z"/><path class="cls-2" d="M276.24,43.15h1.05v6.44a12.52,12.52,0,0,1-.11,1.8,2.94,2.94,0,0,1-.54,1.29,3.43,3.43,0,0,1-1.4,1.08,4.61,4.61,0,0,1-3.62,0,3.37,3.37,0,0,1-1.4-1.08,2.79,2.79,0,0,1-.44-.9,4.32,4.32,0,0,1-.18-1c0-.32,0-.73,0-1.21V43.15h1v6.07a11.67,11.67,0,0,0,.09,1.55,3.62,3.62,0,0,0,.37,1.22,2.07,2.07,0,0,0,.86.85,3.28,3.28,0,0,0,1.5.31,2.34,2.34,0,0,0,2.28-1,6.5,6.5,0,0,0,.53-2.92Z"/><path class="cls-2" d="M281.63,38.61a.94.94,0,0,1,.68.28.91.91,0,0,1,.28.68.94.94,0,0,1-1,1,1,1,0,0,1-.95-1,.94.94,0,0,1,.27-.67A.92.92,0,0,1,281.63,38.61Zm.51,4.54V53.89h-1V43.15Z"/><path class="cls-2" d="M287.31,44.13v9.76h-1.05V44.13h-1.18v-1h1.18V39.31h1.05v3.84h1.88v1Z"/><path class="cls-2" d="M300.34,48.61H291a4.89,4.89,0,0,0,.57,2.4,3.93,3.93,0,0,0,1.54,1.59,4.52,4.52,0,0,0,2.2.55,3.85,3.85,0,0,0,2.22-.67,4.73,4.73,0,0,0,1.57-1.77l.88.51a5.29,5.29,0,0,1-2,2.15,5.37,5.37,0,0,1-2.83.76,4.95,4.95,0,0,1-4.56-2.82,6.36,6.36,0,0,1,0-5.6,5.1,5.1,0,0,1,1.85-2,5.28,5.28,0,0,1,5.46,0,5.09,5.09,0,0,1,1.8,2.07A6.65,6.65,0,0,1,300.34,48.61Zm-9.34-1h8.29a4.3,4.3,0,0,0-.69-1.86,4.23,4.23,0,0,0-1.45-1.37,3.75,3.75,0,0,0-1.95-.52,4.08,4.08,0,0,0-2,.51,4.45,4.45,0,0,0-1.52,1.37A3.94,3.94,0,0,0,291,47.64Z"/><path class="cls-2" d="M311.1,44.24v1.4a5,5,0,0,0-3.79-1.75,4.18,4.18,0,0,0-2.25.64,4.53,4.53,0,0,0-1.61,1.7,4.59,4.59,0,0,0-.58,2.27,4.82,4.82,0,0,0,.57,2.28A4.56,4.56,0,0,0,305,52.5a4.13,4.13,0,0,0,2.25.65,4.78,4.78,0,0,0,2.17-.52,5.4,5.4,0,0,0,1.78-1.41v1.42a5.79,5.79,0,0,1-3.91,1.49,5.4,5.4,0,0,1-4.8-2.79,5.81,5.81,0,0,1-.71-2.84,5.64,5.64,0,0,1,.72-2.82,5.46,5.46,0,0,1,4.82-2.76A5.61,5.61,0,0,1,311.1,44.24Z"/><path class="cls-2" d="M315.13,44.13v9.76h-1.05V44.13h-1.19v-1h1.19V39.31h1.05v3.84H317v1Z"/><path class="cls-2" d="M325.34,43.15h1.05v6.44a11.06,11.06,0,0,1-.12,1.8,2.83,2.83,0,0,1-.54,1.29,3.37,3.37,0,0,1-1.4,1.08,4.59,4.59,0,0,1-3.61,0,3.47,3.47,0,0,1-1.41-1.08,3,3,0,0,1-.44-.9,4.91,4.91,0,0,1-.17-1c0-.32,0-.73,0-1.21V43.15h1v6.07a11.67,11.67,0,0,0,.09,1.55,3.41,3.41,0,0,0,.37,1.22,2,2,0,0,0,.86.85,3.26,3.26,0,0,0,1.49.31,2.33,2.33,0,0,0,2.28-1,6.35,6.35,0,0,0,.54-2.92Z"/><path class="cls-2" d="M330.85,43.15v1.39h0a2.38,2.38,0,0,1,2.32-1.62,2.76,2.76,0,0,1,1.14.25l-.56.93a1.52,1.52,0,0,0-.74-.21,1.75,1.75,0,0,0-1.46.61,3,3,0,0,0-.62,1.44,13.63,13.63,0,0,0-.13,1.93v6H329.8V43.15Z"/><path class="cls-2" d="M345.71,43.15V53.89h-1V52h-.05a4,4,0,0,1-1.72,1.58,5.16,5.16,0,0,1-2.37.59,5.07,5.07,0,0,1-2.79-.76,4.92,4.92,0,0,1-1.86-2,6.28,6.28,0,0,1-.66-2.87,6.55,6.55,0,0,1,.37-2.2,5.31,5.31,0,0,1,1.06-1.76,4.69,4.69,0,0,1,1.67-1.16,5.4,5.4,0,0,1,2.16-.41,5.3,5.3,0,0,1,2.36.54A4.53,4.53,0,0,1,344.62,45h.05V43.15Zm-5.27.74a3.77,3.77,0,0,0-1.68.38,4,4,0,0,0-1.32,1,5.11,5.11,0,0,0-.87,1.48,4.94,4.94,0,0,0-.3,1.69,5.3,5.3,0,0,0,.52,2.33,4.3,4.3,0,0,0,1.49,1.72,3.89,3.89,0,0,0,2.22.65,3.91,3.91,0,0,0,3.74-2.41,5.77,5.77,0,0,0,.49-2.41,5,5,0,0,0-.3-1.73,4.12,4.12,0,0,0-.87-1.42,4,4,0,0,0-1.36-1A4.56,4.56,0,0,0,340.44,43.89Z"/><path class="cls-1" d="M28.81,2.84A30,30,0,0,0,15.39,0,30.8,30.8,0,0,0,4.75,1.79,21.86,21.86,0,0,0,0,4.33a50.82,50.82,0,0,1,2.71,5.88,19.91,19.91,0,0,1,12.9-4.38,20.14,20.14,0,0,1,10,2.43,19.69,19.69,0,0,1,7.23,7.32l5.35-4.29A23.81,23.81,0,0,0,28.81,2.84Z"/><path class="cls-1" d="M19.68,27.21v5.72H35a18.35,18.35,0,0,1-5.95,12.74,19.17,19.17,0,0,1-13.44,4.9,24.14,24.14,0,0,1-3.12-.27,36.9,36.9,0,0,1,1.95,6c.2,0,.38,0,.58,0q12.43,0,19.62-7.34t7.19-20v-1.8Z"/><polygon class="cls-2" points="74.99 9.46 62.9 41.1 47.13 0.03 40.19 0.03 62.9 55.81 78.34 17.68 74.99 9.46"/></g></g></svg>