<svg xmlns="http://www.w3.org/2000/svg" viewBox="0 0 293.58 31.28"><defs><style>.cls-1{fill:#fff;}</style></defs><title>valor-logo-white</title><g id="Layer_2" data-name="Layer 2"><g id="Contenido"><path class="cls-1" d="M66.56,15.82H78.05a23.9,23.9,0,0,1-.23,3.42,11.31,11.31,0,0,1-.85,3,9.88,9.88,0,0,1-1.78,2.67,13.32,13.32,0,0,1-4.67,3.24,14.3,14.3,0,0,1-5.65,1.17,13.3,13.3,0,0,1-5.32-1.1A14.46,14.46,0,0,1,52,20.71a13.12,13.12,0,0,1-1.1-5.28A13.58,13.58,0,0,1,52.8,8.37a14.22,14.22,0,0,1,12.28-7A13.57,13.57,0,0,1,73.63,4.3a17.64,17.64,0,0,1,3.26,3.41L75.48,8.82a14.23,14.23,0,0,0-2-2.43A13.06,13.06,0,0,0,71,4.53a11.45,11.45,0,0,0-2.84-1.16A12.28,12.28,0,0,0,65,3a11.64,11.64,0,0,0-6.1,1.72,12.93,12.93,0,0,0-4.55,4.57,11.67,11.67,0,0,0-1.7,6.06,12,12,0,0,0,1.67,6.14A12.55,12.55,0,0,0,58.8,26,12,12,0,0,0,65,27.67a12.61,12.61,0,0,0,8-3,9.7,9.7,0,0,0,1.86-2.08,8.07,8.07,0,0,0,1.06-2.38,11.85,11.85,0,0,0,.4-2.77H66.56Z"/><path class="cls-1" d="M86.49,16.05l8.93,12.88h-2L84.55,16.05h-.88V28.93H81.94V1.71h3.4A22.07,22.07,0,0,1,88.91,2a6.31,6.31,0,0,1,2.64,1.13A6.68,6.68,0,0,1,94.3,8.93a7.24,7.24,0,0,1-1,3.91,6.12,6.12,0,0,1-2.75,2.4A9.65,9.65,0,0,1,86.49,16.05Zm-2.82-1.64h2.21a14,14,0,0,0,2.72-.22,4.6,4.6,0,0,0,2.05-1,5.22,5.22,0,0,0,1.91-4.29,6.49,6.49,0,0,0-.32-2,5.26,5.26,0,0,0-1-1.73A4.51,4.51,0,0,0,89.67,4a13.67,13.67,0,0,0-4.88-.62H83.67Z"/><path class="cls-1" d="M115.75,18.17V1.71h1.72v17a24.36,24.36,0,0,1-.3,4.29,7,7,0,0,1-1.54,3.15,8.84,8.84,0,0,1-3.32,2.35,10.42,10.42,0,0,1-8.15,0,9,9,0,0,1-3.33-2.35A7.11,7.11,0,0,1,99.29,23a24.36,24.36,0,0,1-.3-4.29v-17h1.73V18.17a28,28,0,0,0,.24,4.07,5.79,5.79,0,0,0,1.17,2.8,6.35,6.35,0,0,0,2.7,1.93,8.63,8.63,0,0,0,6.81,0,6.41,6.41,0,0,0,2.7-1.93,6,6,0,0,0,1.17-2.79A28.26,28.26,0,0,0,115.75,18.17Z"/><path class="cls-1" d="M124.47,16V28.93h-1.72V1.71h4.8a16.15,16.15,0,0,1,3.34.3,5.85,5.85,0,0,1,2.54,1.29,6.94,6.94,0,0,1,2.46,5.6,8,8,0,0,1-.59,3,5.92,5.92,0,0,1-1.68,2.38q-2,1.74-6.07,1.74Zm0-1.63h3.15a10.53,10.53,0,0,0,2.66-.3,4.92,4.92,0,0,0,2.1-1.18,5.27,5.27,0,0,0,1.77-4.08,5.91,5.91,0,0,0-.53-2.5,4.74,4.74,0,0,0-1.52-1.9,4.52,4.52,0,0,0-2-.89,16.19,16.19,0,0,0-2.74-.2h-2.86Z"/><path class="cls-1" d="M152,1.35a13.77,13.77,0,0,1,7,1.89,14.18,14.18,0,0,1,5.18,5.11,13.55,13.55,0,0,1,0,13.94A14.26,14.26,0,0,1,159,27.4a13.9,13.9,0,0,1-14,0,14.26,14.26,0,0,1-5.18-5.11,13.29,13.29,0,0,1-1.93-7,13.46,13.46,0,0,1,1.1-5.36A14.27,14.27,0,0,1,142,5.47a14.54,14.54,0,0,1,4.54-3A13.85,13.85,0,0,1,152,1.35ZM152,3a12,12,0,0,0-6.17,1.68,12.45,12.45,0,0,0-4.53,4.53,12.08,12.08,0,0,0,0,12.29A12.61,12.61,0,0,0,145.78,26a12.2,12.2,0,0,0,12.34,0,12.66,12.66,0,0,0,4.54-4.54,12,12,0,0,0,.7-10.86,12.76,12.76,0,0,0-2.68-4,12.6,12.6,0,0,0-4-2.67A11.88,11.88,0,0,0,152,3Z"/><path class="cls-1" d="M182.56,1.71l7.52,18.87,7.64-18.87h4.5L190,31,178.06,1.71Z"/><path class="cls-1" d="M219,22.32H207.34l-3,6.61h-4.43L213.35,0l13,28.93h-4.5Zm-1.67-3.86-4-9.25-4.23,9.25Z"/><path class="cls-1" d="M233.53,1.71V25.07h8v3.86H229.42V1.71Z"/><path class="cls-1" d="M242.64,15.2a13.36,13.36,0,0,1,4.21-9.88A13.91,13.91,0,0,1,256.94,1.2a13.64,13.64,0,0,1,10,4.16,13.62,13.62,0,0,1,4.17,10,13.42,13.42,0,0,1-4.19,10,14.38,14.38,0,0,1-19.64.46A13.38,13.38,0,0,1,242.64,15.2Zm4.14.05a9.82,9.82,0,0,0,3,7.42,10.05,10.05,0,0,0,14.2-.05,10,10,0,0,0,2.94-7.3A10,10,0,0,0,264,8a10.15,10.15,0,0,0-14.33,0A9.83,9.83,0,0,0,246.78,15.25Z"/><path class="cls-1" d="M285.16,17.33l8.42,11.6h-5l-7.78-11.14H280V28.93h-4.1V1.71h4.81q5.38,0,7.79,2a7.46,7.46,0,0,1,2.65,6,7.76,7.76,0,0,1-1.66,5A7.34,7.34,0,0,1,285.16,17.33ZM280,14.21h1.31c3.89,0,5.83-1.48,5.83-4.46q0-4.19-5.67-4.18H280Z"/><path class="cls-1" d="M16,1.57A16.77,16.77,0,0,0,8.54,0a17,17,0,0,0-5.9,1A12.83,12.83,0,0,0,0,2.4,28.08,28.08,0,0,1,1.5,5.67,11,11,0,0,1,8.66,3.24a11.09,11.09,0,0,1,5.58,1.35,10.85,10.85,0,0,1,4,4.06l3-2.38A13.36,13.36,0,0,0,16,1.57Z"/><path class="cls-1" d="M10.92,15.1v3.18h8.51a10.22,10.22,0,0,1-3.31,7.07,10.64,10.64,0,0,1-7.46,2.72,13.91,13.91,0,0,1-1.73-.15A19.43,19.43,0,0,1,8,31.26l.33,0q6.9,0,10.89-4.07c2.65-2.71,4-6.42,4-11.11v-1Z"/><polygon class="cls-1" points="41.62 5.25 34.91 22.81 26.16 0.02 22.31 0.02 34.91 30.98 43.48 9.81 41.62 5.25"/></g></g></svg>