<?xml version="1.0" encoding="utf-8"?>
<!-- Generator: Adobe Illustrator 24.1.0, SVG Export Plug-In . SVG Version: 6.00 Build 0)  -->
<svg version="1.1" id="Layer_1" xmlns="http://www.w3.org/2000/svg" xmlns:xlink="http://www.w3.org/1999/xlink" x="0px" y="0px"
	 viewBox="0 0 232 74" style="enable-background:new 0 0 232 74;" xml:space="preserve">
<style type="text/css">
	.st0{fill:#A2A1A1;}
	.st1{fill:#AA182C;}
</style>
<g>
	<path class="st0" d="M61.79,46.93h-3.9L43.63,14.04h-0.04l-3.3,8.48l3.31,7.7l1.7,3.93h-0.01l4.63,10.77
		c0.35,1.26-0.42,1.9-2.14,2.01h-1.21v0.34v0.3h4.21h11.01V46.93z"/>
	<path class="st1" d="M44.68,3.64L27.03,47.99L18.65,30.8c-1.44-2.76,1-3.37,2.65-3.48h1.31l0.02-0.82h-5.88v0H2.92v0.82h4.95
		l14.37,32.69l-4.11,10.33l1.4,0.56L46.07,4.19L44.68,3.64z"/>
	<g>
		<path class="st1" d="M116.18,59.98c0.19-0.19,0.41-0.28,0.67-0.28c0.26,0,0.49,0.09,0.67,0.28c0.19,0.19,0.28,0.41,0.28,0.67
			c0,0.26-0.09,0.49-0.28,0.67c-0.19,0.19-0.41,0.28-0.67,0.28c-0.26,0-0.49-0.09-0.67-0.28c-0.19-0.19-0.28-0.41-0.28-0.67
			C115.9,60.4,115.99,60.17,116.18,59.98"/>
		<path class="st1" d="M165.53,59.98c0.19-0.19,0.41-0.28,0.67-0.28c0.26,0,0.49,0.09,0.67,0.28c0.19,0.19,0.28,0.41,0.28,0.67
			c0,0.26-0.09,0.49-0.28,0.67c-0.19,0.19-0.41,0.28-0.67,0.28c-0.26,0-0.49-0.09-0.67-0.28c-0.19-0.19-0.28-0.41-0.28-0.67
			C165.25,60.4,165.35,60.17,165.53,59.98"/>
	</g>
	<g>
		<g>
			<rect x="121.84" y="56.23" class="st0" width="0.44" height="6.47"/>
			<path class="st0" d="M123.45,62.7v-4.65h0.44v0.78c0.13-0.28,0.33-0.49,0.6-0.65c0.27-0.17,0.57-0.25,0.89-0.25
				c0.46,0,0.85,0.15,1.17,0.45c0.33,0.3,0.49,0.67,0.49,1.09v3.23h-0.44v-3.23c0-0.32-0.12-0.59-0.36-0.82
				c-0.24-0.22-0.53-0.34-0.86-0.34c-0.36,0-0.69,0.12-0.97,0.37c-0.28,0.26-0.46,0.57-0.52,0.95v3.07H123.45z"/>
			<path class="st0" d="M128.14,62.7v-4.65h0.44v0.78c0.13-0.28,0.33-0.49,0.6-0.65c0.27-0.17,0.57-0.25,0.89-0.25
				c0.46,0,0.85,0.15,1.17,0.45c0.33,0.3,0.49,0.67,0.49,1.09v3.23h-0.44v-3.23c0-0.32-0.12-0.59-0.36-0.82
				c-0.24-0.22-0.53-0.34-0.86-0.34c-0.36,0-0.69,0.12-0.97,0.37c-0.28,0.26-0.46,0.57-0.52,0.95v3.07H128.14z"/>
			<path class="st0" d="M133.13,62.12c-0.4-0.44-0.6-1.02-0.6-1.74c0-0.75,0.2-1.35,0.6-1.81c0.39-0.45,0.92-0.68,1.58-0.68
				c0.65,0,1.18,0.23,1.58,0.68c0.39,0.46,0.59,1.06,0.59,1.81c0,0.73-0.2,1.31-0.59,1.74c-0.4,0.44-0.93,0.65-1.58,0.65
				C134.05,62.78,133.53,62.56,133.13,62.12 M135.98,61.86c0.31-0.37,0.47-0.87,0.47-1.48c0-0.64-0.16-1.15-0.47-1.53
				c-0.32-0.39-0.74-0.58-1.27-0.58c-0.53,0-0.95,0.19-1.27,0.58c-0.32,0.38-0.48,0.89-0.48,1.53c0,0.62,0.16,1.11,0.48,1.48
				c0.31,0.37,0.73,0.56,1.27,0.56C135.24,62.42,135.66,62.23,135.98,61.86"/>
			<polygon class="st0" points="138.95,62.7 137.21,58.06 137.62,58.06 139.2,62.2 140.69,58.06 141.11,58.06 139.41,62.7 			"/>
			<path class="st0" d="M141.84,62.48c-0.33-0.26-0.49-0.57-0.49-0.94c0-0.35,0.16-0.65,0.48-0.92c0.31-0.26,0.71-0.41,1.18-0.46
				c0.46-0.04,0.83-0.12,1.12-0.22c0.3-0.1,0.45-0.22,0.45-0.36v-0.41c0-0.24-0.13-0.44-0.39-0.61c-0.26-0.17-0.57-0.25-0.94-0.25
				c-0.35,0-0.65,0.08-0.9,0.24c-0.25,0.17-0.37,0.36-0.37,0.59v0.24h-0.41V59.1c0-0.31,0.16-0.58,0.49-0.8
				c0.33-0.22,0.73-0.33,1.2-0.33c0.48,0,0.89,0.11,1.23,0.32c0.34,0.21,0.51,0.47,0.51,0.76v2.82c0,0.18,0.04,0.34,0.12,0.47
				c0.08,0.13,0.18,0.2,0.3,0.2c0.04,0,0.07,0,0.1-0.01c0.03-0.01,0.05-0.02,0.06-0.03v0.21c-0.11,0.05-0.25,0.08-0.41,0.08
				s-0.31-0.07-0.44-0.22c-0.12-0.15-0.17-0.32-0.17-0.52c-0.09,0.25-0.27,0.45-0.56,0.6c-0.28,0.15-0.61,0.23-0.98,0.23
				C142.55,62.87,142.16,62.74,141.84,62.48 M144.03,62.16c0.3-0.25,0.48-0.56,0.55-0.95v-1.07c-0.1,0.09-0.29,0.16-0.56,0.22
				c-0.26,0.06-0.59,0.11-1.01,0.14c-0.34,0.03-0.63,0.15-0.86,0.35c-0.23,0.2-0.35,0.43-0.35,0.7c0,0.28,0.12,0.51,0.36,0.7
				c0.23,0.2,0.52,0.3,0.85,0.3C143.39,62.54,143.73,62.41,144.03,62.16"/>
			<path class="st0" d="M146.52,62.17c-0.43-0.49-0.64-1.09-0.64-1.79c0-0.68,0.21-1.27,0.64-1.76c0.43-0.49,0.95-0.73,1.56-0.73
				c0.5,0,0.93,0.15,1.29,0.45c0.36,0.31,0.53,0.67,0.53,1.09h-0.44c0-0.31-0.13-0.57-0.4-0.79c-0.27-0.22-0.6-0.33-0.98-0.33
				c-0.49,0-0.9,0.2-1.25,0.6c-0.34,0.41-0.51,0.9-0.51,1.46c0,0.58,0.17,1.08,0.51,1.5c0.35,0.41,0.77,0.62,1.25,0.62
				c0.38,0,0.7-0.11,0.96-0.34c0.27-0.23,0.4-0.49,0.4-0.81h0.46c0,0.43-0.18,0.8-0.53,1.1c-0.36,0.3-0.79,0.46-1.29,0.46
				C147.47,62.91,146.94,62.66,146.52,62.17"/>
			<path class="st0" d="M150.63,56.23h0.44v0.67h-0.44V56.23z M150.63,58.06h0.44v4.65h-0.44V58.06z"/>
			<path class="st0" d="M152.54,62.12c-0.4-0.43-0.6-1.02-0.6-1.74c0-0.75,0.2-1.35,0.6-1.81c0.39-0.45,0.92-0.68,1.58-0.68
				c0.65,0,1.18,0.23,1.58,0.68c0.39,0.46,0.59,1.06,0.59,1.81c0,0.73-0.2,1.31-0.59,1.74c-0.4,0.44-0.93,0.66-1.58,0.66
				C153.46,62.78,152.94,62.56,152.54,62.12 M155.39,61.86c0.31-0.37,0.47-0.86,0.47-1.48c0-0.64-0.16-1.15-0.47-1.53
				c-0.32-0.39-0.74-0.58-1.27-0.58c-0.53,0-0.95,0.19-1.27,0.58c-0.32,0.38-0.48,0.89-0.48,1.53c0,0.62,0.16,1.11,0.48,1.48
				c0.31,0.37,0.73,0.56,1.27,0.56C154.65,62.42,155.07,62.23,155.39,61.86 M154.36,55.83h0.65l-0.73,1.66h-0.31L154.36,55.83z"/>
			<path class="st0" d="M157.18,62.7v-4.65h0.44v0.78c0.13-0.28,0.33-0.49,0.6-0.65c0.27-0.17,0.57-0.25,0.89-0.25
				c0.46,0,0.85,0.15,1.17,0.45c0.33,0.3,0.49,0.67,0.49,1.09v3.23h-0.44v-3.23c0-0.32-0.12-0.59-0.36-0.82
				c-0.24-0.22-0.53-0.34-0.86-0.34c-0.36,0-0.69,0.12-0.97,0.37c-0.28,0.26-0.46,0.57-0.52,0.95v3.07H157.18z"/>
		</g>
		<g>
			<path class="st0" d="M75.41,56.23h2.56c0.68,0,1.27,0.31,1.76,0.93c0.48,0.61,0.72,1.35,0.72,2.23c0,0.92-0.24,1.7-0.72,2.34
				c-0.49,0.65-1.07,0.97-1.76,0.97h-2.56V56.23z M77.97,62.29c0.56,0,1.04-0.28,1.44-0.85c0.4-0.57,0.6-1.25,0.6-2.05
				c0-0.76-0.2-1.4-0.6-1.93c-0.4-0.53-0.88-0.8-1.44-0.8h-2.13v5.63H77.97z"/>
			<path class="st0" d="M81.54,62.19c-0.38-0.46-0.57-1.06-0.57-1.81c0-0.75,0.19-1.35,0.57-1.81c0.38-0.45,0.88-0.68,1.51-0.68
				c0.62,0,1.13,0.21,1.51,0.62c0.38,0.41,0.57,0.97,0.57,1.66v0.21h-3.71c0,0.63,0.15,1.14,0.45,1.52c0.3,0.38,0.69,0.57,1.19,0.57
				c0.37,0,0.71-0.1,1-0.3c0.3-0.2,0.52-0.47,0.63-0.8h0.44c-0.07,0.43-0.3,0.78-0.7,1.07c-0.39,0.28-0.85,0.42-1.38,0.42
				C82.42,62.87,81.92,62.64,81.54,62.19 M84.68,59.97V59.8c-0.04-0.43-0.21-0.79-0.52-1.09c-0.32-0.29-0.69-0.44-1.11-0.44
				c-0.42,0-0.79,0.15-1.1,0.45c-0.32,0.31-0.5,0.68-0.54,1.12v0.12H84.68z"/>
			<path class="st0" d="M86.06,62.39c-0.35-0.29-0.52-0.64-0.52-1.06h0.4c0,0.31,0.13,0.58,0.4,0.81c0.27,0.22,0.59,0.33,0.97,0.33
				c0.44,0,0.79-0.1,1.06-0.29c0.26-0.2,0.39-0.47,0.39-0.8c0-0.25-0.14-0.46-0.41-0.63c-0.28-0.17-0.65-0.27-1.11-0.32
				c-0.49-0.04-0.89-0.18-1.18-0.42c-0.3-0.23-0.45-0.52-0.45-0.86c0-0.39,0.15-0.68,0.45-0.89c0.3-0.21,0.72-0.32,1.25-0.32
				c0.52,0,0.93,0.11,1.23,0.34c0.31,0.23,0.47,0.53,0.47,0.91h-0.41c-0.05-0.28-0.19-0.51-0.41-0.67
				c-0.23-0.16-0.52-0.24-0.87-0.24c-0.39,0-0.71,0.08-0.94,0.24c-0.23,0.16-0.35,0.37-0.35,0.63c0,0.25,0.14,0.46,0.43,0.63
				c0.28,0.17,0.65,0.27,1.11,0.32c0.49,0.04,0.88,0.19,1.18,0.44c0.29,0.25,0.44,0.56,0.44,0.93c0,0.42-0.17,0.75-0.51,0.99
				c-0.34,0.25-0.79,0.37-1.35,0.37C86.82,62.82,86.41,62.68,86.06,62.39"/>
			<path class="st0" d="M90.09,62.48c-0.33-0.26-0.49-0.57-0.49-0.94c0-0.35,0.16-0.65,0.48-0.92c0.31-0.26,0.71-0.41,1.18-0.46
				c0.46-0.04,0.83-0.12,1.12-0.22c0.3-0.1,0.45-0.22,0.45-0.36v-0.41c0-0.24-0.13-0.44-0.39-0.61c-0.26-0.17-0.57-0.25-0.94-0.25
				c-0.35,0-0.65,0.08-0.9,0.24c-0.25,0.17-0.37,0.36-0.37,0.59v0.24h-0.41V59.1c0-0.31,0.16-0.58,0.49-0.8
				c0.33-0.22,0.73-0.33,1.2-0.33c0.48,0,0.89,0.11,1.23,0.32c0.34,0.21,0.51,0.47,0.51,0.76v2.82c0,0.18,0.04,0.34,0.12,0.47
				c0.08,0.13,0.18,0.2,0.3,0.2c0.04,0,0.07,0,0.1-0.01c0.03-0.01,0.05-0.02,0.06-0.03v0.21c-0.11,0.05-0.25,0.08-0.41,0.08
				c-0.17,0-0.31-0.07-0.44-0.22c-0.12-0.15-0.17-0.32-0.17-0.52c-0.09,0.25-0.27,0.45-0.56,0.6c-0.28,0.15-0.61,0.23-0.98,0.23
				C90.8,62.87,90.41,62.74,90.09,62.48 M92.28,62.16c0.3-0.25,0.48-0.56,0.55-0.95v-1.07c-0.1,0.09-0.29,0.16-0.56,0.22
				c-0.26,0.06-0.59,0.11-1.01,0.14c-0.34,0.03-0.63,0.15-0.86,0.35c-0.23,0.2-0.35,0.43-0.35,0.7c0,0.28,0.12,0.51,0.36,0.7
				c0.23,0.2,0.52,0.3,0.85,0.3C91.64,62.54,91.98,62.41,92.28,62.16"/>
			<path class="st0" d="M94.44,62.7v-4.65h0.44v1.05c0.12-0.33,0.3-0.61,0.55-0.82c0.25-0.2,0.51-0.31,0.79-0.31h0.25v0.5
				c-0.02,0-0.05-0.01-0.08-0.02c-0.02-0.01-0.04-0.02-0.04-0.02c-0.34,0-0.65,0.14-0.93,0.43c-0.28,0.29-0.45,0.66-0.54,1.1v2.73
				H94.44z"/>
			<path class="st0" d="M97,62.7v-4.65h0.44v1.05c0.12-0.33,0.3-0.61,0.55-0.82c0.25-0.2,0.51-0.31,0.79-0.31h0.25v0.5
				c-0.02,0-0.05-0.01-0.08-0.02c-0.02-0.01-0.04-0.02-0.04-0.02c-0.34,0-0.65,0.14-0.93,0.43c-0.28,0.29-0.45,0.66-0.54,1.1v2.73
				H97z"/>
			<path class="st0" d="M99.87,62.12c-0.4-0.44-0.6-1.02-0.6-1.74c0-0.75,0.2-1.35,0.6-1.81c0.39-0.45,0.92-0.68,1.58-0.68
				c0.65,0,1.18,0.23,1.58,0.68c0.39,0.46,0.59,1.06,0.59,1.81c0,0.73-0.2,1.31-0.59,1.74c-0.4,0.44-0.93,0.65-1.58,0.65
				C100.79,62.78,100.26,62.56,99.87,62.12 M102.72,61.86c0.31-0.37,0.47-0.87,0.47-1.48c0-0.64-0.16-1.15-0.47-1.53
				c-0.32-0.39-0.74-0.58-1.27-0.58c-0.53,0-0.95,0.19-1.27,0.58c-0.32,0.38-0.48,0.89-0.48,1.53c0,0.62,0.16,1.11,0.48,1.48
				c0.31,0.37,0.73,0.56,1.27,0.56C101.98,62.42,102.4,62.23,102.72,61.86"/>
			<rect x="104.5" y="56.23" class="st0" width="0.44" height="6.47"/>
			<rect x="106.12" y="56.23" class="st0" width="0.44" height="6.47"/>
			<path class="st0" d="M108.04,62.12c-0.4-0.44-0.6-1.02-0.6-1.74c0-0.75,0.2-1.35,0.6-1.81c0.39-0.45,0.92-0.68,1.58-0.68
				c0.65,0,1.18,0.23,1.58,0.68c0.39,0.46,0.59,1.06,0.59,1.81c0,0.73-0.2,1.31-0.59,1.74c-0.4,0.44-0.93,0.65-1.58,0.65
				C108.96,62.78,108.43,62.56,108.04,62.12 M110.88,61.86c0.31-0.37,0.47-0.87,0.47-1.48c0-0.64-0.16-1.15-0.47-1.53
				c-0.32-0.39-0.74-0.58-1.27-0.58c-0.53,0-0.95,0.19-1.27,0.58c-0.32,0.38-0.48,0.89-0.48,1.53c0,0.62,0.16,1.11,0.48,1.48
				c0.31,0.37,0.73,0.56,1.27,0.56C110.14,62.42,110.56,62.23,110.88,61.86"/>
		</g>
		<g>
			<path class="st0" d="M171.75,62.23c-0.44-0.41-0.67-0.92-0.67-1.52h0.44c0,0.48,0.18,0.89,0.54,1.23
				c0.36,0.34,0.78,0.51,1.29,0.51c0.55,0,1.01-0.15,1.41-0.44c0.39-0.29,0.58-0.64,0.58-1.06c0-0.36-0.17-0.65-0.51-0.89
				c-0.34-0.24-0.79-0.39-1.35-0.44c-0.69-0.06-1.24-0.25-1.66-0.59c-0.41-0.33-0.62-0.75-0.62-1.23c0-0.48,0.21-0.89,0.63-1.23
				c0.42-0.34,0.93-0.51,1.53-0.51c0.64,0,1.19,0.18,1.65,0.54c0.45,0.36,0.68,0.79,0.68,1.29h-0.44c0-0.39-0.19-0.72-0.56-0.99
				c-0.36-0.28-0.81-0.41-1.33-0.41c-0.47,0-0.88,0.13-1.22,0.39c-0.34,0.26-0.5,0.57-0.5,0.94c0,0.36,0.17,0.67,0.52,0.92
				c0.36,0.25,0.83,0.4,1.41,0.45c0.67,0.06,1.21,0.25,1.61,0.58c0.4,0.33,0.6,0.73,0.6,1.21c0,0.52-0.24,0.97-0.71,1.34
				c-0.47,0.37-1.04,0.56-1.71,0.56C172.71,62.87,172.18,62.66,171.75,62.23"/>
			<path class="st0" d="M176.82,62.12c-0.4-0.44-0.6-1.02-0.6-1.74c0-0.75,0.2-1.35,0.6-1.81c0.39-0.45,0.92-0.68,1.58-0.68
				c0.65,0,1.18,0.23,1.58,0.68c0.39,0.46,0.59,1.06,0.59,1.81c0,0.73-0.2,1.31-0.59,1.74c-0.4,0.44-0.93,0.65-1.58,0.65
				C177.74,62.78,177.21,62.56,176.82,62.12 M179.66,61.86c0.31-0.37,0.47-0.87,0.47-1.48c0-0.64-0.16-1.15-0.47-1.53
				c-0.32-0.39-0.74-0.58-1.27-0.58c-0.53,0-0.95,0.19-1.27,0.58c-0.32,0.38-0.48,0.89-0.48,1.53c0,0.62,0.16,1.11,0.48,1.48
				c0.31,0.37,0.73,0.56,1.27,0.56C178.92,62.42,179.34,62.23,179.66,61.86"/>
			<path class="st0" d="M181.59,62.39c-0.35-0.29-0.52-0.64-0.52-1.06h0.4c0,0.31,0.13,0.58,0.4,0.81c0.27,0.22,0.59,0.33,0.97,0.33
				c0.43,0,0.79-0.1,1.06-0.29c0.26-0.2,0.39-0.47,0.39-0.8c0-0.25-0.14-0.46-0.41-0.63c-0.28-0.17-0.65-0.27-1.11-0.32
				c-0.49-0.04-0.89-0.18-1.18-0.42c-0.3-0.23-0.45-0.52-0.45-0.86c0-0.39,0.15-0.68,0.45-0.89c0.3-0.21,0.72-0.32,1.26-0.32
				c0.52,0,0.93,0.11,1.23,0.34c0.31,0.23,0.47,0.53,0.47,0.91h-0.41c-0.05-0.28-0.19-0.51-0.42-0.67
				c-0.23-0.16-0.52-0.24-0.87-0.24c-0.39,0-0.71,0.08-0.94,0.24c-0.23,0.16-0.35,0.37-0.35,0.63c0,0.25,0.14,0.46,0.43,0.63
				c0.28,0.17,0.65,0.27,1.11,0.32c0.49,0.04,0.88,0.19,1.18,0.44c0.29,0.25,0.44,0.56,0.44,0.93c0,0.42-0.17,0.75-0.51,0.99
				c-0.34,0.25-0.79,0.37-1.35,0.37C182.35,62.82,181.94,62.68,181.59,62.39"/>
			<path class="st0" d="M185.8,62.57c-0.17-0.19-0.25-0.42-0.25-0.7v-3.48h-0.67v-0.34h0.67v-1.32h0.44v1.32h0.63v0.34h-0.63v3.48
				c0,0.18,0.05,0.34,0.14,0.47c0.09,0.13,0.2,0.2,0.33,0.2c0.14,0,0.25-0.03,0.34-0.08v0.32c-0.16,0.06-0.28,0.09-0.37,0.09
				C186.19,62.87,185.98,62.77,185.8,62.57"/>
			<path class="st0" d="M187.63,62.19c-0.38-0.46-0.57-1.06-0.57-1.81c0-0.75,0.19-1.35,0.57-1.81c0.38-0.45,0.88-0.68,1.51-0.68
				c0.63,0,1.13,0.21,1.51,0.62c0.38,0.41,0.57,0.97,0.57,1.66v0.21h-3.71c0,0.63,0.15,1.14,0.45,1.52c0.3,0.38,0.7,0.57,1.19,0.57
				c0.37,0,0.71-0.1,1-0.3c0.31-0.2,0.52-0.47,0.63-0.8h0.44c-0.07,0.43-0.3,0.78-0.7,1.07c-0.39,0.28-0.85,0.42-1.38,0.42
				C188.52,62.87,188.01,62.64,187.63,62.19 M190.78,59.97V59.8c-0.04-0.43-0.21-0.79-0.52-1.09c-0.32-0.29-0.69-0.44-1.11-0.44
				c-0.42,0-0.79,0.15-1.1,0.45c-0.32,0.31-0.5,0.68-0.54,1.12v0.12H190.78z"/>
			<path class="st0" d="M192.02,62.7v-4.65h0.44v0.78c0.13-0.28,0.33-0.49,0.6-0.65c0.27-0.17,0.57-0.25,0.89-0.25
				c0.46,0,0.85,0.15,1.17,0.45c0.33,0.3,0.49,0.67,0.49,1.09v3.23h-0.44v-3.23c0-0.32-0.12-0.59-0.36-0.82
				c-0.24-0.22-0.53-0.34-0.86-0.34c-0.36,0-0.69,0.12-0.97,0.37c-0.28,0.26-0.46,0.57-0.52,0.95v3.07H192.02z"/>
			<path class="st0" d="M196.71,56.23h0.44v0.67h-0.44V56.23z M196.71,58.06h0.44v4.65h-0.44V58.06z"/>
			<path class="st0" d="M199.42,62.57c-0.29-0.19-0.51-0.45-0.67-0.77v0.9h-0.44v-6.47h0.44v2.87c0.12-0.33,0.33-0.61,0.63-0.82
				c0.3-0.2,0.63-0.31,0.99-0.31c0.61,0,1.1,0.22,1.46,0.67c0.37,0.44,0.56,1.04,0.56,1.78c0,0.74-0.19,1.33-0.56,1.78
				c-0.36,0.44-0.85,0.67-1.46,0.67C200.04,62.87,199.72,62.77,199.42,62.57 M201.56,61.93c0.29-0.38,0.44-0.88,0.44-1.51
				c0-0.62-0.15-1.13-0.44-1.51c-0.3-0.38-0.69-0.57-1.18-0.57c-0.45,0-0.83,0.2-1.14,0.61c-0.32,0.4-0.48,0.89-0.48,1.46
				c0,0.57,0.16,1.06,0.48,1.46c0.31,0.41,0.69,0.61,1.14,0.61C200.87,62.5,201.26,62.31,201.56,61.93"/>
			<path class="st0" d="M203.29,56.23h0.44v0.67h-0.44V56.23z M203.29,58.06h0.44v4.65h-0.44V58.06z"/>
			<rect x="204.91" y="56.23" class="st0" width="0.44" height="6.47"/>
			<path class="st0" d="M206.52,56.23h0.44v0.67h-0.44V56.23z M206.52,58.06h0.44v4.65h-0.44V58.06z"/>
			<path class="st0" d="M208.42,62.1c-0.4-0.47-0.6-1.05-0.6-1.72c0-0.68,0.2-1.27,0.6-1.76c0.4-0.49,0.88-0.73,1.44-0.73
				c0.36,0,0.68,0.11,0.98,0.32c0.29,0.22,0.5,0.5,0.63,0.85v-2.82h0.44v6.47h-0.44v-0.95c-0.12,0.32-0.32,0.58-0.62,0.77
				c-0.29,0.2-0.62,0.29-0.99,0.29C209.3,62.82,208.82,62.58,208.42,62.1 M211,61.87c0.31-0.42,0.47-0.91,0.47-1.5
				c0-0.58-0.16-1.08-0.47-1.48c-0.32-0.41-0.7-0.62-1.15-0.62c-0.44,0-0.82,0.21-1.13,0.62c-0.31,0.41-0.47,0.9-0.47,1.48
				c0,0.58,0.16,1.08,0.47,1.5c0.31,0.41,0.69,0.62,1.13,0.62C210.3,62.5,210.68,62.29,211,61.87"/>
			<path class="st0" d="M213.19,62.48c-0.33-0.26-0.49-0.57-0.49-0.94c0-0.35,0.16-0.65,0.48-0.92c0.31-0.26,0.71-0.41,1.18-0.46
				c0.46-0.04,0.83-0.12,1.12-0.22c0.3-0.1,0.45-0.22,0.45-0.36v-0.41c0-0.24-0.13-0.44-0.39-0.61c-0.26-0.17-0.57-0.25-0.94-0.25
				c-0.35,0-0.65,0.08-0.9,0.24c-0.25,0.17-0.37,0.36-0.37,0.59v0.24h-0.41V59.1c0-0.31,0.16-0.58,0.49-0.8
				c0.34-0.22,0.73-0.33,1.2-0.33c0.48,0,0.89,0.11,1.23,0.32c0.34,0.21,0.51,0.47,0.51,0.76v2.82c0,0.18,0.04,0.34,0.12,0.47
				c0.08,0.13,0.18,0.2,0.3,0.2c0.04,0,0.07,0,0.1-0.01c0.03-0.01,0.05-0.02,0.06-0.03v0.21c-0.11,0.05-0.25,0.08-0.41,0.08
				c-0.17,0-0.31-0.07-0.44-0.22c-0.12-0.15-0.17-0.32-0.17-0.52c-0.09,0.25-0.27,0.45-0.56,0.6c-0.28,0.15-0.61,0.23-0.98,0.23
				C213.9,62.87,213.51,62.74,213.19,62.48 M215.39,62.16c0.3-0.25,0.48-0.56,0.55-0.95v-1.07c-0.1,0.09-0.29,0.16-0.56,0.22
				c-0.26,0.06-0.59,0.11-1.01,0.14c-0.34,0.03-0.63,0.15-0.86,0.35c-0.23,0.2-0.35,0.43-0.35,0.7c0,0.28,0.12,0.51,0.36,0.7
				c0.23,0.2,0.52,0.3,0.85,0.3C214.75,62.54,215.09,62.41,215.39,62.16"/>
			<path class="st0" d="M217.83,62.1c-0.4-0.47-0.6-1.05-0.6-1.72c0-0.68,0.2-1.27,0.6-1.76c0.4-0.49,0.88-0.73,1.44-0.73
				c0.36,0,0.68,0.11,0.98,0.32c0.29,0.22,0.5,0.5,0.63,0.85v-2.82h0.44v6.47h-0.44v-0.95c-0.12,0.32-0.32,0.58-0.62,0.77
				c-0.29,0.2-0.62,0.29-0.99,0.29C218.71,62.82,218.23,62.58,217.83,62.1 M220.41,61.87c0.31-0.42,0.47-0.91,0.47-1.5
				c0-0.58-0.16-1.08-0.47-1.48c-0.32-0.41-0.7-0.62-1.15-0.62c-0.44,0-0.82,0.21-1.13,0.62c-0.31,0.41-0.47,0.9-0.47,1.48
				c0,0.58,0.16,1.08,0.47,1.5c0.31,0.41,0.69,0.62,1.13,0.62C219.71,62.5,220.09,62.29,220.41,61.87"/>
		</g>
	</g>
	<g>
		<g>
			<polygon class="st1" points="157.24,22.83 157.24,23.32 153.91,23.32 161.09,42.13 168.42,23.32 165.29,23.32 165.29,22.83 
				171.92,22.83 171.92,23.32 168.94,23.32 159.15,48.49 158.14,48.49 148.56,23.32 145.65,23.32 145.65,22.83 			"/>
			<path class="st1" d="M181.76,47.86c-0.61,0.09-1.19,0.14-1.72,0.14c-1.18,0-2.05-0.21-2.62-0.62c-0.57-0.42-0.92-0.99-1.06-1.74
				h-0.07c-0.37,0.93-0.88,1.55-1.53,1.87c-0.65,0.32-1.59,0.49-2.81,0.49c-0.56,0-1.12-0.06-1.7-0.17c-0.58-0.12-1.11-0.3-1.6-0.55
				c-0.49-0.25-0.88-0.61-1.18-1.06c-0.3-0.45-0.45-1-0.45-1.65c0-0.67,0.13-1.23,0.4-1.68c0.27-0.45,0.61-0.83,1.04-1.15
				c0.43-0.31,0.91-0.57,1.46-0.76c0.54-0.2,1.1-0.39,1.68-0.57c0.95-0.28,1.72-0.51,2.31-0.71c0.59-0.2,1.05-0.4,1.37-0.63
				c0.32-0.22,0.55-0.47,0.68-0.75c0.13-0.28,0.19-0.64,0.19-1.08v-2.12c0-0.63-0.15-1.19-0.45-1.7c-0.3-0.51-0.87-0.76-1.7-0.76
				c-0.53,0-1,0.12-1.39,0.36c-0.39,0.24-0.59,0.69-0.59,1.34c0,0.07,0.01,0.19,0.04,0.36c0.02,0.17,0.05,0.37,0.07,0.57
				c0.02,0.21,0.05,0.41,0.07,0.59c0.02,0.19,0.03,0.31,0.03,0.38c0,0.35-0.08,0.62-0.24,0.82c-0.16,0.2-0.35,0.34-0.57,0.43
				c-0.22,0.09-0.45,0.14-0.7,0.16c-0.24,0.01-0.45,0.02-0.61,0.02c-0.23,0-0.47-0.02-0.71-0.05c-0.24-0.03-0.46-0.12-0.64-0.24
				c-0.19-0.13-0.34-0.31-0.47-0.54c-0.13-0.23-0.19-0.54-0.19-0.94c0-0.6,0.17-1.14,0.5-1.61c0.34-0.47,0.78-0.87,1.34-1.18
				c0.55-0.31,1.19-0.55,1.89-0.71c0.71-0.16,1.44-0.24,2.21-0.24c0.88,0,1.71,0.07,2.48,0.21c0.77,0.14,1.45,0.39,2.01,0.76
				c0.57,0.37,1.02,0.87,1.35,1.51c0.34,0.64,0.5,1.44,0.5,2.41v8.61c0,0.44,0.06,0.83,0.19,1.16c0.13,0.34,0.45,0.5,0.95,0.5
				c0.3,0,0.55-0.06,0.75-0.17c0.2-0.12,0.39-0.28,0.57-0.49l0.31,0.31C182.85,47.48,182.38,47.77,181.76,47.86 M176.09,38.94
				c-0.05,0.14-0.13,0.27-0.26,0.4c-0.13,0.13-0.35,0.27-0.68,0.43c-0.44,0.21-0.88,0.41-1.32,0.61c-0.44,0.2-0.83,0.45-1.18,0.75
				c-0.35,0.3-0.63,0.67-0.85,1.11c-0.22,0.44-0.33,1.01-0.33,1.7c0,0.28,0.02,0.6,0.05,0.97c0.04,0.37,0.13,0.73,0.28,1.08
				c0.15,0.35,0.38,0.64,0.68,0.88c0.3,0.24,0.72,0.37,1.25,0.37c0.3,0,0.6-0.07,0.88-0.21c0.29-0.14,0.55-0.35,0.78-0.64
				c0.23-0.29,0.42-0.67,0.56-1.15c0.14-0.47,0.21-1.05,0.21-1.72v-4.58H176.09z"/>
			<polygon class="st1" points="191.05,22.52 191.05,47.06 193.38,47.06 193.38,47.55 184.49,47.55 184.49,47.06 186.81,47.06 
				186.81,23.01 184.49,23.01 184.49,22.52 			"/>
			<path class="st1" d="M206.83,32.81c1.03,0.43,1.93,1,2.69,1.72c0.76,0.72,1.36,1.56,1.79,2.52c0.43,0.96,0.64,1.97,0.64,3.04
				c0,1.09-0.21,2.11-0.64,3.07c-0.43,0.96-1.02,1.8-1.79,2.52c-0.76,0.72-1.66,1.29-2.69,1.7c-1.03,0.42-2.15,0.62-3.35,0.62
				c-1.2,0-2.32-0.21-3.35-0.62c-1.03-0.42-1.93-0.98-2.69-1.7c-0.76-0.72-1.36-1.56-1.79-2.52c-0.43-0.96-0.64-1.98-0.64-3.07
				c0-1.06,0.21-2.08,0.64-3.04c0.43-0.96,1.02-1.8,1.79-2.52c0.76-0.72,1.66-1.29,2.69-1.72c1.03-0.43,2.15-0.64,3.35-0.64
				C204.68,32.17,205.8,32.39,206.83,32.81 M205.59,46.91c0.51-0.43,0.88-0.99,1.13-1.68c0.24-0.7,0.39-1.49,0.45-2.4
				c0.06-0.9,0.09-1.82,0.09-2.74c0-0.93-0.03-1.83-0.09-2.73c-0.06-0.89-0.21-1.68-0.45-2.38c-0.24-0.69-0.62-1.26-1.13-1.68
				c-0.51-0.43-1.21-0.64-2.12-0.64c-0.9,0-1.61,0.21-2.12,0.64c-0.51,0.43-0.88,0.99-1.13,1.68c-0.24,0.69-0.39,1.49-0.45,2.38
				c-0.06,0.89-0.09,1.8-0.09,2.73c0,0.93,0.03,1.84,0.09,2.74c0.06,0.9,0.21,1.7,0.45,2.4c0.24,0.69,0.62,1.26,1.13,1.68
				c0.51,0.43,1.21,0.64,2.12,0.64C204.38,47.55,205.08,47.34,205.59,46.91"/>
			<path class="st1" d="M220.62,32.66v2.92h0.07c0.42-0.88,0.98-1.64,1.68-2.27c0.71-0.64,1.64-0.95,2.79-0.95
				c0.97,0,1.76,0.26,2.36,0.78c0.6,0.52,0.9,1.24,0.9,2.17c0,0.69-0.17,1.24-0.5,1.63c-0.34,0.39-0.87,0.59-1.62,0.59
				c-0.53,0-1.02-0.11-1.46-0.33c-0.44-0.22-0.66-0.63-0.66-1.23c0-0.07,0.01-0.19,0.04-0.37c0.02-0.17,0.05-0.36,0.09-0.55
				c0.04-0.2,0.06-0.38,0.09-0.54c0.02-0.16,0.04-0.25,0.04-0.28c-0.02-0.19-0.06-0.33-0.1-0.43c-0.05-0.11-0.12-0.2-0.23-0.28
				c-0.1-0.08-0.26-0.12-0.47-0.12c-0.23,0-0.52,0.11-0.87,0.33c-0.35,0.22-0.67,0.54-0.97,0.96c-0.3,0.42-0.56,0.92-0.78,1.51
				c-0.22,0.59-0.33,1.26-0.33,2v8.89h2.74v0.49h-9.23v-0.49h2.26V33.14h-2.26v-0.49H220.62z"/>
		</g>
		<g>
			<path class="st1" d="M74.03,44.96c-2.04-2.32-3.06-5.13-3.06-8.42c0-3.29,1.02-6.11,3.06-8.46c2.06-2.32,4.54-3.48,7.42-3.48
				c2.19,0,4.11,0.66,5.78,1.99c1.67,1.3,2.67,2.96,3.02,4.98h-1.49c-0.27-1.58-1.11-2.9-2.5-3.94c-1.37-1.05-2.97-1.57-4.81-1.57
				c-2.49,0-4.6,1.02-6.34,3.06c-1.77,2.07-2.65,4.54-2.65,7.43c0,2.88,0.88,5.36,2.65,7.43c1.74,2.04,3.85,3.06,6.34,3.06
				c2.11,0,3.92-0.83,5.41-2.49c1.49-1.63,2.24-3.62,2.24-5.97V38h-7.65v-1.45h8.8v11.33H89.1V43.2c-0.55,1.58-1.53,2.85-2.95,3.79
				c-1.39,0.97-2.96,1.46-4.7,1.46C78.57,48.45,76.09,47.29,74.03,44.96z"/>
			<path class="st1" d="M93.32,47.87V31.56h1.49v3.68c0.42-1.17,1.04-2.13,1.86-2.87c0.84-0.71,1.74-1.07,2.69-1.07h0.86v1.76
				c-0.07,0-0.16-0.02-0.26-0.08c-0.07-0.05-0.12-0.08-0.15-0.08c-1.17,0-2.23,0.51-3.17,1.53c-0.95,1.02-1.55,2.31-1.83,3.87v9.57
				H93.32z"/>
			<path class="st1" d="M103.41,46.8c-1.07-1-1.6-2.2-1.6-3.6V31.56h1.49V43.2c0,1.05,0.39,1.95,1.16,2.72
				c0.77,0.74,1.7,1.11,2.8,1.11c1.29,0,2.45-0.51,3.47-1.53c1.02-1.02,1.67-2.31,1.94-3.87V31.56h1.49v16.31h-1.49V45
				c-0.45,1-1.17,1.8-2.16,2.41c-0.97,0.59-2.05,0.88-3.24,0.88C105.76,48.3,104.48,47.8,103.41,46.8z"/>
			<path class="st1" d="M117.71,54V31.56h1.49v3.37c0.42-1.17,1.13-2.13,2.13-2.87c0.99-0.71,2.09-1.07,3.28-1.07
				c2.14,0,3.84,0.79,5.11,2.37c1.29,1.61,1.94,3.73,1.94,6.36c0,2.55-0.62,4.59-1.86,6.13c-1.22,1.53-2.86,2.3-4.92,2.3
				c-1.22,0-2.34-0.34-3.36-1.03c-1.02-0.66-1.79-1.57-2.31-2.72V54H117.71z M128.68,45c0.99-1.38,1.49-3.19,1.49-5.44
				c0-2.25-0.5-4.03-1.49-5.36c-0.97-1.35-2.28-2.03-3.92-2.03c-1.54,0-2.85,0.73-3.92,2.18c-1.09,1.43-1.64,3.17-1.64,5.21
				c0,2.07,0.55,3.83,1.64,5.28c1.07,1.45,2.37,2.18,3.92,2.18C126.4,47.03,127.71,46.36,128.68,45z"/>
			<path class="st1" d="M135.58,45.85c-1.37-1.53-2.05-3.57-2.05-6.13c0-2.63,0.68-4.75,2.05-6.36c1.34-1.58,3.15-2.37,5.41-2.37
				c2.24,0,4.04,0.79,5.41,2.37c1.34,1.61,2.01,3.73,2.01,6.36c0,2.55-0.67,4.59-2.01,6.13c-1.37,1.53-3.17,2.3-5.41,2.3
				C138.72,48.14,136.92,47.38,135.58,45.85z M145.31,44.93c1.07-1.3,1.6-3.04,1.6-5.21c0-2.25-0.54-4.03-1.6-5.36
				c-1.09-1.35-2.54-2.03-4.33-2.03c-1.82,0-3.26,0.68-4.33,2.03c-1.09,1.33-1.64,3.11-1.64,5.36c0,2.17,0.55,3.91,1.64,5.21
				c1.07,1.3,2.51,1.95,4.33,1.95C142.78,46.88,144.22,46.23,145.31,44.93z"/>
		</g>
	</g>
</g>
</svg>
