<svg xmlns="http://www.w3.org/2000/svg" viewBox="0 0 24.49 17.24"><defs><style>.cls-1{fill:#fff;}</style></defs><title>youtube</title><g id="Layer_2" data-name="Layer 2"><g id="Contenido"><path class="cls-1" d="M23.54,1.48C22.65.43,21,0,17.9,0H6.59C3.4,0,1.74.46.86,1.58S0,4.27,0,6.5v4.24c0,4.31,1,6.5,6.59,6.5H17.9c2.71,0,4.2-.38,5.17-1.31s1.42-2.5,1.42-5.19V6.5C24.49,4.15,24.42,2.54,23.54,1.48ZM15.72,9.2l-5.14,2.69a.77.77,0,0,1-.36.09.8.8,0,0,1-.79-.79V5.83a.78.78,0,0,1,.38-.67.81.81,0,0,1,.77,0L15.72,7.8a.81.81,0,0,1,.43.7A.78.78,0,0,1,15.72,9.2Z"/></g></g></svg>