<svg xmlns="http://www.w3.org/2000/svg" viewBox="0 0 21.52 35.88"><defs><style>.cls-1,.cls-2{fill:none;stroke:#762124;stroke-miterlimit:10;}.cls-2{stroke-width:0.75px;}</style></defs><title>consultancy</title><g id="Layer_2" data-name="Layer 2"><g id="Contenido"><line class="cls-1" x1="1.93" y1="19.65" x2="1.93" y2="35.1"/><line class="cls-1" x1="4.97" y1="19.65" x2="4.97" y2="35.1"/><line class="cls-1" x1="9.24" y1="24.61" x2="9.24" y2="35.1"/><line class="cls-1" x1="12.28" y1="24.61" x2="12.28" y2="35.1"/><line class="cls-1" x1="16.69" y1="21.3" x2="16.69" y2="35.1"/><line class="cls-1" x1="19.73" y1="21.3" x2="19.73" y2="35.1"/><line class="cls-1" x1="21.52" y1="35.38" y2="35.38"/><path class="cls-2" d="M6.08,13c.16,1.08,1.34,2.33,4,2.58V9.85C7,9.3,3.71,8.7,3.71,5.91c0-2.13,2.4-3.69,6.37-3.81V.38h1.37V2.12c3.55.22,5.64,1.64,6,3.46m-2.31,0c-.22-.9-1.37-2-3.68-2.23V8.82c3.12.54,6.36,1.15,6.36,4,0,1.85-2,3.8-6.36,3.92v1.64H10.08V16.72C6.36,16.49,3.9,15,3.74,13m6.34-4.39V3.29c-2.41.08-4.15.92-4.15,2.56S7.8,8.13,10.08,8.56Zm1.37,1.56v5.45c2.74-.1,4.18-1.27,4.18-2.69C15.63,11.16,13.73,10.57,11.45,10.12Z"/></g></g></svg>