<svg xmlns="http://www.w3.org/2000/svg" viewBox="0 0 36 28.18"><defs><style>.cls-1{fill:none;stroke:#762124;stroke-miterlimit:10;}</style></defs><title>design</title><g id="Layer_2" data-name="Layer 2"><g id="Contenido"><polyline class="cls-1" points="33.19 9.02 33.19 0.5 0.5 0.5 0.5 23.6 19.07 23.6"/><polygon class="cls-1" points="35.5 9.92 17.73 27.68 35.5 27.68 35.5 9.92"/><line class="cls-1" x1="33.45" y1="21" x2="35.39" y2="21"/><line class="cls-1" x1="33.45" y1="24.2" x2="35.39" y2="24.2"/><line class="cls-1" x1="33.45" y1="17.8" x2="35.39" y2="17.8"/><line class="cls-1" x1="33.45" y1="14.59" x2="35.39" y2="14.59"/><line class="cls-1" x1="33.45" y1="17.8" x2="35.39" y2="17.8"/><circle class="cls-1" cx="8.74" cy="16.21" r="2.86"/><polyline class="cls-1" points="16.96 12.15 17.95 11.28 18.94 10.4 19.93 11.28 20.92 12.15"/><polyline class="cls-1" points="20.78 12.15 21.77 11.28 22.76 10.4 23.75 11.28 24.73 12.15"/><rect class="cls-1" x="10.61" y="4.69" width="4.73" height="4.73" transform="translate(8.79 -7.11) rotate(45)"/></g></g></svg>