<svg xmlns="http://www.w3.org/2000/svg" viewBox="0 0 220 192.92"><defs><style>.cls-1{fill:#fff;fill-rule:evenodd;}</style></defs><title>firma_2</title><g id="Layer_2" data-name="Layer 2"><g id="Contenido"><g id="layer1"><path id="path4147" class="cls-1" d="M94.82,0C86.54,0,78.27.59,70.05,1.19c-8.4.61-24.49,3-24.49,3-1.43.2-1.49,1.83-.06,1.64,0,0,16.48-1.87,24.7-2.47,11-.79,21.92-1.5,32.82-1a202.64,202.64,0,0,1,33.28,4,107.33,107.33,0,0,1,30.32,11.6,77.06,77.06,0,0,1,17.25,13.19,86.73,86.73,0,0,1,14.49,19.57c3.83,7.11,6.23,15.11,8.4,22.94S210.6,87.79,212.17,95a111.78,111.78,0,0,1,2.49,15.29,53.93,53.93,0,0,1-4,7.3,10,10,0,0,1-2.51,2.49,2.84,2.84,0,0,1-2.39.52c-.23-.07-.45-.3-.67-.86a13.28,13.28,0,0,1-.53-2,5.45,5.45,0,0,1,.06-1.38c.1-.64.25-1.36.38-2a9.79,9.79,0,0,0,.28-1.68,1.39,1.39,0,0,0-.05-.5,1.19,1.19,0,0,0-.21-.43,1.21,1.21,0,0,0-.67-.42,1.11,1.11,0,0,0-1,.24,1.92,1.92,0,0,0-.35.35,26.84,26.84,0,0,1-2.19,2.49,2.55,2.55,0,0,1-1.77.76,3,3,0,0,1-2.14-1.38,3.57,3.57,0,0,1-.11-.87,13.71,13.71,0,0,1,.13-1.63,14.26,14.26,0,0,0,.14-1.46,2,2,0,0,0,0-.39,1,1,0,0,0-.46-.75,1.19,1.19,0,0,0-1.27-.07,1.39,1.39,0,0,0-.41.36,40.71,40.71,0,0,1-7.36,7.13c-1.38,1-3.27,1.87-4.44,1.47a1.81,1.81,0,0,1-.87-.83,8.85,8.85,0,0,1-.74-1.67,4.42,4.42,0,0,1-.06-1.26c0-.6.13-1.29.21-1.93a6.65,6.65,0,0,0,.11-1.76,2,2,0,0,0-.13-.51,1.29,1.29,0,0,0-.61-.65,1.32,1.32,0,0,0-.95,0,1.47,1.47,0,0,0-.53.29c-2.69,2.07-3.08,2.91-4.67,4-2,1.34-3.88,2.89-5.63,2.89a4.29,4.29,0,0,1-2.49-1.31,3.75,3.75,0,0,1-.29-.61c-.14-.36-.27-.82-.4-1.26a3.64,3.64,0,0,0-.53-1.28,1.3,1.3,0,0,0-2.22,0c-1.63,2.26-2.47,3.77-4.12,4.82-1.41.9-3.06,1.62-4.19,1.32-.7-.19-1.45-1.22-2.1-2.36a12.7,12.7,0,0,1-.26-2.65,4.59,4.59,0,0,0-.28-1.72,1.69,1.69,0,0,0-.77-.88,1.75,1.75,0,0,0-1.28-.11c-2.72.78-4.24,2.08-7.15,4.26-1.93,1.44-3.78,3-5.59,3.06a3.5,3.5,0,0,1-2.51-1.06,3,3,0,0,1-.59-1.56,10.77,10.77,0,0,0-.59-2.54c-.16-.39-.31-1-.56-1.58a3.5,3.5,0,0,0-1.4-1.78,6.57,6.57,0,0,0-4.11-.68c-1.34.14-2.62.47-3.71.63-4.8.71-9,3.07-13.25,3.86-3.9.72-7.78,1.66-11.3,1A18,18,0,0,1,91,109.19c-2-1.82-3.21-4.57-4.49-7.31-2-4.19-3.35-7-4.25-12.87-.77-4.94-1.29-9.53-1.55-14.13C81.84,72.67,83,70.36,84,67.81a32.19,32.19,0,0,0,2-8.62,12.85,12.85,0,0,0-.17-4.07,4.29,4.29,0,0,0-.71-1.62,2.69,2.69,0,0,0-1.55-1,2.53,2.53,0,0,0-1.77.32,3.5,3.5,0,0,0-1.17,1.22,11.13,11.13,0,0,0-1.29,3.53,45.6,45.6,0,0,0-.91,8c-.12,3,0,5.92.1,8.83C76,79.32,73.2,83.7,70.31,88.51c-3.1,5.13-6.58,10.07-10.05,15-7,10.06-14.8,19.66-21.84,29.85C25.13,152.62.19,192,.19,192c-.82,1.23,1.32,1,1.65.47,0,0,25.14-38.74,38.36-57.87,7-10.1,14.74-19.7,21.83-29.84,3.47-5,7-9.93,10.13-15.16,2.27-3.77,4.5-7.33,6.63-11.14.31,3.54.75,7.11,1.33,10.86.94,6.1,2.48,9.28,4.43,13.46,1.26,2.69,2.55,5.74,5,8a20.07,20.07,0,0,0,9.56,4.86c4.16.82,8.31-.25,12.12-1,4.74-.88,8.89-3.21,13.17-3.84,1.25-.19,2.5-.51,3.62-.62a4.48,4.48,0,0,1,2.78.39,1.53,1.53,0,0,1,.5.74c.17.42.32,1,.57,1.6a11.44,11.44,0,0,1,.45,2.08,5,5,0,0,0,1.12,2.64,5.41,5.41,0,0,0,4.2,1.76c2.85-.13,5-2.13,6.79-3.49,2.72-2,4-3,6-3.73a2.85,2.85,0,0,1,.07.53,7.15,7.15,0,0,0,.54,3.64c.67,1.17,1.56,2.88,3.42,3.38,2.26.6,4.37-.6,5.91-1.59a13.67,13.67,0,0,0,3.83-4.15c.08.26.15.5.25.77a3.3,3.3,0,0,0,.83,1.43,5.94,5.94,0,0,0,4,1.91c2.88,0,5-2,6.83-3.24a26.22,26.22,0,0,0,3.39-2.83c-.06.49-.14,1-.17,1.53a5.14,5.14,0,0,0,.18,2.13,10.19,10.19,0,0,0,.94,2.09,3.92,3.92,0,0,0,2,1.74c2.41.82,4.8-.55,6.44-1.79a41.92,41.92,0,0,0,5.82-5.41c0,.17,0,.32,0,.49a3.58,3.58,0,0,0,.42,2,4.66,4.66,0,0,0,4.11,2.43,5,5,0,0,0,3.07-1.3c.11-.09.2-.21.31-.31,0,.11-.05.21-.07.33a6.16,6.16,0,0,0,0,2.14,14.46,14.46,0,0,0,.64,2.4,3.37,3.37,0,0,0,2.06,2.13,5.07,5.07,0,0,0,4.17-.77,11.87,11.87,0,0,0,3.09-3,34.39,34.39,0,0,0,2.34-3.83c0,.52-.08,1-.14,1.53-.4,2.9.87,4.51,3.06,6,.48.32,1.51.14,1.68-.41.76-2.43,1.08-3.5,0-5.7A8.15,8.15,0,0,1,218,114c-1.24-4.67-2.66-14.48-3.75-19.47C212.7,87.28,211,80.79,208.85,73s-4.61-16-8.59-23.38a88.72,88.72,0,0,0-14.85-20.06A78.9,78.9,0,0,0,167.67,16,109.24,109.24,0,0,0,136.74,4.17a204.31,204.31,0,0,0-33.63-4Q99,0,94.82,0ZM40.28,4.67a2.43,2.43,0,0,0-.61.09,2.51,2.51,0,0,0-1.17.62c-.54.67,0,1.48.93,1.11a7,7,0,0,1,1.62-.41c1,0,.61-1.21-.15-1.36a2.6,2.6,0,0,0-.62,0ZM83,54.62a.27.27,0,0,1,.12,0c.1,0,.14,0,.24.18a2.16,2.16,0,0,1,.34.82A11.81,11.81,0,0,1,83.84,59,30.29,30.29,0,0,1,82,67c-.46,1.13-1,2.14-1.43,3.19,0-1.5,0-3,0-4.54a45.14,45.14,0,0,1,.86-7.59,9.76,9.76,0,0,1,1-2.85,1.73,1.73,0,0,1,.46-.53.25.25,0,0,1,.11-.05ZM55.44,57c-1.14,0-1.38,1.18-.36,1.69,0,0,1.43.74,1.72,1s1.37,1.26,1.37,1.26c.92,1.16,2.37.17,1.39-.94A9.89,9.89,0,0,0,58,58.13a4.73,4.73,0,0,0-1.51-.81A4.67,4.67,0,0,0,55.44,57Z"/></g></g></g></svg>