<svg xmlns="http://www.w3.org/2000/svg" viewBox="0 0 250 144.8"><defs><style>.cls-1{fill:#fff;}</style></defs><title>firma_1_1</title><g id="Layer_2" data-name="Layer 2"><g id="Contenido"><g id="layer1"><path id="path3768" class="cls-1" d="M.06,144.42c-.24-.64.27-2.57,1.37-5.19a4.75,4.75,0,0,0,.34-1.1,37.09,37.09,0,0,1,1.39-4.33C4.08,131.34,7.27,121,8,118.24a3.9,3.9,0,0,1,.53-1.37,1.39,1.39,0,0,0,.22-.89,9.65,9.65,0,0,1,.49-2.24c.26-.81.8-2.58,1.18-3.92a20,20,0,0,1,.91-2.7,16.37,16.37,0,0,0,.77-2.3,19.24,19.24,0,0,1,.79-2.44,15.25,15.25,0,0,0,1-4.08,2.73,2.73,0,0,1,.51-1.42,2.82,2.82,0,0,0,.52-1.54,1.88,1.88,0,0,1,.38-1.22,1.41,1.41,0,0,0,.39-1,4.37,4.37,0,0,1,.51-1.63,4.37,4.37,0,0,0,.52-1.69,2.32,2.32,0,0,1,.38-1.22,2.23,2.23,0,0,0,.39-1A5.28,5.28,0,0,1,18,86a5.26,5.26,0,0,0,.5-1.83,1.69,1.69,0,0,1,.37-1.1,2.45,2.45,0,0,0,.52-1.18,7,7,0,0,1,.54-1.6A3.39,3.39,0,0,0,20.29,79a1.52,1.52,0,0,1,.39-1A1.84,1.84,0,0,0,21.06,77a2.36,2.36,0,0,1,.52-1.35,2.49,2.49,0,0,0,.51-1.4,1.93,1.93,0,0,1,.28-1.09,3.8,3.8,0,0,0,.52-1.36,3.87,3.87,0,0,1,.62-1.47A2.19,2.19,0,0,0,23.89,69a3,3,0,0,1,.36-1.46,4.63,4.63,0,0,0,.54-1.39,3,3,0,0,1,.55-1.24,2.07,2.07,0,0,0,.35-1.21,1.79,1.79,0,0,1,.39-1.17,1.45,1.45,0,0,0,.39-1A3.59,3.59,0,0,1,27,60a3.59,3.59,0,0,0,.51-1.25,3.17,3.17,0,0,1,.37-1.09,10.27,10.27,0,0,0,.68-1.91,3.82,3.82,0,0,1,.53-1.36.79.79,0,0,0,.22-.59,13.4,13.4,0,0,1,.91-2.54,14.88,14.88,0,0,0,.9-2.45,15.57,15.57,0,0,1,1.42-3.57A3.1,3.1,0,0,0,32.9,44a1.49,1.49,0,0,1,.36-.89,2.94,2.94,0,0,0,.55-1.29,2.53,2.53,0,0,1,.53-1.23,1.28,1.28,0,0,0,.36-.89,1.61,1.61,0,0,1,.38-1,1.22,1.22,0,0,0,.39-.67A5.74,5.74,0,0,1,36,36.7a5.13,5.13,0,0,0,.52-1.51c0-.42.16-.8,1.32-3.12a4.5,4.5,0,0,0,.48-1.44,1.21,1.21,0,0,1,.38-.82,1.11,1.11,0,0,0,.39-.74,3.07,3.07,0,0,1,.51-1.19,3,3,0,0,0,.52-1.35c0-.32.11-.58.25-.58s.33-.32.43-.71a7.81,7.81,0,0,1,1.57-3,1.28,1.28,0,0,0,.32-1A2.06,2.06,0,0,1,43.19,20a1.74,1.74,0,0,0,.51-1,1.41,1.41,0,0,1,.39-.88,1.29,1.29,0,0,0,.38-.58,20.36,20.36,0,0,1,1.29-2.93,18.86,18.86,0,0,0,1.42-3.08,1.19,1.19,0,0,1,1.33-1c.93,0,1,.87.12,2.51C47,16.21,45.5,19.24,45.5,19.47a1,1,0,0,1-.38.56,1.29,1.29,0,0,0-.39.89,1.36,1.36,0,0,1-.24.8,11.61,11.61,0,0,0-1.56,3.05,2.3,2.3,0,0,1-.52,1,2.6,2.6,0,0,0-.51,1.33.92.92,0,0,1-.39.83.84.84,0,0,0-.38.76,1.58,1.58,0,0,1-.52,1.06,1.75,1.75,0,0,0-.51,1.16c0,.39-.11.71-.24.71s-.32.38-.42.84a8.25,8.25,0,0,1-.66,1.73,3.89,3.89,0,0,0-.48,1.32,1.07,1.07,0,0,1-.36.72,2.37,2.37,0,0,0-.52,1.16,2.36,2.36,0,0,1-.54,1.18,1.53,1.53,0,0,0-.38,1,1.53,1.53,0,0,1-.39,1,1.15,1.15,0,0,0-.39.73,3.31,3.31,0,0,1-.38,1.15,10.24,10.24,0,0,0-.65,1.74c-.15.55-.38,1-.52,1s-.24.34-.24.76a4.25,4.25,0,0,1-.52,1.68,4,4,0,0,0-.51,1.52,1.35,1.35,0,0,1-.39.92,1.1,1.1,0,0,0-.39.68,4.47,4.47,0,0,1-.51,1.31,4.58,4.58,0,0,0-.51,1.31,3.21,3.21,0,0,1-.35,1,20,20,0,0,0-1.34,3.77,3.25,3.25,0,0,1-.62,1.37c-.26.08-.39,1.33-.15,1.33A9.77,9.77,0,0,0,31,59.57a9.91,9.91,0,0,1,2.59-1.72,3.73,3.73,0,0,0,1.15-.76,3.53,3.53,0,0,1,1.19-.77,3.84,3.84,0,0,0,1.22-.87,18.44,18.44,0,0,1,2-1.58c.56-.4,1-.82,1-.94s.16-.22.36-.22a.5.5,0,0,0,.45-.23,15.66,15.66,0,0,1,2.24-1.67c1.71-1.14,2.25-1.38,2.62-1.18,1.13.6.78,4.3-.68,7.28a3.49,3.49,0,0,0-.36,1.25,7.65,7.65,0,0,1-.3,1.54c-.4,1.35-.09,1.66,1.24,1.23a12.36,12.36,0,0,0,3.64-2.49,1.18,1.18,0,0,1,.62-.33,3.81,3.81,0,0,0,1.22-1,12,12,0,0,1,1.57-1.35,10.35,10.35,0,0,0,1.4-1.15c.42-.43,1.41-1.29,2.19-1.92S58,51.3,58.34,51a2.08,2.08,0,0,1,.93-.59,1.07,1.07,0,0,0,.64-.38c.46-.56.67-.49,1,.37s0,3.82-.52,4.13a7.77,7.77,0,0,0-.58,3.41c.31.53,3.68-.5,3.68-1.13,0-.13.29-.35.65-.48A22.48,22.48,0,0,0,68.68,53a23.06,23.06,0,0,1,1.77-1.55c.46-.35,1-.76,1.13-.9,1.11-1,2.36-1.64,2.59-1.4s.26,3.27-.15,3.76a6.3,6.3,0,0,0-.69,3.49c.15.25.45.19,1.3-.26a5.72,5.72,0,0,1,1.4-.57,2.22,2.22,0,0,0,.9-.52c.33-.29,1.55-1.15,2.72-1.91s2.41-1.62,2.76-1.89a10.87,10.87,0,0,1,2-1.08l1.41-.57.6.56c.56.52.59.7.52,3.62s0,3.07.41,3.07a2.2,2.2,0,0,0,1.16-.77,2.66,2.66,0,0,1,.94-.77.29.29,0,0,0,.26-.32c0-.18.39-.58.85-.9a24.77,24.77,0,0,0,2.13-1.75A24.12,24.12,0,0,1,95,50.45a15.81,15.81,0,0,0,1.39-1,1.69,1.69,0,0,1,1.15-.25l.81.07,0,3.3c0,4.12.19,4.4,2.17,3.7A7.31,7.31,0,0,0,102.72,55c3.13-3,3.78-3.68,3.89-4.28a12.92,12.92,0,0,1,.41-1.44,15.8,15.8,0,0,0,.49-1.93,12.07,12.07,0,0,1,.61-2.11,5,5,0,0,0,.41-1.58,1.35,1.35,0,0,1,.39-.94,1.5,1.5,0,0,0,.39-1,5.74,5.74,0,0,1,.51-1.8,5.66,5.66,0,0,0,.51-1.68,2.19,2.19,0,0,1,.35-1.06,7.82,7.82,0,0,0,.67-1.93,15.3,15.3,0,0,1,.8-2.5,5.58,5.58,0,0,0,.5-1.72,3.68,3.68,0,0,1,.36-1.35,68.38,68.38,0,0,0,2.47-6.5,2,2,0,0,1,.23-.73c.14-.24.47-1,.74-1.6l1-2.38a7.28,7.28,0,0,0,.55-1.54,18.47,18.47,0,0,1,1.86-4.36,5.3,5.3,0,0,0,.71-1.63,5.07,5.07,0,0,1,1.09-1.69c1.19-1.37,1.84-1.56,2.74-.82.49.4.51.53.21,1.1a17.29,17.29,0,0,0-.79,3,26.73,26.73,0,0,1-.81,3.21,10.74,10.74,0,0,0-.52,2c-.09.61-.33,1.18-.53,1.25a.72.72,0,0,0-.36.65c0,.44-2.27,7.7-2.84,9.08-.12.29-.36,1-.54,1.55a8.65,8.65,0,0,1-.5,1.28,4.56,4.56,0,0,0-.36,1.16,6.57,6.57,0,0,1-.68,1.7,3.43,3.43,0,0,0-.48,1.3,2.15,2.15,0,0,1-.35,1,7.29,7.29,0,0,0-.68,1.53,4.41,4.41,0,0,1-.55,1.27,1.24,1.24,0,0,0-.22.7.85.85,0,0,1-.34.66,2.73,2.73,0,0,0-.69,1.1c-.49,1.27-2,4.66-2.37,5.28-.16.28-.44.79-.62,1.13a3,3,0,0,1-.54.77,12.08,12.08,0,0,0-1.67,2.59,5.17,5.17,0,0,0-.46,2,2.57,2.57,0,0,1-.37,1.46,5.6,5.6,0,0,0-.67,2.08,5.88,5.88,0,0,1-.53,1.85A2.29,2.29,0,0,0,106,60.3c0,.75-.14,1.2-.4,1.35s-.49.83-.62,1.79a9.2,9.2,0,0,1-.5,2.09,3.35,3.35,0,0,0-.29,1.37,9.14,9.14,0,0,1-.51,2.27,9.64,9.64,0,0,0-.51,2.32,3.88,3.88,0,0,1-.39,1.54,4.44,4.44,0,0,0-.38,1.74,6.34,6.34,0,0,1-.41,2.06,11.57,11.57,0,0,0-.54,2.76,14.45,14.45,0,0,1-.48,2.83,14.94,14.94,0,0,0-.47,2.75,11,11,0,0,1-.54,2.66,6.38,6.38,0,0,0-.39,2,10.74,10.74,0,0,1-.36,2.35,40.16,40.16,0,0,0-.77,4.08c-.23,1.56-.48,3.21-.57,3.66a2.92,2.92,0,0,0,0,1.26c.24.63.92,0,.92-.93a1,1,0,0,1,.39-.87c.22-.08.38-.46.38-.89a2.6,2.6,0,0,1,.51-1.38A3.89,3.89,0,0,0,100.6,95c.05-.83.2-1.52.34-1.52.42,0,.45,1.38,0,2.66-.21.66-.57,1.8-.79,2.52-.51,1.63-.55,2.32-.1,2a10.82,10.82,0,0,1,1.61-.73,22.92,22.92,0,0,0,2.39-1.06,5.26,5.26,0,0,1,1.46-.59.52.52,0,0,0,.44-.19,7.67,7.67,0,0,1,1.89-.82,53.85,53.85,0,0,0,6.89-3.12,7.64,7.64,0,0,1,2-.76,2.25,2.25,0,0,0,1.08-.47,6.6,6.6,0,0,1,1.64-.83,6.39,6.39,0,0,0,1.28-.55,1.6,1.6,0,0,1,.83-.2c.33,0,.59-.12.59-.27s1-.73,5-2.46c1.27-.54,2.54-1.13,2.82-1.31a2,2,0,0,1,.86-.34,8,8,0,0,0,2.62-1.15,4.8,4.8,0,0,1,1.29-.58,26.77,26.77,0,0,0,4.63-2A19.41,19.41,0,0,1,141.71,82c.78-.31,1.77-.72,2.19-.92s1.35-.58,2.06-.85,1.63-.69,2.06-.91a3.43,3.43,0,0,1,1.06-.41,16.61,16.61,0,0,0,2.38-1,13.61,13.61,0,0,1,2.44-1,1.05,1.05,0,0,0,.68-.39,1.31,1.31,0,0,1,.91-.38,8.46,8.46,0,0,0,2.32-.9,12.87,12.87,0,0,1,1.95-.9,6.8,6.8,0,0,0,1.32-.49c.6-.27,1.26-.56,1.47-.64a7.85,7.85,0,0,0,.77-.38,13.75,13.75,0,0,1,2.94-1.22,16.67,16.67,0,0,0,2.43-1,10.53,10.53,0,0,1,2-.86,8.23,8.23,0,0,0,1.75-.78,8.09,8.09,0,0,1,1.77-.77,6.41,6.41,0,0,0,1.54-.64,6,6,0,0,1,1.58-.64,3.29,3.29,0,0,0,1.11-.38,43.74,43.74,0,0,1,4.58-2,5.56,5.56,0,0,0,1.44-.68,1.5,1.5,0,0,1,.78-.33,2,2,0,0,0,.88-.35,4.33,4.33,0,0,1,1.32-.53,2.48,2.48,0,0,0,1.13-.55,1.29,1.29,0,0,1,.87-.37,2,2,0,0,0,1.06-.38,2,2,0,0,1,.92-.38,13.14,13.14,0,0,0,2.48-1,11,11,0,0,1,2.59-1,13.74,13.74,0,0,0,3.64-1.51,19.12,19.12,0,0,1,2.19-.83,23.1,23.1,0,0,0,2.44-.92,2.92,2.92,0,0,1,.94-.34,1,1,0,0,0,.61-.39,1.31,1.31,0,0,1,.9-.38,1.34,1.34,0,0,0,.9-.39,1.27,1.27,0,0,1,.87-.38,2.14,2.14,0,0,0,1.06-.36,4.83,4.83,0,0,1,1.15-.53,40.25,40.25,0,0,0,4.12-1.55c.35-.17,1.51-.58,2.57-.91a9.36,9.36,0,0,0,2.19-.87,14,14,0,0,1,3.78-1.46,19.42,19.42,0,0,0,2.45-.9L228.8,46c.56-.25,1.95-.78,3.08-1.17a25.74,25.74,0,0,0,4.3-1.71,4.49,4.49,0,0,1,1.32-.49,1.1,1.1,0,0,0,.69-.38,1.13,1.13,0,0,1,.75-.39,5.17,5.17,0,0,0,1.49-.51,12.74,12.74,0,0,1,2.15-.75A2.5,2.5,0,0,0,243.9,40a.92.92,0,0,1,.72-.4.88.88,0,0,0,.64-.25,2.73,2.73,0,0,1,1.14-.52,2,2,0,0,0,1.14-.65c.12-.32-.17-.38-1.71-.38a21.1,21.1,0,0,0-3.59.37,11.25,11.25,0,0,1-4.12.12c-3.64-.38-4.55-.53-4.71-.78a1,1,0,0,0-.75-.23,21,21,0,0,1-4.92-1.82,6.15,6.15,0,0,0-1.32-.49.93.93,0,0,1-.55-.36c-.58-.7-5.76-.66-7.36.06-.29.12-1.21.48-2.06.8a38.81,38.81,0,0,0-4.54,2,3.14,3.14,0,0,1-1.1.37c-.22,0-.41.11-.41.26s-.32.4-.7.57a4.58,4.58,0,0,0-1,.64,1.53,1.53,0,0,1-.92.33,2.15,2.15,0,0,0-1.07.37,3.42,3.42,0,0,1-1.67.39c-1.05,0-1.2-.07-1.58-.83a8.43,8.43,0,0,1-.59-1.59c-.41-1.86-2.27-2.53-5.66-2-2.15.3-5.43,1.26-5.68,1.67a.85.85,0,0,1-.65.24.74.74,0,0,0-.66.38.59.59,0,0,1-.47.39,4.88,4.88,0,0,0-1.49,1,6.78,6.78,0,0,1-1.37,1,5.1,5.1,0,0,0-1.18.67c-1,.7-1.75.68-1.75,0a7.47,7.47,0,0,1,2.75-2.69.72.72,0,0,0,.51-.32,5.33,5.33,0,0,1,2.57-1.34,2.3,2.3,0,0,0,1.12-.55,1.2,1.2,0,0,1,.79-.37,3.55,3.55,0,0,0,1.32-.51,3.77,3.77,0,0,1,1.48-.52,6.38,6.38,0,0,0,1.67-.37c1.43-.52,5.11-.52,5.54,0a1,1,0,0,0,.61.39c.36,0,1.19.92,1.19,1.31a3.08,3.08,0,0,0,.36,1,8.36,8.36,0,0,1,.52,1.17c.13.4.34.46,1.3.35s5.37-2,5.68-2.54a1.09,1.09,0,0,1,.75-.23,1.07,1.07,0,0,0,.78-.25,11.73,11.73,0,0,1,3.47-1.62A25.47,25.47,0,0,0,220,32.83a5.62,5.62,0,0,1,2.92-.38,5,5,0,0,1,1.92.42,1.18,1.18,0,0,0,.74.28,15.45,15.45,0,0,1,2.71,1.05c3.49,1.61,3.73,1.71,5,2,3.5.91,5.75,1,11.74.36a28.73,28.73,0,0,1,4.6-.25c1,.38-.27,3.25-1.45,3.25a1.38,1.38,0,0,0-.84.39,6,6,0,0,1-1.75.82,6.42,6.42,0,0,0-1.71.77,1.11,1.11,0,0,1-.59.33,6.75,6.75,0,0,0-1.33.48c-.6.26-2.41,1-4,1.57a27.57,27.57,0,0,0-3.2,1.32,1.13,1.13,0,0,1-.68.23,24.45,24.45,0,0,0-3.48,1.29,25.2,25.2,0,0,1-3.45,1.29,1.13,1.13,0,0,0-.65.22,5,5,0,0,1-1.28.55,26.38,26.38,0,0,0-3.85,1.56,5.81,5.81,0,0,1-1.32.5,19.91,19.91,0,0,0-3.31,1.28c-.63.28-2.55,1-4.64,1.79a17.91,17.91,0,0,0-1.92.8,5.85,5.85,0,0,1-.78.41l-1.46.64a9,9,0,0,1-1.25.48,5.24,5.24,0,0,0-1,.36c-.44.19-1.62.67-2.61,1a17.17,17.17,0,0,0-2.06.89,3.25,3.25,0,0,1-.95.36,20.12,20.12,0,0,0-2.31.92,19.86,19.86,0,0,1-2.33.93,1.89,1.89,0,0,0-.86.4.67.67,0,0,1-.54.23,6.33,6.33,0,0,0-1.6.55c-1.19.54-2.36,1.06-4.27,1.89l-1.8.78c-2.25,1-3.23,1.38-4.63,1.92-.85.33-2,.81-2.62,1.07a6.51,6.51,0,0,1-1.33.48,10.77,10.77,0,0,0-2.35,1.08c-.22.11-.56.27-.78.35s-.81.37-1.33.64a4.37,4.37,0,0,1-1.31.5,9.38,9.38,0,0,0-1.88.74c-.84.4-2,.87-2.48,1a3,3,0,0,0-1.11.55.68.68,0,0,1-.53.24,11.93,11.93,0,0,0-2.31.9,12.4,12.4,0,0,1-2.31.9,4.4,4.4,0,0,0-1.35.49c-.52.27-1.47.72-2.11,1s-1.92.87-2.85,1.31a12,12,0,0,1-2,.79,4.66,4.66,0,0,0-1.25.51,4.6,4.6,0,0,1-1.26.52,9,9,0,0,0-1.81.74,34.93,34.93,0,0,1-4.63,2.09,13.86,13.86,0,0,0-2.66,1.27,18.36,18.36,0,0,1-1.93.82,10.4,10.4,0,0,0-1.95.92,1.48,1.48,0,0,1-.75.33,13,13,0,0,0-2.21.9,17.22,17.22,0,0,1-2.06.9,8.46,8.46,0,0,0-1.38.55l-5.54,2.53-1.93.86c-.5.22-1.54.66-2.32,1s-1.88.78-2.46,1a6.29,6.29,0,0,1-1.24.48c-.19,0-2.35,1-5.69,2.6a8.7,8.7,0,0,1-2,.75,1.09,1.09,0,0,0-.73.38,2.12,2.12,0,0,1-.87.54,60,60,0,0,0-7.24,3.45,2,2,0,0,1-.89.35,2.12,2.12,0,0,0-1.81,1.92,2.32,2.32,0,0,1-.38,1.22,2.1,2.1,0,0,0-.39,1c0,.79-1,2.22-1.58,2.22-.72,0-.87-.65-.53-2.28s.13-2-.63-1.6S90,107,89.85,107s-4.94,2.25-5.5,2.59a9.21,9.21,0,0,1-1,.49c-.36.14-1,.43-1.37.64a3.32,3.32,0,0,1-1,.4,4.4,4.4,0,0,0-1.36.83,41.75,41.75,0,0,1-5,2.74c-2.18,1-4.16,2-4.4,2.12a2.38,2.38,0,0,1-.84.22c-.21,0-.39.09-.39.19a5.07,5.07,0,0,1-2.25,1.47c-.58,0-1.52.5-4,1.95a30.52,30.52,0,0,1-3.28,1.63,3,3,0,0,0-1.22.67c0,.12-.28.28-.63.37a2.4,2.4,0,0,0-1,.48,6.13,6.13,0,0,1-1.37.79c-.57.25-1.26.58-1.54.73a72.37,72.37,0,0,1-6.72,3.3.72.72,0,0,0-.54.32,5.86,5.86,0,0,1-1.75.94A15,15,0,0,0,42.37,131a3,3,0,0,1-.88.48,31.12,31.12,0,0,0-4.22,2.07,2.08,2.08,0,0,1-.77.37,5.59,5.59,0,0,0-1.33.68,2.78,2.78,0,0,1-.93.48,1,1,0,0,0-.57.38,1.13,1.13,0,0,1-.77.39,1.54,1.54,0,0,0-.91.52,1.48,1.48,0,0,1-.82.51c-.41,0-1.88,1-1.88,1.32a3.24,3.24,0,0,0,1.23.74c1,.45,1.65.53,3.73.48a6.64,6.64,0,0,1,2.81.23c.49.49-.43.67-3.39.68a10.29,10.29,0,0,1-4.34-.61c-1.66-.62-2.34-1.41-1.9-2.2a8.07,8.07,0,0,1,2.3-1.67,1.46,1.46,0,0,0,.57-.34,23.84,23.84,0,0,1,3-1.46c1.42-.61,3-1.35,3.47-1.65s1.6-.87,2.45-1.29L41.42,130a3.22,3.22,0,0,1,1-.34,1.81,1.81,0,0,0,.86-.47,7.62,7.62,0,0,1,1.69-.95,8.8,8.8,0,0,0,1.54-.78,13.18,13.18,0,0,1,3-1.41,4.37,4.37,0,0,0,1.27-.76,5.7,5.7,0,0,1,1.87-.93c.47-.1.92-.32,1-.51a1.36,1.36,0,0,1,.88-.5c.41-.09.75-.24.75-.34a7.69,7.69,0,0,1,1.86-1c3.17-1.47,3.56-1.68,4-2.14a1.51,1.51,0,0,1,1-.45,2,2,0,0,0,1.1-.52,2,2,0,0,1,.83-.51,6.18,6.18,0,0,0,2.32-1.5,4.43,4.43,0,0,1,2.16-1.08,1.11,1.11,0,0,0,.7-.42c.31-.37,7.85-4.19,10.77-5.45.64-.28,2.06-.92,3.16-1.43a13.57,13.57,0,0,1,2.34-.93,1.08,1.08,0,0,0,.68-.38,1,1,0,0,1,.58-.39,14,14,0,0,0,2.09-.87c2.37-1.13,4.59-2.15,5.93-2.72l1.06-.46.44-2.28c.24-1.26.51-3,.6-4a11.22,11.22,0,0,1,.43-2.32,14.14,14.14,0,0,0,.46-2.57c.11-1.06.32-2.51.47-3.21.34-1.56,1-6.06,1.3-8.42a6.42,6.42,0,0,1,.48-2.07,6.62,6.62,0,0,0,.4-2.18,7.52,7.52,0,0,1,.5-2.43,7.37,7.37,0,0,0,.53-2.36,6.8,6.8,0,0,1,.39-2.06,6,6,0,0,0,.43-1.9,4.33,4.33,0,0,1,.53-1.89,2,2,0,0,0,.36-1.31,4.39,4.39,0,0,1,.35-1.7,7.93,7.93,0,0,0,.53-1.91,3.26,3.26,0,0,1,.39-1.35,4.83,4.83,0,0,0,.4-1.74,6,6,0,0,1,.43-1.91c.15-.19.14-.36,0-.47s-.28,0-.28.17c0,.47-2.79,2.45-4.16,2.95s-2.73.31-3.42-.62c-.44-.61-.5-1.06-.45-3.47s0-2.76-.4-2.76a3.27,3.27,0,0,0-1.41.9,3.61,3.61,0,0,1-1.34.9.38.38,0,0,0-.39.38c0,.21-.1.39-.23.39a19.4,19.4,0,0,0-2.54,2.27c-2.53,2.49-3.57,3.1-4.65,2.71-.67-.24-.68-.28-.64-2.39a7.13,7.13,0,0,1,.32-2.42,2.22,2.22,0,0,0,.28-1.25c0-1.26-.47-1.28-2.62-.14L80.9,53.52a8.53,8.53,0,0,0-1.52,1.09,2.86,2.86,0,0,1-.95.67.69.69,0,0,0-.44.33,10.62,10.62,0,0,1-2,1.41c-2.28,1.34-3.8,1.5-4.2.44a7.46,7.46,0,0,1,.37-4.29,2.27,2.27,0,0,0,.4-1c0-.53-.65-.61-1-.11A7.48,7.48,0,0,1,70.2,53.2a7.13,7.13,0,0,0-1.36,1.18c-.41.74-4.73,3.83-6.52,4.67-2,.92-2.83,1-3.76.14-.67-.57-.58-2.48.21-4.58.87-2.32,1-2.68.78-2.68a11.62,11.62,0,0,0-2.81,1.9,2.85,2.85,0,0,1-1,.68.27.27,0,0,0-.25.29,3.7,3.7,0,0,1-1.45,1.51,7.09,7.09,0,0,0-1.21,1.06,18.21,18.21,0,0,1-2.42,2,5.05,5.05,0,0,0-1.35,1.12.24.24,0,0,1-.26.22,6.72,6.72,0,0,0-1.51.88A8,8,0,0,1,43.78,63c-1.17,0-1.54-3.11-.63-5.21A23.2,23.2,0,0,0,45,51.73c0-.53,0-.55-.57-.28A16.85,16.85,0,0,0,42,53.22a1.12,1.12,0,0,1-.53.26,3.15,3.15,0,0,0-1,.9c-.42.49-.89.9-1.06.9a4,4,0,0,0-1.29.91,29.36,29.36,0,0,1-2.7,2.07A27.1,27.1,0,0,0,33.06,60a5.59,5.59,0,0,1-.86.69,7.17,7.17,0,0,0-2.13,1.53c0,.13-.18.23-.39.23-.49,0-.49.23,0,.79s.36.47-.14.62a2.84,2.84,0,0,1-1.24,0c-.64-.14-.75,0-1.28,1.12a8.71,8.71,0,0,0-.58,1.52,1,1,0,0,1-.38.55,2,2,0,0,0-.39,1.31,1.86,1.86,0,0,1-.24,1.12,2.18,2.18,0,0,0-.41,1,11.12,11.12,0,0,1-.63,1.87,17.37,17.37,0,0,0-1.41,4,2.47,2.47,0,0,1-.53,1.26,1.17,1.17,0,0,0-.38.8,45.17,45.17,0,0,1-2.17,6.65,7.23,7.23,0,0,0-.52,1.66,4.8,4.8,0,0,1-.55,1.54,2.55,2.55,0,0,0-.36,1.26A3.65,3.65,0,0,1,18.12,91a21.4,21.4,0,0,0-1.42,4.24,3.27,3.27,0,0,1-.5,1.27,1.76,1.76,0,0,0-.28,1,4.51,4.51,0,0,1-.52,1.68,4.39,4.39,0,0,0-.51,1.5c0,.3-1.46,5.57-3.23,11.71s-3.47,12-3.75,13L7,128.47c-.22.71-.48,1.66-.6,2.13a5.56,5.56,0,0,1-.62,1.47,2.49,2.49,0,0,0-.41,1.12A3.25,3.25,0,0,1,5,134.42a3.74,3.74,0,0,0-.39,1.25,5.66,5.66,0,0,1-.51,1.64,5.69,5.69,0,0,0-.51,1.55,4.53,4.53,0,0,1-.52,1.44,4.82,4.82,0,0,0-.51,1.47c0,.26-.11.46-.25.46s-.33.32-.42.71c-.18.73-1.05,1.86-1.44,1.86-.12,0-.29-.17-.37-.38ZM110.44,45.94a6.31,6.31,0,0,0,.66-1.11,36.88,36.88,0,0,1,2-4,12.87,12.87,0,0,0,.81-1.85c.32-.85.68-1.72.79-1.94s.51-1.21.88-2.19.85-2.16,1.06-2.63A4.49,4.49,0,0,0,117,31a4.49,4.49,0,0,1,.49-1.35,35.37,35.37,0,0,0,1.43-4l1.82-5.92c1.64-5.32,1.88-6.18,2-7.4.09-.67.08-1.22,0-1.22a2.21,2.21,0,0,0-1.13,1.08,16.65,16.65,0,0,1-.9,2.15,13.28,13.28,0,0,0-.9,2.24,10.05,10.05,0,0,1-.55,1.73c-.3.78-.71,1.88-.92,2.45s-.53,1.37-.72,1.8c-.75,1.68-2.44,6.16-2.44,6.45a3.18,3.18,0,0,1-.39,1,3.43,3.43,0,0,0-.38,1.18,7.11,7.11,0,0,1-.62,1.8,13.62,13.62,0,0,0-.8,2.26,15.37,15.37,0,0,1-.65,2.06,33,33,0,0,0-1,3.22,11.83,11.83,0,0,1-.79,2.3,2,2,0,0,0-.23,1,2.49,2.49,0,0,1-.38,1.3,2.52,2.52,0,0,0-.38,1.25c0,.86,0,.86.87-.44ZM132,50.34a.75.75,0,0,1,.08-1.24,2.09,2.09,0,0,0,.38-1.44c0-1-.13-1.25-1.42-2.54a7.62,7.62,0,0,0-1.68-1.42,7.86,7.86,0,0,1-2.77-2.13c-1.12-1.23-1.39-1-2,1.49s-2,5.75-2.58,6a.57.57,0,0,0-.35.48c0,.82-2.38,1.25-2.67.47-.48-1.24.07-2.25,1.08-2,.58.15,1.59-.5,1.59-1a1.42,1.42,0,0,1,.35-.66A14.39,14.39,0,0,0,123.46,42a4.8,4.8,0,0,1,.51-1.55,5.58,5.58,0,0,0,.5-1.36c0-.18.3-.46.66-.62.55-.25.73-.21,1.28.31a2.07,2.07,0,0,1,.64.88,6.1,6.1,0,0,0,2.14,2.2,1,1,0,0,1,.63.52,1.06,1.06,0,0,0,.69.51c.54,0,2.67,2.33,3,3.28.16.46.43.84.61.84a21.42,21.42,0,0,0,5-2.9,3.53,3.53,0,0,1,1.25-.7.45.45,0,0,0,.41-.24,11.78,11.78,0,0,1,1.89-1.39,22.06,22.06,0,0,0,2.32-1.68c.72-.7,1.91-1,2.2-.52a8.62,8.62,0,0,1,.23,2.47,9.49,9.49,0,0,0,.42,3.15c.39,1,.48,1,1.45,1s3.8-1.14,3.8-1.54a6.64,6.64,0,0,1,1.46-1.19,36.48,36.48,0,0,0,5.93-5.42C163,35.35,163.38,35,163.86,35c.9,0,1.08,1.1.6,3.71-.23,1.28-.48,3.11-.55,4.07-.11,1.55-.08,1.73.34,1.73.58,0,2.42-1.25,2.42-1.65a3.41,3.41,0,0,1,.9-1.18,3.2,3.2,0,0,0,.9-1.19,1.16,1.16,0,0,1,.33-.65,7.89,7.89,0,0,0,1.47-2.52,4.4,4.4,0,0,1,.37-1.13c.34-.73.58-2.23,1.15-7.11a11.44,11.44,0,0,0-.23-4.74c-.33-.89-.35-2.66,0-2.32s1.09,5.41,1,7c-.07.82-.21,2.47-.3,3.67a19.68,19.68,0,0,1-.68,3.72c-.6,1.79-2.26,5.06-2.73,5.36a.68.68,0,0,0-.32.44c0,.52-1.33,2.15-2.37,2.89a6.25,6.25,0,0,0-1.19,1c-.16.4-1.5.22-1.95-.27-.89-1-.92-2-.15-6.4a6.56,6.56,0,0,0,.18-2c-.09-.08-.8.5-1.57,1.29a7.79,7.79,0,0,1-1.68,1.45.3.3,0,0,0-.27.32,4.16,4.16,0,0,1-1.2,1.35c-.65.57-1.79,1.58-2.53,2.25a6.72,6.72,0,0,1-1.62,1.23,1,1,0,0,0-.62.45c-.39.5-.82.79-2.61,1.73-1.45.75-1.91.79-3.06.24s-2-2.51-2-4.8a7,7,0,0,0-.11-1.74,18.55,18.55,0,0,0-1.83,1.22L141.61,44c-1.75,1.18-3.5,2.43-4.52,3.21a7.81,7.81,0,0,1-1.33.9,10.28,10.28,0,0,0-1.54,1.29c-1.46,1.35-1.73,1.47-2.23,1Zm54-27.41a3.5,3.5,0,0,1,1.45-1.35,4,4,0,0,0,1.13-.88,10.58,10.58,0,0,1,2-1.45,3.35,3.35,0,0,0,1.24-.93.71.71,0,0,1,.63-.34.72.72,0,0,0,.64-.39.59.59,0,0,1,.46-.38,57.35,57.35,0,0,0,6.26-3.15.45.45,0,0,0,.18-.49c-.22-.35-2.94-.26-4.28.15a19.89,19.89,0,0,1-3.09.54,10.18,10.18,0,0,0-2.57.53,5,5,0,0,1-1.88.36,4.65,4.65,0,0,0-1.66.25,5.08,5.08,0,0,1-1.33.38c-3.15.45-4.09.64-4.55.89a5.79,5.79,0,0,1-2,.28,3.31,3.31,0,0,0-1.56.23,6.22,6.22,0,0,1-2,.54,18.54,18.54,0,0,0-5,1.34c-.16.16-.09.36.21.58.58.43,1.05,1.94.61,1.94-.17,0-.42-.26-.56-.57a4.87,4.87,0,0,0-3.05-2,12.29,12.29,0,0,0-2.27.39c-2.12.55-11.76.67-12.39.15s-.56-1.57.05-1.57a2.15,2.15,0,0,0,1.07-.52c.57-.49.89-.51,6.41-.44,4.05.06,6,.18,6.39.4s1,.25,2.73-.07a23.32,23.32,0,0,1,3-.4,2.13,2.13,0,0,0,1.15-.26,5.61,5.61,0,0,1,1.92-.41,16.44,16.44,0,0,0,2.82-.51,18.42,18.42,0,0,1,3-.52,9.68,9.68,0,0,0,2.31-.44,7.53,7.53,0,0,1,2.19-.35,16.11,16.11,0,0,0,3.08-.5,19,19,0,0,1,3.35-.53,7.85,7.85,0,0,0,2.44-.45,7.56,7.56,0,0,1,2.38-.46,6.55,6.55,0,0,0,2.22-.43,2.93,2.93,0,0,1,1.61-.19l1.57.13c.2,0,.33.4.33.93,0,.79-.15,1-1.23,1.67a6,6,0,0,1-1.52.77.42.42,0,0,0-.38.22,16.6,16.6,0,0,1-2.6,1.44,20.09,20.09,0,0,0-2.63,1.42,2.25,2.25,0,0,1-1,.38,1.94,1.94,0,0,0-1,.36,7.32,7.32,0,0,1-1.5.92,10.88,10.88,0,0,0-1.54.89,7.74,7.74,0,0,1-2,1.32,1,1,0,0,0-.55.39c-.34.4-.78.51-.77.19Zm-24.53-4.49c.71-.29.69-.3-.69-.48a9.27,9.27,0,0,0-1.93-.08c-.42.08-1.77.24-2.76.34a.25.25,0,0,0-.19.27c0,.37,4.69.33,5.57,0ZM94.45.07a.54.54,0,0,1,.49,0c.21.08.15.14-.15.16s-.43,0-.34-.14Z"/></g></g></g></svg>